<svg width="44" height="31" viewBox="0 0 44 31" fill="none" xmlns="http://www.w3.org/2000/svg">
<path d="M32.8163 12.7016C32.7059 12.7016 32.6021 12.7277 32.5105 12.7764L31.0058 11.2689L28.4827 11.2661L28.4836 10.4758L32.3178 10.4796C32.4113 10.7302 32.6526 10.9107 32.936 10.9116C33.2988 10.9116 33.5953 10.6161 33.5953 10.2523C33.5962 9.88854 33.2998 9.59116 32.936 9.59116C32.6526 9.59116 32.4104 9.77071 32.3178 10.0223L28.4836 10.0185V9.28442L31.0076 9.28723L32.5161 7.78159C32.6068 7.82929 32.7106 7.85734 32.8209 7.85734C33.1838 7.85734 33.4812 7.56276 33.4812 7.19804C33.4812 6.83333 33.1857 6.53781 32.8219 6.53781C32.4581 6.53688 32.1616 6.83333 32.1616 7.19711C32.1616 7.28408 32.1785 7.36638 32.2093 7.44213L30.8187 8.82805L28.4855 8.82619L28.4864 7.62636H28.5622C28.5752 7.62636 28.5846 7.61607 28.5846 7.60298V6.54529C28.5846 6.5322 28.5743 6.52285 28.5622 6.52285H28.4873L28.4883 5.59235H28.5491C28.5696 5.59235 28.5846 5.57552 28.5846 5.55588V3.0309C28.5846 3.01033 28.5687 2.99443 28.5491 2.99443H28.4911L28.4929 1.55052C28.4939 0.701383 27.8065 0.0121592 26.9583 0.011224L17.095 9.53127e-07C16.2459 -0.000934222 15.5567 0.686421 15.5557 1.53556L15.5473 8.81216L13.1823 8.80935L11.7963 7.42062C11.8263 7.34487 11.844 7.26257 11.844 7.1756C11.844 6.81275 11.5494 6.51537 11.1847 6.51537C10.8209 6.51443 10.5245 6.81088 10.5245 7.17467C10.5245 7.53845 10.8191 7.83397 11.1838 7.8349C11.2932 7.8349 11.397 7.80778 11.4887 7.76009L12.9943 9.26852L15.5492 9.27133L15.5483 10.0054L11.6832 10.0008C11.5897 9.7492 11.3484 9.56872 11.065 9.56872C10.7012 9.56778 10.4057 9.86423 10.4048 10.2289C10.4048 10.5918 10.7003 10.8882 11.0641 10.8892C11.3474 10.8892 11.5897 10.7087 11.6822 10.4581L15.5473 10.4627L15.5464 11.253L12.9915 11.2502L11.483 12.7549C11.3914 12.7062 11.2885 12.6791 11.1782 12.6791C10.8144 12.6782 10.5179 12.9746 10.5179 13.3393C10.517 13.7022 10.8125 13.9986 11.1772 13.9996C11.541 13.9996 11.8365 13.7041 11.8375 13.3403C11.8375 13.2533 11.8197 13.171 11.7898 13.0953L13.1795 11.7084L15.5445 11.7112L15.5361 18.9878C15.5352 19.8369 16.2225 20.5262 17.0717 20.5271L26.9349 20.5383C27.7831 20.5393 28.4724 19.8519 28.4733 19.0028L28.4817 11.7262L30.815 11.728L32.2019 13.1177C32.171 13.1935 32.1542 13.2758 32.1542 13.3627C32.1532 13.7256 32.4487 14.022 32.8135 14.023C33.1763 14.023 33.4728 13.7265 33.4737 13.3627C33.4756 12.998 33.1791 12.7016 32.8163 12.7016ZM32.9378 10.0485C33.0491 10.0485 33.1389 10.1401 33.1389 10.2514C33.1389 10.3627 33.0482 10.4534 32.9369 10.4534C32.8256 10.4534 32.734 10.3627 32.734 10.2514C32.734 10.1401 32.8266 10.0485 32.9378 10.0485ZM32.8228 6.99605C32.9341 6.99605 33.0248 7.08676 33.0248 7.19804C33.0248 7.30933 32.9341 7.40004 32.8228 7.40004C32.7115 7.40004 32.6208 7.3084 32.6208 7.19711C32.6208 7.08582 32.7106 6.99605 32.8228 6.99605ZM11.1847 7.37666C11.0734 7.37666 10.9827 7.28595 10.9827 7.17467C10.9827 7.06338 11.0734 6.97267 11.1847 6.97267C11.296 6.97267 11.3867 7.06338 11.3867 7.17467C11.3867 7.28595 11.296 7.37666 11.1847 7.37666ZM11.0631 10.43C10.9519 10.43 10.8612 10.3384 10.8612 10.2271C10.8621 10.1158 10.9528 10.0251 11.0641 10.0251C11.1754 10.0251 11.2651 10.1167 11.2651 10.228C11.2651 10.3393 11.1744 10.43 11.0631 10.43ZM11.1772 13.5404C11.066 13.5404 10.9762 13.4497 10.9762 13.3384C10.9762 13.2271 11.0669 13.1355 11.1782 13.1355C11.2895 13.1355 11.3802 13.2271 11.3802 13.3384C11.3811 13.4497 11.2895 13.5404 11.1772 13.5404ZM20.8208 1.22228C20.8629 1.18019 20.9208 1.15494 20.9844 1.15588L23.0362 1.15775C23.1634 1.15775 23.2681 1.26155 23.2681 1.38874C23.2681 1.45233 23.2429 1.51031 23.2008 1.55239C23.1587 1.59448 23.0998 1.61973 23.0371 1.61973L20.9854 1.61785C20.8572 1.61692 20.7534 1.51312 20.7534 1.385C20.7525 1.32047 20.7787 1.26436 20.8208 1.22228ZM21.9897 19.6939C21.7157 19.6929 21.495 19.4713 21.496 19.1982C21.496 18.9251 21.7176 18.7044 21.9907 18.7054C22.2647 18.7054 22.4854 18.927 22.4854 19.1992C22.4854 19.4722 22.2637 19.6939 21.9897 19.6939ZM27.4521 18.0133L16.533 18.0012H16.5321L16.5498 2.52217L27.4699 2.53433L27.4521 18.0133ZM32.8153 13.5647C32.704 13.5647 32.6133 13.4731 32.6143 13.3618C32.6143 13.2505 32.705 13.1598 32.8163 13.1598C32.9276 13.1598 33.0183 13.2514 33.0183 13.3627C33.0173 13.474 32.9266 13.5647 32.8153 13.5647Z" fill="#8E000B"/>
<path d="M26.95 0.484429L17.0718 0.473207C16.4798 0.472272 15.9991 0.952016 15.9991 1.54398L15.9795 18.9794C15.9795 19.2646 16.0898 19.5246 16.2731 19.7172C16.3246 19.7715 16.3807 19.8201 16.4424 19.8631C16.6154 19.9819 16.824 20.053 17.0503 20.053L26.9285 20.0642C27.1623 20.0642 27.3765 19.9903 27.5523 19.8641C27.6159 19.8192 27.6739 19.7668 27.7262 19.7098C27.8974 19.5199 28.0012 19.2693 28.0021 18.9944L28.0217 1.55895C28.0208 0.965109 27.542 0.484429 26.95 0.484429ZM27.4522 18.0134L16.5331 18.0012H16.5322L16.5499 2.52218L27.47 2.53433L27.4522 18.0134ZM20.8209 1.22228C20.863 1.1802 20.921 1.15495 20.9846 1.15588L23.0363 1.15775C23.1635 1.15775 23.2682 1.26156 23.2682 1.38874C23.2682 1.45233 23.243 1.51032 23.2009 1.5524C23.1588 1.59448 23.0999 1.61973 23.0373 1.61973L20.9855 1.61786C20.8574 1.61693 20.7536 1.51312 20.7536 1.385C20.7526 1.32141 20.7788 1.26436 20.8209 1.22228ZM21.3268 19.1973C21.3268 18.8316 21.6251 18.5342 21.9908 18.5352C22.3565 18.5352 22.6548 18.8335 22.6548 19.1992C22.6538 19.5657 22.3555 19.8622 21.9899 19.8622C21.6242 19.8622 21.3259 19.5648 21.3268 19.1973Z" fill="#E20000"/>
<path d="M23.2674 1.38779C23.2674 1.45138 23.2421 1.50936 23.2 1.55145C23.158 1.59353 23.099 1.61878 23.0364 1.61878L20.9846 1.61691C20.8565 1.61597 20.7527 1.51217 20.7527 1.38405C20.7527 1.32046 20.7779 1.26341 20.82 1.22133C20.8621 1.17925 20.9201 1.154 20.9837 1.15493L23.0354 1.1568C23.1626 1.1568 23.2674 1.26061 23.2674 1.38779Z" fill="white"/>
<path d="M27.726 2.25192L16.2729 2.23883L16.2551 18.2855H16.2729L27.726 18.2986L27.7438 2.25192H27.726ZM27.4529 18.0134L16.5329 18.0012L16.5497 2.52219L27.4697 2.53435L27.4529 18.0134Z" fill="#8E000B"/>
<path d="M16.5488 2.52219L16.532 18.0012L27.4511 18.0134L27.4689 2.53434L16.5488 2.52219ZM17.5588 10.2654C17.5588 8.87857 18.1975 7.63853 19.1963 6.82306C19.1739 6.96614 19.1617 7.11016 19.1617 7.25604C19.1617 7.3028 19.1636 7.34863 19.1654 7.39352C18.4229 8.12669 17.9628 9.14323 17.9628 10.2664C17.9628 11.9048 18.9438 13.3179 20.3484 13.95V14.2203C20.3484 14.2792 20.3512 14.3372 20.3578 14.3933C18.7194 13.7396 17.5588 12.1349 17.5588 10.2654ZM23.3634 14.2194C23.3634 14.9703 22.7518 15.5828 22.0009 15.5828C21.2499 15.5828 20.6383 14.9703 20.6383 14.2194V9.41069C19.9014 8.94591 19.4516 8.13511 19.4516 7.25604C19.4516 6.45179 19.8378 5.68589 20.4859 5.20614L20.8057 4.96954C20.8637 4.92746 20.946 4.96861 20.946 5.04061V7.69371C20.946 7.73018 20.9675 7.76197 21.0012 7.77507L21.3369 7.91067C21.5492 7.99577 21.7727 8.03972 22.0009 8.03972C22.23 8.03972 22.4526 7.99577 22.6649 7.91067L22.9997 7.776C23.0333 7.76197 23.0558 7.73018 23.0558 7.69464V5.04061C23.0558 4.96861 23.1371 4.92746 23.196 4.96954L23.5159 5.20614C24.163 5.68589 24.5502 6.45179 24.5502 7.25604C24.5502 8.13511 24.0994 8.94497 23.3634 9.40975V14.2194ZM23.6412 14.3924C23.6477 14.3363 23.6505 14.2783 23.6505 14.2194V13.9491C25.0561 13.3169 26.0362 11.9039 26.0362 10.2654C26.0362 9.14229 25.5761 8.12576 24.8335 7.39258C24.8363 7.34769 24.8373 7.30187 24.8373 7.25511C24.8373 7.10922 24.8261 6.96521 24.8036 6.82212C25.8024 7.6376 26.4411 8.87764 26.4411 10.2645C26.4402 12.1349 25.2805 13.7396 23.6412 14.3924Z" fill="white"/>
<path d="M21.9906 18.5352C21.625 18.5342 21.3267 18.8316 21.3267 19.1973C21.3257 19.5639 21.6241 19.8612 21.9897 19.8622C22.3554 19.8622 22.6537 19.5657 22.6546 19.1991C22.6546 18.8335 22.3563 18.5352 21.9906 18.5352ZM21.9897 19.6938C21.7157 19.6929 21.495 19.4713 21.4959 19.1982C21.4959 18.9251 21.7176 18.7044 21.9906 18.7054C22.2646 18.7054 22.4853 18.927 22.4853 19.1991C22.4844 19.4722 22.2637 19.6938 21.9897 19.6938Z" fill="#8E000B"/>
<path d="M22.4853 19.1982C22.4843 19.4722 22.2627 19.6929 21.9896 19.6929C21.7156 19.692 21.4949 19.4703 21.4959 19.1973C21.4959 18.9242 21.7175 18.7035 21.9906 18.7044C22.2646 18.7044 22.4853 18.9261 22.4853 19.1982Z" fill="white"/>
<path d="M20.3485 14.2194V13.9491C18.9438 13.3169 17.9628 11.9039 17.9628 10.2655C17.9628 9.14231 18.4229 8.12578 19.1655 7.3926C19.1636 7.34771 19.1617 7.30189 19.1617 7.25513C19.1617 7.10924 19.1739 6.96523 19.1963 6.82214C18.1976 7.63762 17.5588 8.87766 17.5588 10.2645C17.5588 12.1339 18.7194 13.7378 20.3569 14.3915C20.3513 14.3372 20.3485 14.2783 20.3485 14.2194ZM24.8036 6.82308C24.8261 6.96616 24.8373 7.11018 24.8373 7.25606C24.8373 7.30282 24.8364 7.34865 24.8336 7.39354C25.5761 8.12671 26.0362 9.14325 26.0362 10.2664C26.0362 11.9048 25.0561 13.3179 23.6506 13.9501V14.2203C23.6506 14.2792 23.6478 14.3372 23.6412 14.3933C25.2796 13.7396 26.4402 12.1358 26.4402 10.2664C26.4402 8.87859 25.8015 7.63855 24.8036 6.82308Z" fill="#8E000B"/>
<path d="M23.5157 5.20613L23.1959 4.96953C23.1369 4.92745 23.0556 4.9686 23.0556 5.0406V7.69463C23.0556 7.73017 23.0341 7.76196 22.9995 7.77599L22.6647 7.91066C22.4524 7.99576 22.2289 8.03971 22.0007 8.03971C21.7716 8.03971 21.549 7.99576 21.3367 7.91066L21.001 7.77506C20.9683 7.76197 20.9458 7.73017 20.9458 7.6937V5.0406C20.9458 4.9686 20.8635 4.92745 20.8056 4.96953L20.4857 5.20613C19.8376 5.68588 19.4514 6.45178 19.4514 7.25604C19.4514 8.1351 19.9012 8.9459 20.6382 9.41068V14.2194C20.6382 14.9703 21.2498 15.5828 22.0007 15.5828C22.7517 15.5828 23.3633 14.9703 23.3633 14.2194V9.40974C24.0992 8.94496 24.55 8.1351 24.55 7.25604C24.55 6.45178 24.1628 5.68588 23.5157 5.20613ZM23.0743 14.2194C23.0743 14.8132 22.5936 15.2939 22.0007 15.2939C21.4078 15.2939 20.9262 14.8132 20.9262 14.2194V9.56872C20.9655 9.58836 21.0066 9.6052 21.0468 9.62109C21.088 9.63793 21.1291 9.65289 21.1712 9.66785C21.1778 9.66972 21.1834 9.67253 21.1899 9.6744C21.2254 9.68656 21.2619 9.69684 21.2984 9.70806C21.304 9.70993 21.3096 9.71087 21.3152 9.71274C21.3489 9.72209 21.3835 9.73144 21.42 9.73893C21.4302 9.74173 21.4415 9.74454 21.4518 9.74641C21.477 9.75202 21.5032 9.75763 21.5284 9.76231C21.5556 9.76792 21.5827 9.77259 21.6098 9.77633C21.6192 9.7782 21.6285 9.77914 21.6369 9.78007C21.6697 9.78569 21.7024 9.79036 21.736 9.79317C21.7398 9.79317 21.7445 9.7941 21.7482 9.7941C21.8324 9.80252 21.9165 9.80719 22.0007 9.80719C22.039 9.80719 22.0765 9.80626 22.1139 9.80439C22.1213 9.80439 22.1298 9.80439 22.1363 9.80345C22.17 9.80158 22.2027 9.79971 22.2373 9.79597C22.241 9.79597 22.2457 9.79504 22.2495 9.79504C22.2981 9.79036 22.3467 9.78381 22.3944 9.77633C22.4206 9.77259 22.4468 9.76792 22.473 9.76231C22.4982 9.75763 22.5244 9.75202 22.5497 9.74641C22.5609 9.74454 22.5712 9.74173 22.5814 9.73893C22.6161 9.73051 22.6507 9.72116 22.6862 9.71274C22.6918 9.71087 22.6974 9.70993 22.703 9.70806C22.7414 9.69684 22.7788 9.68562 22.8162 9.67253C22.8199 9.67159 22.8227 9.67066 22.8255 9.66972C22.8265 9.66972 22.8283 9.66879 22.8293 9.66879C22.8498 9.66131 22.8695 9.65382 22.8891 9.64728C22.9106 9.63886 22.9312 9.63044 22.9527 9.62296C22.9939 9.60706 23.035 9.5893 23.0752 9.57059V14.2194H23.0743ZM23.0743 9.24515C23.0537 9.25638 23.0341 9.26666 23.0135 9.27695L22.9508 9.30594C22.9331 9.31436 22.9162 9.32277 22.8985 9.32932C22.8807 9.33774 22.8639 9.34522 22.8452 9.35083C22.8386 9.35363 22.8321 9.35644 22.8255 9.35925C22.7937 9.37234 22.761 9.38356 22.7273 9.39478C22.7161 9.39852 22.7058 9.40226 22.6955 9.406C22.6675 9.41536 22.6385 9.42471 22.6095 9.43219C22.6067 9.43219 22.6039 9.43312 22.6002 9.43406C22.5637 9.44528 22.5253 9.45463 22.4879 9.46211C22.4515 9.47053 22.415 9.47801 22.3785 9.48362C22.371 9.48549 22.3636 9.48643 22.357 9.48736C22.3205 9.49391 22.2841 9.49859 22.2476 9.50233C22.2074 9.507 22.1662 9.51074 22.1251 9.51261C22.0839 9.51542 22.0428 9.51635 22.0007 9.51635C21.9586 9.51635 21.9175 9.51542 21.8763 9.51261C21.8352 9.51074 21.795 9.507 21.7538 9.50233H21.751C21.7379 9.50139 21.7267 9.49952 21.7136 9.49765C21.6912 9.49484 21.6668 9.49204 21.6444 9.48736C21.6341 9.48643 21.6238 9.48456 21.6135 9.48175C21.5799 9.47614 21.5462 9.46959 21.5116 9.46211C21.4742 9.4537 21.4368 9.44435 21.3994 9.43406C21.3966 9.43312 21.3928 9.43219 21.39 9.43219C21.362 9.42377 21.333 9.41442 21.3049 9.406C21.2956 9.4032 21.2862 9.39946 21.2778 9.39665C21.246 9.38543 21.2142 9.37514 21.1824 9.36205C21.1815 9.36205 21.1806 9.36111 21.1796 9.36111C21.1693 9.35737 21.1581 9.3527 21.1488 9.34802C21.1151 9.33493 21.0833 9.3209 21.0496 9.305L20.987 9.27601C20.9664 9.26479 20.9468 9.2545 20.9262 9.24422C20.2201 8.86267 19.7394 8.11546 19.7394 7.2551C19.7394 6.5107 20.1004 5.84953 20.6559 5.43805V7.85548C20.6559 7.91159 20.6905 7.96209 20.7429 7.98173L21.2282 8.17718C21.7239 8.37637 22.2766 8.37637 22.7732 8.17718L23.2595 7.98173C23.3118 7.96116 23.3446 7.91159 23.3446 7.85548V5.43805C23.901 5.84953 24.261 6.5107 24.261 7.2551C24.261 8.1164 23.7813 8.8636 23.0743 9.24515Z" fill="#8E000B"/>
<path d="M22.9508 9.6211C22.9293 9.62952 22.9088 9.63794 22.8872 9.64542C22.8676 9.6529 22.848 9.66038 22.8274 9.66693C22.8265 9.66693 22.8246 9.66786 22.8237 9.66786C22.8209 9.6688 22.818 9.66973 22.8143 9.67067C22.7769 9.68376 22.7395 9.69498 22.7011 9.7062C22.6955 9.70807 22.6899 9.70901 22.6843 9.71088C22.6497 9.72023 22.6151 9.72958 22.5796 9.73706C22.5693 9.73987 22.5581 9.74268 22.5478 9.74455C22.5225 9.75016 22.4963 9.75577 22.4711 9.76044C22.4449 9.76605 22.4187 9.77073 22.3925 9.77447C22.3448 9.78195 22.2962 9.7885 22.2476 9.79317C22.2438 9.79317 22.2392 9.79411 22.2354 9.79411C22.2018 9.79785 22.169 9.79972 22.1344 9.80159C22.127 9.80253 22.1185 9.80253 22.112 9.80253C22.0746 9.8044 22.0372 9.80533 21.9988 9.80533C21.9147 9.80533 21.8305 9.80066 21.7463 9.79224C21.7426 9.79224 21.7379 9.79131 21.7342 9.79131C21.7014 9.7885 21.6687 9.78382 21.6351 9.77821C21.6257 9.77728 21.6163 9.77634 21.6079 9.77447C21.5808 9.77073 21.5537 9.76605 21.5266 9.76044C21.5013 9.75577 21.4751 9.75016 21.4499 9.74455C21.4387 9.74268 21.4284 9.73987 21.4181 9.73706C21.3826 9.72865 21.348 9.7193 21.3133 9.71088C21.3077 9.70901 21.3021 9.70807 21.2965 9.7062C21.26 9.69498 21.2236 9.68469 21.188 9.67254C21.1815 9.67067 21.1759 9.66786 21.1693 9.66599C21.1272 9.65103 21.0861 9.63607 21.045 9.61923C21.0047 9.60334 20.9636 9.5865 20.9243 9.56686V14.2184C20.9243 14.8123 21.4059 15.2929 21.9988 15.2929C22.5917 15.2929 23.0724 14.8123 23.0724 14.2184V9.5678C23.0341 9.58744 22.992 9.60614 22.9508 9.6211ZM22.9003 14.2194C22.9003 14.7159 22.4963 15.1209 21.9998 15.1209C21.5032 15.1209 21.0983 14.7159 21.0983 14.2194V9.82497C21.3863 9.9269 21.6884 9.97834 21.9998 9.97834C22.3112 9.97834 22.6132 9.92597 22.9003 9.82497V14.2194Z" fill="white"/>
<path d="M23.3439 5.439V7.85642C23.3439 7.91253 23.3111 7.96303 23.2588 7.98267L22.7725 8.17812C22.2768 8.37732 21.7241 8.37732 21.2276 8.17812L20.7422 7.98267C20.6898 7.9621 20.6552 7.91253 20.6552 7.85642V5.439C20.0988 5.85047 19.7388 6.51164 19.7388 7.25604C19.7388 8.1164 20.2194 8.86361 20.9255 9.24516C20.9461 9.25638 20.9657 9.26667 20.9863 9.27696L21.0489 9.30595C21.0817 9.32184 21.1135 9.33587 21.1481 9.34896C21.1584 9.35364 21.1696 9.35832 21.1789 9.36206C21.1799 9.36206 21.1808 9.36299 21.1817 9.36299C21.2126 9.37608 21.2453 9.38637 21.2771 9.39759C21.2865 9.4004 21.2958 9.40414 21.3043 9.40694C21.3323 9.4163 21.3613 9.42565 21.3894 9.43313C21.3922 9.43313 21.3959 9.43407 21.3987 9.435C21.4361 9.44622 21.4735 9.45557 21.5109 9.46306C21.5446 9.47054 21.5783 9.47708 21.6129 9.48269C21.6241 9.4855 21.6344 9.48737 21.6437 9.48831C21.6662 9.49298 21.6905 9.49579 21.7129 9.49859C21.726 9.50046 21.7372 9.50233 21.7503 9.50327H21.7531C21.7943 9.50794 21.8345 9.51168 21.8756 9.51356C21.9168 9.51636 21.9579 9.5173 22 9.5173C22.0421 9.5173 22.0833 9.51636 22.1244 9.51356C22.1655 9.51168 22.2067 9.50794 22.2469 9.50327C22.2834 9.49953 22.3199 9.49485 22.3563 9.48831C22.3638 9.48737 22.3713 9.48644 22.3778 9.48457C22.4143 9.47895 22.4508 9.47147 22.4872 9.46306C22.5247 9.45464 22.563 9.44529 22.5995 9.435C22.6032 9.43407 22.606 9.43313 22.6088 9.43313C22.6378 9.42471 22.6668 9.41536 22.6949 9.40694C22.7061 9.4032 22.7164 9.39946 22.7267 9.39572C22.7594 9.3845 22.7921 9.37328 22.8248 9.36019C22.8314 9.35738 22.8379 9.35457 22.8445 9.35177C22.8632 9.34522 22.88 9.33774 22.8978 9.33026C22.9156 9.32278 22.9324 9.31436 22.9502 9.30688L23.0128 9.27789C23.0334 9.26667 23.053 9.25638 23.0736 9.24609C23.7806 8.86454 24.2603 8.11734 24.2603 7.25698C24.2613 6.51164 23.9003 5.85047 23.3439 5.439ZM22.9922 9.09366C22.6892 9.25732 22.347 9.34429 22 9.34429C21.6531 9.34429 21.3099 9.25732 21.0078 9.09366C20.3326 8.72894 19.9127 8.02476 19.9127 7.25604C19.9127 6.72206 20.1213 6.20771 20.4832 5.82335V7.85642C20.4832 7.98361 20.5599 8.09583 20.6777 8.14352L21.164 8.33804C21.4305 8.44558 21.712 8.50076 22 8.50076C22.2881 8.50076 22.5705 8.44558 22.837 8.33804L23.3224 8.14352C23.4402 8.09583 23.5159 7.98361 23.5159 7.85642V5.82335C23.8779 6.20771 24.0873 6.72206 24.0873 7.25604C24.0873 8.02476 23.6674 8.72801 22.9922 9.09366Z" fill="white"/>
<path d="M24.0872 7.25602C24.0872 8.02474 23.6673 8.72799 22.9921 9.09364C22.6891 9.2573 22.3469 9.34427 21.9999 9.34427C21.653 9.34427 21.3098 9.2573 21.0077 9.09364C20.3325 8.72892 19.9126 8.02474 19.9126 7.25602C19.9126 6.72204 20.1211 6.20769 20.4831 5.82333V7.85641C20.4831 7.98359 20.5597 8.09581 20.6776 8.1435L21.1639 8.33802C21.4304 8.44557 21.7119 8.50074 21.9999 8.50074C22.2879 8.50074 22.5704 8.44557 22.8369 8.33802L23.3222 8.1435C23.4401 8.09581 23.5158 7.98359 23.5158 7.85641V5.82333C23.8787 6.20769 24.0872 6.72204 24.0872 7.25602Z" fill="#E20000"/>
<path d="M21.9999 9.97927C21.6885 9.97927 21.3864 9.9269 21.0984 9.8259V14.2203C21.0984 14.7169 21.5024 15.1218 21.9999 15.1218C22.4965 15.1218 22.9005 14.7169 22.9005 14.2203V9.8259C22.6124 9.9269 22.3113 9.97927 21.9999 9.97927ZM21.9999 14.7505C21.6819 14.7505 21.4238 14.4924 21.4238 14.1754C21.4238 13.8584 21.6829 13.6003 21.9999 13.6003C22.3179 13.6003 22.575 13.8584 22.575 14.1754C22.575 14.4924 22.3169 14.7505 21.9999 14.7505Z" fill="#E20000"/>
<path d="M22.0001 13.4721C21.6111 13.4721 21.2969 13.7873 21.2969 14.1745C21.2969 14.5616 21.612 14.8768 22.0001 14.8768C22.3882 14.8768 22.7024 14.5616 22.7024 14.1745C22.7024 13.7873 22.3882 13.4721 22.0001 13.4721ZM22.0001 14.7505C21.6822 14.7505 21.4241 14.4924 21.4241 14.1754C21.4241 13.8584 21.6831 13.6003 22.0001 13.6003C22.3181 13.6003 22.5753 13.8584 22.5753 14.1754C22.5753 14.4924 22.3172 14.7505 22.0001 14.7505Z" fill="#8E000B"/>
<path d="M22.5753 14.1744C22.5753 14.4924 22.3172 14.7496 22.0001 14.7496C21.6822 14.7496 21.4241 14.4915 21.4241 14.1744C21.4241 13.8574 21.6831 13.5993 22.0001 13.5993C22.3172 13.5993 22.5753 13.8574 22.5753 14.1744Z" fill="white"/>
<path d="M2.96825 29.3879V28.1834C2.96825 27.7785 2.91868 27.4558 2.81862 27.2136C2.71855 26.9724 2.54742 26.8124 2.30614 26.7339V26.7142C2.74193 26.5253 2.95983 26.0746 2.95983 25.3629V24.9421C2.95983 24.4072 2.842 24.0107 2.6054 23.7526C2.36973 23.4944 1.99379 23.3654 1.47945 23.3654H0V30.2193H0.998767V27.2819H1.34385C1.5739 27.2819 1.73569 27.3436 1.8292 27.468C1.92272 27.5924 1.96948 27.8103 1.96948 28.1245V29.3776C1.96948 29.632 1.97509 29.8087 1.98725 29.906C1.99941 30.0042 2.02372 30.108 2.06019 30.2193H3.07673C3.0281 30.1015 2.99817 29.9827 2.98601 29.8621C2.97479 29.7423 2.96825 29.5834 2.96825 29.3879ZM1.96106 25.5789C1.96106 25.8399 1.9115 26.026 1.81143 26.1372C1.71137 26.2485 1.56174 26.3037 1.36255 26.3037H0.999703V24.3455H1.45326C1.62907 24.3455 1.75719 24.4006 1.83856 24.5119C1.91992 24.6232 1.96106 24.8028 1.96106 25.0506V25.5789Z" fill="#8E000B"/>
<path d="M3.65845 30.2202H6.38168V29.2411H4.65722V27.136H6.02818V26.1569H4.65722V24.3455H6.38168V23.3663H3.65845V30.2202Z" fill="#8E000B"/>
<path d="M9.91271 25.0599C9.91271 24.5054 9.78833 24.0845 9.54051 23.7965C9.29269 23.5094 8.92049 23.3654 8.42391 23.3654H6.95288V30.2193H7.95165V27.4287H8.42391C8.92049 27.4287 9.29269 27.2856 9.54051 26.9976C9.78833 26.7105 9.91271 26.2897 9.91271 25.7342V25.0599ZM8.91394 25.8043C8.91394 26.0391 8.87279 26.2055 8.79143 26.3037C8.71007 26.4019 8.58757 26.4505 8.42391 26.4505H7.95165V24.3455H8.42391C8.58757 24.3455 8.71007 24.3941 8.79143 24.4923C8.87279 24.5905 8.91394 24.7569 8.91394 24.9917V25.8043Z" fill="#8E000B"/>
<path d="M10.9117 23.3663L9.87646 30.2202H10.8023L10.9837 28.8792H12.1181V28.8596L12.2995 30.2202H13.2983L12.263 23.3663H10.9117ZM11.1025 27.9487L11.5383 24.5606H11.556L12.0012 27.9487H11.1025Z" fill="#8E000B"/>
<path d="M14.7786 23.3663H13.7798V30.2202H14.7786V23.3663Z" fill="#8E000B"/>
<path d="M18.5099 29.863C18.4978 29.7423 18.4922 29.5843 18.4922 29.3879V28.1834C18.4922 27.7785 18.4426 27.4558 18.3425 27.2136C18.2425 26.9724 18.0713 26.8124 17.8301 26.7339V26.7142C18.2659 26.5253 18.4838 26.0746 18.4838 25.3629V24.9421C18.4838 24.4072 18.3659 24.0107 18.1293 23.7526C17.8937 23.4944 17.5177 23.3654 17.0034 23.3654H15.5239V30.2193H16.5227V27.2819H16.8678C17.0978 27.2819 17.2596 27.3436 17.3531 27.468C17.4466 27.5924 17.4934 27.8103 17.4934 28.1245V29.3776C17.4934 29.632 17.499 29.8087 17.5112 29.906C17.5233 30.0042 17.5476 30.108 17.5841 30.2193H18.6007C18.552 30.1024 18.5221 29.9836 18.5099 29.863ZM17.4841 25.5789C17.4841 25.8399 17.4345 26.026 17.3344 26.1372C17.2344 26.2485 17.0847 26.3037 16.8855 26.3037H16.5227V24.3455H16.9763C17.1521 24.3455 17.2802 24.4006 17.3615 24.5119C17.4429 24.6232 17.4841 24.8028 17.4841 25.0506V25.5789Z" fill="#8E000B"/>
<path d="M22.0496 23.2681C21.5652 23.2681 21.1967 23.4168 20.9423 23.7133C20.688 24.0107 20.5608 24.4362 20.5608 24.9907V28.594C20.5608 29.1485 20.688 29.575 20.9423 29.8714C21.1967 30.1688 21.5661 30.3165 22.0496 30.3165C22.534 30.3165 22.9025 30.1679 23.1568 29.8714C23.4112 29.575 23.5384 29.1485 23.5384 28.594V26.3514H22.0954V27.3305H22.5948V28.6716C22.5948 29.1158 22.4227 29.3374 22.0776 29.3374C21.7326 29.3374 21.5605 29.1158 21.5605 28.6716V24.9215C21.5605 24.4708 21.7326 24.2463 22.0776 24.2463C22.4227 24.2463 22.5948 24.4717 22.5948 24.9215V25.578H23.5393V24.9907C23.5393 24.4362 23.4121 24.0097 23.1578 23.7133C22.9034 23.4168 22.534 23.2681 22.0496 23.2681Z" fill="#E20000"/>
<path d="M24.9554 23.3664L23.9202 30.2203H24.846L25.0274 28.8792H26.1618V28.8596L26.3432 30.2203H27.342L26.3067 23.3664H24.9554ZM25.1452 27.9487L25.581 24.5606H25.5988L26.0439 27.9487H25.1452Z" fill="#E20000"/>
<path d="M28.8223 23.3664H27.8235V30.2203H30.4654V29.2411H28.8223V23.3664Z" fill="#E20000"/>
<path d="M31.9448 23.3664H30.946V30.2203H33.5879V29.2411H31.9448V23.3664Z" fill="#E20000"/>
<path d="M34.0686 30.2203H36.7918V29.2411H35.0674V27.1361H36.4383V26.1569H35.0674V24.3455H36.7918V23.3664H34.0686V30.2203Z" fill="#E20000"/>
<path d="M40.3325 29.3879V28.1834C40.3325 27.7785 40.2829 27.4559 40.1829 27.2137C40.0828 26.9724 39.9117 26.8125 39.6704 26.7339V26.7143C40.1062 26.5254 40.3241 26.0746 40.3241 25.363V24.9421C40.3241 24.4072 40.2063 24.0107 39.9697 23.7526C39.734 23.4945 39.3581 23.3654 38.8437 23.3654H37.3643V30.2193H38.363V27.2819H38.7081C38.9382 27.2819 39.0999 27.3437 39.1935 27.468C39.287 27.5924 39.3337 27.8103 39.3337 28.1245V29.3777C39.3337 29.632 39.3393 29.8088 39.3515 29.906C39.3637 30.0042 39.388 30.108 39.4245 30.2193H40.441C40.3924 30.1015 40.3624 29.9827 40.3503 29.8621C40.339 29.7424 40.3325 29.5834 40.3325 29.3879ZM39.3253 25.579C39.3253 25.8399 39.2758 26.026 39.1757 26.1373C39.0756 26.2486 38.926 26.3037 38.7268 26.3037H38.364V24.3455H38.8175C38.9933 24.3455 39.1215 24.4007 39.2028 24.5119C39.2842 24.6232 39.3253 24.8028 39.3253 25.0506V25.579Z" fill="#E20000"/>
<path d="M43.0284 23.3664L42.3476 25.882H42.3298L41.649 23.3664H40.5867L41.794 27.3025V30.2203H42.7928V27.3025L44.0001 23.3664H43.0284Z" fill="#E20000"/>
</svg>
