<svg width="101" height="100" viewBox="0 0 101 100" fill="none" xmlns="http://www.w3.org/2000/svg">
<path d="M12.2148 45.3209H38.9258C43.1172 45.3212 46.5146 48.7192 46.5146 52.9108V81.6696H4.625V52.9108C4.625 48.85 7.81395 45.5338 11.8242 45.3307L12.2148 45.3209Z" stroke="#8E000B" stroke-width="2"/>
<path d="M96.3749 55.4067V72.6177H79.3856V55.4067H96.3749Z" stroke="#8E000B" stroke-width="2"/>
<path d="M92.7915 74.4694V78.2584H82.9692V74.4694H92.7915Z" stroke="#8E000B" stroke-width="2"/>
<path d="M57.1326 6.10205C75.4651 6.10205 90.3159 20.4578 90.3162 38.0239V53.1216C90.316 54.1918 89.4054 55.1226 88.2 55.1226C86.9946 55.1225 86.0839 54.1917 86.0837 53.1216V38.0239C86.0835 22.5935 73.0625 10.104 57.1326 10.104C41.2027 10.104 28.1817 22.5935 28.1814 38.0239V43.4351C28.1812 44.5053 27.2706 45.436 26.0652 45.436C24.8597 45.436 23.9491 44.5053 23.949 43.4351V38.0239C23.9492 20.4578 38.8 6.10209 57.1326 6.10205Z" stroke="#8E000B" stroke-width="2"/>
<path d="M14.7832 83.6531V89.4646C14.7832 90.6384 13.8329 91.5896 12.6582 91.5896C11.4835 91.5896 10.5332 90.6384 10.5332 89.4646V83.6531H14.7832Z" stroke="#8E000B" stroke-width="2"/>
<path d="M40.6072 83.6531V89.4646C40.6072 90.6384 39.6569 91.5896 38.4822 91.5896C37.3075 91.5896 36.3572 90.6384 36.3572 89.4646V83.6531H40.6072Z" stroke="#8E000B" stroke-width="2"/>
</svg>
