<svg width="101" height="100" viewBox="0 0 101 100" fill="none" xmlns="http://www.w3.org/2000/svg">
<path d="M32.2718 59.2781C31.9779 59.2789 31.6962 59.396 31.4883 59.6039C31.2804 59.8118 31.1633 60.0935 31.1625 60.3874V77.3031C31.165 79.2541 31.9411 81.1246 33.3207 82.5042C34.7003 83.8838 36.5708 84.66 38.5218 84.6624H62.4781C64.4292 84.66 66.2996 83.8838 67.6792 82.5042C69.0588 81.1246 69.835 79.2541 69.8375 77.3031V60.3874C69.8367 60.0935 69.7195 59.8118 69.5116 59.6039C69.3038 59.396 69.0221 59.2789 68.7281 59.2781H32.2718ZM67.6218 77.3031C67.6202 78.6668 67.0777 79.9741 66.1135 80.9384C65.1492 81.9027 63.8418 82.4452 62.4781 82.4468H38.5218C37.1581 82.4452 35.8508 81.9027 34.8865 80.9384C33.9222 79.9741 33.3798 78.6668 33.3781 77.3031V61.4937H67.6218V77.3031Z" fill="#8E000B"/>
<path d="M94.4281 71.6813L91.0281 51.9219C90.9832 51.6645 90.8489 51.4312 90.6488 51.2631C90.4487 51.095 90.1957 51.003 89.9344 51.0032H81.75V44.2313C83.9006 41.4706 85.0744 38.0745 85.0875 34.5751V31.4501C85.0822 28.4074 84.2059 25.4298 82.5623 22.8692C80.9188 20.3086 78.5766 18.272 75.8125 17.0001V6.25005C75.8117 5.95637 75.6944 5.675 75.4865 5.46763C75.2785 5.26025 74.9968 5.1438 74.7031 5.1438H65.6125C65.3188 5.1438 65.0371 5.26025 64.8292 5.46763C64.6212 5.675 64.504 5.95637 64.5031 6.25005V15.4876H61.0063V14.4032C61.0046 12.8668 60.3938 11.3938 59.3077 10.3071C58.2216 9.22042 56.7489 8.60878 55.2125 8.6063H45.7875C44.2511 8.60878 42.7784 9.22042 41.6924 10.3071C40.6063 11.3938 39.9954 12.8668 39.9938 14.4032V15.4876H35.0156V6.25005C35.0156 6.10451 34.9869 5.96041 34.9311 5.82599C34.8753 5.69157 34.7936 5.56947 34.6905 5.46671C34.5875 5.36394 34.4651 5.28252 34.3306 5.22711C34.196 5.1717 34.0518 5.14339 33.9063 5.1438H24.8031C24.5097 5.1438 24.2284 5.26035 24.0209 5.46782C23.8134 5.67528 23.6969 5.95666 23.6969 6.25005V17.8126C21.3276 19.2159 19.3634 21.2106 17.9966 23.6012C16.6299 25.9918 15.9074 28.6963 15.9 31.4501V34.5751C15.9167 38.0759 17.095 41.4723 19.25 44.2313V51.0032H11.0656C10.8043 51.003 10.5513 51.095 10.3512 51.2631C10.1511 51.4312 10.0168 51.6645 9.97189 51.9219L6.57189 71.6813C6.27972 73.3047 6.31068 74.9697 6.66299 76.5811C7.0153 78.1925 7.68204 79.7186 8.62501 81.0719C9.3598 82.1498 10.3403 83.0374 11.4857 83.6618C12.6311 84.2861 13.9085 84.6291 15.2125 84.6626H19.25C19.2739 87.3722 20.3662 89.963 22.2896 91.8718C24.2131 93.7806 26.8121 94.8531 29.5219 94.8563H71.4813C74.1905 94.8523 76.7887 93.7794 78.7115 91.8707C80.6342 89.962 81.7261 87.3717 81.75 84.6626H85.7844C87.089 84.6296 88.367 84.2868 89.5129 83.6625C90.6589 83.0381 91.6399 82.1502 92.375 81.0719C93.318 79.7186 93.9847 78.1925 94.337 76.5811C94.6893 74.9697 94.7203 73.3047 94.4281 71.6813ZM19.25 82.4469H15.2125C14.2571 82.411 13.3239 82.149 12.4895 81.6824C11.6551 81.2157 10.9433 80.5578 10.4125 79.7626C9.64287 78.6503 9.10062 77.3969 8.81692 76.0744C8.53322 74.7519 8.51367 73.3864 8.75939 72.0563L12 53.2188H19.25V82.4469ZM66.7188 7.3563H73.5938V16.2001C72.1471 15.7494 70.6432 15.5094 69.1281 15.4876H66.7188V7.3563ZM42.2094 14.4032C42.2094 13.4539 42.5863 12.5435 43.2572 11.872C43.9282 11.2004 44.8382 10.8228 45.7875 10.8219H55.2125C56.1618 10.8228 57.0719 11.2004 57.7428 11.872C58.4138 12.5435 58.7906 13.4539 58.7906 14.4032V15.4876H42.2094V14.4032ZM25.9125 7.3563H32.7875V15.4813H31.85C29.8137 15.4872 27.7976 15.8861 25.9125 16.6563V7.3563ZM79.5625 84.5782C79.56 86.7166 78.7095 88.7666 77.1974 90.2787C75.6853 91.7908 73.6353 92.6413 71.4969 92.6438H29.5188C27.3804 92.6413 25.3303 91.7908 23.8182 90.2787C22.3062 88.7666 21.4556 86.7166 21.4531 84.5782V46.5625C24.3263 49.0996 28.0233 50.5066 31.8563 50.5219H43.0156C43.1128 51.7382 43.6634 52.8735 44.5582 53.7029C45.453 54.5323 46.6268 54.9953 47.8469 55.0001H53.1594C54.3791 54.9979 55.5536 54.5377 56.4501 53.7107C57.3466 52.8836 57.8997 51.75 58 50.5344H69.1594C72.994 50.5157 76.6911 49.1041 79.5625 46.5625V84.5782ZM45.1875 50.1251V46.6063C45.1875 45.9015 45.4673 45.2256 45.9653 44.7269C46.4634 44.2283 47.139 43.9478 47.8438 43.9469H53.1563C53.861 43.9478 54.5367 44.2283 55.0347 44.7269C55.5328 45.2256 55.8125 45.9015 55.8125 46.6063V50.1251C55.8117 50.8296 55.5317 51.505 55.0338 52.0035C54.5359 52.502 53.8608 52.7828 53.1563 52.7844H47.8438C47.1392 52.7828 46.4641 52.502 45.9662 52.0035C45.4684 51.505 45.1883 50.8296 45.1875 50.1251ZM69.1406 48.3188H58.025V46.6063C58.0234 45.3144 57.5096 44.0759 56.5964 43.1621C55.6832 42.2483 54.445 41.7338 53.1531 41.7313H47.8406C46.5488 41.7338 45.3105 42.2483 44.3973 43.1621C43.4841 44.0759 42.9704 45.3144 42.9688 46.6063V48.3188H31.8563C28.2095 48.3188 24.7122 46.8701 22.1335 44.2915C19.5549 41.7129 18.1063 38.2155 18.1063 34.5688V31.4438C18.1063 27.7971 19.5549 24.2997 22.1335 21.7211C24.7122 19.1425 28.2095 17.6938 31.8563 17.6938H69.1438C72.7905 17.6938 76.2879 19.1425 78.8665 21.7211C81.4451 24.2997 82.8938 27.7971 82.8938 31.4438V34.5688C82.8938 38.2155 81.4451 41.7129 78.8665 44.2915C76.2879 46.8701 72.7874 48.3188 69.1406 48.3188ZM90.5844 79.7626C90.0536 80.5578 89.3418 81.2157 88.5074 81.6824C87.673 82.149 86.7398 82.411 85.7844 82.4469H81.75V53.2188H89L92.2406 72.0594C92.4863 73.389 92.4667 74.754 92.183 76.076C91.8993 77.398 91.3539 78.6508 90.5844 79.7626Z" fill="#8E000B"/>
</svg>
