<svg width="169" height="168" viewBox="0 0 169 168" fill="none" xmlns="http://www.w3.org/2000/svg">
<path d="M36.8103 106.091V110.485C36.8103 112.446 38.4047 114.04 40.3649 114.04H44.7821C46.7424 114.04 48.3367 112.446 48.3367 110.485V106.091C50.1512 105.343 51.4332 103.558 51.4332 101.477V83.347C51.4332 80.5956 49.1948 78.3572 46.4434 78.3572H44.3995V61.0325C44.3995 49.6223 52.581 41.0179 63.4298 41.0179C74.466 41.0179 83.4441 49.9963 83.4441 61.0325V106.967C83.4441 113.239 85.6783 119.077 89.7346 123.406C93.8791 127.828 99.5688 130.263 105.756 130.263C111.942 130.263 117.632 127.828 121.777 123.406C125.815 119.097 128.045 113.292 128.065 107.053H128.067V89.732H130.296C133.047 89.732 135.286 87.4941 135.286 84.7428V66.6126C135.286 64.5316 134.004 62.746 132.189 61.9985V57.6042C132.189 55.644 130.595 54.0497 128.635 54.0497H124.218C122.257 54.0497 120.663 55.6444 120.663 57.6042V61.9985C118.848 62.746 117.567 64.5316 117.567 66.6126V84.7428C117.567 87.4941 119.805 89.732 122.556 89.732H124.786V106.967C124.786 118.377 116.604 126.982 105.755 126.982C94.9065 126.982 86.725 118.377 86.725 106.967V60.3136H86.7067C86.3244 47.8005 76.0334 37.7369 63.4295 37.7369C57.2427 37.7369 51.553 40.1723 47.4084 44.5948C43.4011 48.8705 41.1767 54.6206 41.1232 60.8058H41.118V78.3575H38.7039C35.9526 78.3575 33.7145 80.596 33.7145 83.3473V101.477C33.7145 103.558 34.9958 105.343 36.8103 106.091ZM123.944 57.6042C123.944 57.4536 124.067 57.3309 124.218 57.3309H128.635C128.785 57.3309 128.908 57.4536 128.908 57.6042V61.6231H123.944V57.6042ZM120.848 84.7428V66.6126C120.848 65.6705 121.614 64.904 122.556 64.904H130.296C131.238 64.904 132.004 65.6702 132.004 66.6126V84.7428C132.004 85.6849 131.238 86.4507 130.296 86.4507H122.556C121.614 86.4507 120.848 85.6849 120.848 84.7428ZM45.0555 110.485C45.0555 110.636 44.9327 110.759 44.7821 110.759H40.3649C40.2143 110.759 40.0916 110.636 40.0916 110.485V106.466H45.0555V110.485ZM36.9957 83.347C36.9957 82.4046 37.7619 81.6384 38.7039 81.6384H46.4434C47.3855 81.6384 48.152 82.4046 48.152 83.347V101.477C48.152 102.419 47.3855 103.185 46.4434 103.185H38.7039C37.7619 103.185 36.9957 102.419 36.9957 101.477V83.347Z" fill="#8E000B"/>
</svg>
