<svg width="137" height="104" viewBox="0 0 137 104" fill="none" xmlns="http://www.w3.org/2000/svg">
<path d="M112.642 61.5H24.2518" stroke="#8E000B" stroke-width="2.89362" stroke-linecap="round" stroke-linejoin="round"/>
<path d="M19.625 27.1047V20.625C19.625 16.2067 23.2067 12.625 27.625 12.625H109.375C113.793 12.625 117.375 16.2067 117.375 20.625V27.0495" stroke="#8E000B" stroke-width="2.89362" stroke-linecap="round" stroke-linejoin="round"/>
<path d="M19.875 27.5H8.75C6.54086 27.5 4.75 29.2909 4.75 31.5V70.25C4.75 72.4591 6.54086 74.25 8.75 74.25H19.875C22.0841 74.25 23.875 72.4591 23.875 70.25V31.5C23.875 29.2909 22.0841 27.5 19.875 27.5Z" stroke="#8E000B" stroke-width="2.89362" stroke-linecap="round" stroke-linejoin="round"/>
<path d="M83.375 70H53.625" stroke="#8E000B" stroke-width="2.89362" stroke-linecap="round" stroke-linejoin="round"/>
<path d="M14.3125 44.5C16.0729 44.5 17.5 43.0729 17.5 41.3125C17.5 39.5521 16.0729 38.125 14.3125 38.125C12.5521 38.125 11.125 39.5521 11.125 41.3125C11.125 43.0729 12.5521 44.5 14.3125 44.5Z" stroke="#8E000B" stroke-width="2.89362" stroke-linecap="round" stroke-linejoin="round"/>
<path d="M14.3125 65.75C18.4201 65.75 21.75 62.4201 21.75 58.3125C21.75 54.2049 18.4201 50.875 14.3125 50.875C10.2049 50.875 6.875 54.2049 6.875 58.3125C6.875 62.4201 10.2049 65.75 14.3125 65.75Z" stroke="#8E000B" stroke-width="2.89362" stroke-linecap="round" stroke-linejoin="round"/>
<path d="M128.25 27.5H117.125C114.916 27.5 113.125 29.2909 113.125 31.5V70.25C113.125 72.4591 114.916 74.25 117.125 74.25H128.25C130.459 74.25 132.25 72.4591 132.25 70.25V31.5C132.25 29.2909 130.459 27.5 128.25 27.5Z" stroke="#8E000B" stroke-width="2.89362" stroke-linecap="round" stroke-linejoin="round"/>
<path d="M122.688 44.5C124.448 44.5 125.875 43.0729 125.875 41.3125C125.875 39.5521 124.448 38.125 122.688 38.125C120.927 38.125 119.5 39.5521 119.5 41.3125C119.5 43.0729 120.927 44.5 122.688 44.5Z" stroke="#8E000B" stroke-width="2.89362" stroke-linecap="round" stroke-linejoin="round"/>
<path d="M122.688 65.75C126.795 65.75 130.125 62.4201 130.125 58.3125C130.125 54.2049 126.795 50.875 122.688 50.875C118.58 50.875 115.25 54.2049 115.25 58.3125C115.25 62.4201 118.58 65.75 122.688 65.75Z" stroke="#8E000B" stroke-width="2.89362" stroke-linecap="round" stroke-linejoin="round"/>
<path d="M78.7369 86.7962C78.94 88.0153 78 89.125 76.7641 89.125H38.9859C37.75 89.125 36.81 88.0153 37.0131 86.7962L38.4715 78.0462C38.6322 77.0818 39.4666 76.375 40.4443 76.375H75.3057C76.2834 76.375 77.1178 77.0818 77.2785 78.0462L78.7369 86.7962Z" stroke="#8E000B" stroke-width="2.89362" stroke-linecap="round" stroke-linejoin="round"/>
<path d="M97.1875 80.625C97.8851 80.625 98.576 80.7624 99.2205 81.0294C99.865 81.2964 100.451 81.6877 100.944 82.181C101.437 82.6743 101.829 83.26 102.096 83.9045C102.363 84.549 102.5 85.2399 102.5 85.9375V87H91.875V85.9375C91.875 84.5285 92.4347 83.1773 93.431 82.181C94.4273 81.1847 95.7785 80.625 97.1875 80.625Z" stroke="#8E000B" stroke-width="2.89362" stroke-linecap="round" stroke-linejoin="round"/>
<path d="M96.125 53H83.375V29.625L89.75 25.375L96.125 29.625V53Z" stroke="#8E000B" stroke-width="2.89362" stroke-linecap="round" stroke-linejoin="round"/>
<path d="M91.875 33.875C91.875 34.2953 91.7504 34.7061 91.5169 35.0556C91.2834 35.405 90.9515 35.6774 90.5632 35.8382C90.1749 35.9991 89.7476 36.0412 89.3354 35.9592C88.9232 35.8772 88.5446 35.6748 88.2474 35.3776C87.9502 35.0804 87.7478 34.7018 87.6658 34.2896C87.5838 33.8774 87.6259 33.4501 87.7868 33.0618C87.9476 32.6735 88.22 32.3416 88.5694 32.1081C88.9189 31.8746 89.3297 31.75 89.75 31.75C90.3136 31.75 90.8541 31.9739 91.2526 32.3724C91.6511 32.7709 91.875 33.3114 91.875 33.875Z" fill="#8E000B"/>
<path d="M81.25 12.625V8.375C81.25 7.24783 81.6978 6.16683 82.4948 5.3698C83.2918 4.57277 84.3728 4.125 85.5 4.125C86.6272 4.125 87.7082 4.57277 88.5052 5.3698C89.3022 6.16683 89.75 7.24783 89.75 8.375V25.375" stroke="#8E000B" stroke-width="2.89362" stroke-linecap="round" stroke-linejoin="round"/>
<path d="M43 82.75H72.75" stroke="#8E000B" stroke-width="2.89362" stroke-linecap="round" stroke-linejoin="round"/>
<path d="M66.375 76.375V89.125" stroke="#8E000B" stroke-width="2.89362" stroke-linejoin="round"/>
<path d="M74.875 61.5V70" stroke="#8E000B" stroke-width="2.89362" stroke-linejoin="round"/>
<path d="M62.125 61.5V70" stroke="#8E000B" stroke-width="2.89362" stroke-linejoin="round"/>
</svg>
