<svg width="105" height="104" viewBox="0 0 105 104" fill="none" xmlns="http://www.w3.org/2000/svg">
<path d="M37.0353 30.3149C37.9741 30.0634 38.939 30.6205 39.1905 31.5592C39.4421 32.498 38.885 33.4629 37.9462 33.7145L31.147 35.5363C30.2082 35.7879 29.2433 35.2308 28.9918 34.292C28.7402 33.3532 29.2973 32.3883 30.2361 32.1367L37.0353 30.3149Z" fill="#8E000B"/>
<path d="M36.1663 29.4522C37.105 29.2007 38.07 29.7578 38.3215 30.6966C38.5731 31.6353 38.016 32.6003 37.0772 32.8518L30.278 34.6737C29.3392 34.9252 28.3743 34.3681 28.1227 33.4293C27.8712 32.4905 28.4283 31.5256 29.3671 31.2741L36.1663 29.4522Z" stroke="#8E000B" stroke-width="0.866667" stroke-linecap="round"/>
<path d="M76.3951 34.8222C75.7976 34.8535 75.2875 34.3945 75.2563 33.7971C75.2251 33.1995 75.684 32.6898 76.2816 32.6585L76.3951 34.8222ZM82.9684 22.578C82.8137 23.1559 82.2196 23.4989 81.6415 23.344C81.0639 23.1892 80.7207 22.5951 80.8758 22.0172L82.9684 22.578ZM83.1053 22.0681C82.9502 22.646 82.3561 22.9889 81.7784 22.8341C81.2004 22.6792 80.8576 22.0852 81.0123 21.5073L83.1053 22.0681ZM79.7812 30.2867L78.7633 29.9161C78.9618 29.3712 79.5541 29.0791 80.1071 29.2535C80.6604 29.4279 80.9781 30.0069 80.8277 30.5671L79.7812 30.2867ZM61.9617 32.4944C61.9617 31.8961 62.4466 31.4111 63.045 31.4111C63.643 31.4111 64.1284 31.8961 64.1284 32.4944H61.9617ZM68.1796 12.3926L78.7182 15.2165L78.1575 17.3093L67.6189 14.4855L68.1796 12.3926ZM79.3483 33.5397C78.5588 34.3008 77.5131 34.7636 76.3951 34.8222L76.2816 32.6585C76.8731 32.6275 77.4269 32.3827 77.8447 31.9797L79.3483 33.5397ZM78.7182 15.2165C79.9025 15.5337 80.7463 15.7459 81.3937 16.1666L80.2137 17.9837C79.9264 17.7971 79.5043 17.6702 78.1575 17.3093L78.7182 15.2165ZM80.8758 22.0172C81.2363 20.6703 81.3377 20.2415 81.3195 19.8994L83.4832 19.786C83.5239 20.5572 83.2856 21.3939 82.9684 22.578L80.8758 22.0172ZM81.3937 16.1666C82.6295 16.969 83.406 18.3146 83.4832 19.786L81.3195 19.8994C81.2788 19.1206 80.8676 18.4084 80.2137 17.9837L81.3937 16.1666ZM67.6189 14.4855C65.4236 13.8973 63.4381 13.9375 61.8547 14.717C60.302 15.4813 58.9435 17.052 58.1692 19.9411L56.0766 19.3804C56.9693 16.0478 58.6519 13.8788 60.8974 12.7732C63.1117 11.6829 65.681 11.7231 68.1796 12.3926L67.6189 14.4855ZM92.2565 28.7104L92.074 29.3903L89.9814 28.8295L90.1635 28.1496L92.2565 28.7104ZM81.0123 21.5073L81.6042 19.2975L83.6973 19.8583L83.1053 22.0681L81.0123 21.5073ZM92.074 29.3903C90.7121 34.4743 85.486 37.4914 80.4022 36.1291L80.9629 34.0363C84.8911 35.0889 88.9289 32.7577 89.9814 28.8295L92.074 29.3903ZM85.5177 17.0383C90.6015 18.4005 93.6184 23.6263 92.2565 28.7104L90.1635 28.1496C91.216 24.2214 88.8851 20.1837 84.9565 19.1311L85.5177 17.0383ZM84.9565 19.1311C84.4079 18.9842 83.8442 19.3097 83.6973 19.8583L81.6042 19.2975C82.061 17.5931 83.8129 16.5816 85.5177 17.0383L84.9565 19.1311ZM78.3621 31.0185L78.7633 29.9161L80.7996 30.6572L80.3978 31.7597L78.3621 31.0185ZM80.4022 36.1291C79.6057 35.9157 78.98 35.5006 78.58 34.8803C78.1952 34.283 78.0977 33.6161 78.1068 33.0327C78.1246 31.9359 78.5545 30.6797 78.7352 30.0063L80.8277 30.5671C80.5786 31.4969 80.2852 32.3241 80.2735 33.0671C80.2683 33.4037 80.3298 33.5959 80.4013 33.7064C80.4577 33.7938 80.585 33.9351 80.9629 34.0363L80.4022 36.1291ZM77.8447 31.9797C77.8577 31.9675 77.8637 31.9613 77.8693 31.9559C77.8737 31.9514 77.875 31.9501 77.875 31.9503C77.8724 31.9529 77.8724 31.9533 77.878 31.946C77.8975 31.9217 77.9417 31.8606 78.0488 31.6961L79.8653 32.877C79.6226 33.2504 79.5243 33.3701 79.3483 33.5397L77.8447 31.9797ZM80.3978 31.7597C80.2557 32.151 80.1539 32.4331 79.8653 32.877L78.0488 31.6961C78.1983 31.4663 78.2325 31.3747 78.3621 31.0185L80.3978 31.7597ZM68.3239 49.2787C65.9865 49.2787 64.2939 48.6885 63.2296 47.4387C62.1961 46.2258 61.9617 44.6208 61.9617 43.0909H64.1284C64.1284 44.4765 64.3593 45.4242 64.8789 46.0339C65.3677 46.6076 66.3145 47.112 68.3239 47.112V49.2787ZM74.6865 43.0909C74.6865 44.6208 74.4521 46.2258 73.4186 47.4387C72.3543 48.6885 70.6617 49.2787 68.3239 49.2787V47.112C70.3333 47.112 71.2805 46.6076 71.7693 46.0339C72.2885 45.4242 72.5199 44.4765 72.5199 43.0909H74.6865ZM61.9617 43.0909V32.4944H64.1284V43.0909H61.9617ZM72.5199 43.0909V38.6794H74.6865V43.0909H72.5199ZM64.111 28.0854L68.1068 29.4591L67.4022 31.5081L63.4064 30.1343L64.111 28.0854ZM63.4064 30.1343C60.9867 29.3024 58.7828 28.074 57.3601 26.2969C55.8933 24.4644 55.336 22.1431 56.0766 19.3804L58.1692 19.9411C57.5993 22.069 58.0353 23.673 59.0519 24.9429C60.1127 26.2681 61.8815 27.3189 64.111 28.0854L63.4064 30.1343ZM72.5199 38.6794C72.5199 37.1612 72.5186 36.113 72.4263 35.3002C72.337 34.515 72.1727 34.0597 71.9153 33.699L73.679 32.4404C74.2276 33.2092 74.4668 34.0654 74.579 35.0559C74.6882 36.0189 74.6865 37.2108 74.6865 38.6794H72.5199ZM68.1068 29.4591C69.4956 29.9366 70.6231 30.3225 71.498 30.739C72.3985 31.1673 73.1304 31.6716 73.679 32.4404L71.9153 33.699C71.6579 33.3382 71.2809 33.035 70.5672 32.6954C69.8288 32.344 68.8378 32.0016 67.4022 31.5081L68.1068 29.4591Z" fill="#8E000B"/>
<path d="M63.6321 17.3149C62.6933 17.0634 61.7284 17.6205 61.4768 18.5592C61.2253 19.498 61.7824 20.4629 62.7212 20.7145L69.5203 22.5363C70.4591 22.7879 71.4241 22.2308 71.6756 21.292C71.9271 20.3532 71.37 19.3883 70.4313 19.1367L63.6321 17.3149Z" fill="#8E000B"/>
<path d="M64.4999 16.4522C63.5611 16.2007 62.5962 16.7578 62.3446 17.6966C62.0931 18.6353 62.6502 19.6003 63.589 19.8518L70.3881 21.6737C71.3269 21.9252 72.2919 21.3681 72.5434 20.4293C72.7949 19.4905 72.2378 18.5256 71.2991 18.2741L64.4999 16.4522Z" stroke="#8E000B" stroke-width="0.866667" stroke-linecap="round"/>
<path d="M24.3282 46.7403C23.4732 46.6956 22.6737 46.3416 22.0699 45.7597C21.9756 45.6691 21.9285 45.6236 21.7095 45.2864C21.4905 44.9497 21.4225 44.763 21.2864 44.389L20.8851 43.2867C21.3147 44.8899 22.3324 47.4535 19.984 48.0827C15.4779 49.29 10.8461 46.6159 9.63875 42.11L9.45654 41.43C8.24914 36.9239 10.9233 32.2922 15.4294 31.0848C16.5559 30.783 17.7138 31.4515 18.0157 32.578L18.6078 34.7877M18.7444 35.2977C18.4053 34.0322 18.2358 33.3994 18.2649 32.8427C18.3239 31.7177 18.9179 30.6888 19.8628 30.0752C20.3303 29.7716 20.9631 29.6021 22.2286 29.263L32.7673 26.4391C37.4612 25.1814 41.8765 26.4391 43.5436 32.6608C44.8542 37.5515 41.557 40.5116 36.9077 42.11C34.1965 43.0421 32.813 43.6991 31.4332 44.3322C30.0461 44.9688 29.3525 45.2869 29.0096 45.8216C28.6666 46.3563 28.6666 47.0722 28.6666 48.5035C28.6666 48.585 28.6666 48.6669 28.6666 48.7501M87.1666 53.2693C87.1666 56.3334 87.1666 60.9146 87.1666 65.0001C87.1666 73.0445 88.2179 78.0001 83.3589 82.859C79.5512 86.6667 73.423 86.6668 61.1666 86.6668H43.8333C31.5768 86.6668 25.4485 86.6667 21.6409 82.859C17.8333 79.0513 17.8333 77.2565 17.8333 65.0001V58.4949C17.8333 56.4808 17.8333 55.4737 18.1616 54.679C18.6015 53.6143 19.4473 52.7684 20.512 52.3285C21.3068 52.0001 22.3139 52.0001 24.3282 52.0001M87.1666 39.0001C87.1666 46.18 81.3465 52.0001 74.1666 52.0001H39.5M21.1435 26.0001C23.5239 23.3405 26.9831 21.6667 30.8333 21.6667H52.5M24.3333 52.0001H30.1943C32.4139 52.0001 33.5238 52.0001 34.3862 51.6031C35.3251 51.1711 36.0786 50.4176 36.5107 49.4785C36.9077 48.6162 36.9077 47.5064 36.9077 45.2864" stroke="#8E000B" stroke-width="2.16667" stroke-linecap="round" stroke-linejoin="round"/>
</svg>
