<svg width="99" height="98" viewBox="0 0 99 98" fill="none" xmlns="http://www.w3.org/2000/svg">
<path d="M80.125 35.2187C80.1322 29.0534 78.3669 23.0159 75.0393 17.8257C71.7118 12.6354 66.9622 8.51116 61.3567 5.94428C55.7511 3.37741 49.5257 2.47613 43.4223 3.34782C37.3189 4.21952 31.5947 6.82744 26.9318 10.8609C22.2689 14.8943 18.8638 20.1832 17.1222 26.0975C15.3805 32.0117 15.3759 38.3019 17.1087 44.2188C18.8415 50.1356 22.2387 55.4296 26.8957 59.4699C31.5526 63.5103 37.2729 66.1267 43.375 67.0075V85.75C37.973 86.0689 32.8038 88.0596 28.5831 91.4462L28.0625 91.875V94.9375H67.875V91.875L67.3544 91.4156C63.1054 88.083 57.9505 86.1086 52.5625 85.75V67.0075C60.2066 65.8977 67.1967 62.0761 72.2568 56.2401C77.3169 50.404 80.1096 42.943 80.125 35.2187ZM18.875 35.2187C18.875 29.4645 20.5813 23.8396 23.7782 19.0551C26.975 14.2707 31.5188 10.5416 36.835 8.33961C42.1512 6.13757 48.001 5.56142 53.6446 6.68401C59.2883 7.8066 64.4723 10.5775 68.5411 14.6463C72.6099 18.7152 75.3809 23.8992 76.5035 29.5428C77.626 35.1865 77.0499 41.0362 74.8478 46.3524C72.6458 51.6686 68.9168 56.2124 64.1324 59.4093C59.3479 62.6062 53.7229 64.3125 47.9687 64.3125C40.2551 64.3044 32.8597 61.2365 27.4053 55.7822C21.9509 50.3278 18.8831 42.9324 18.875 35.2187ZM33.4219 91.875C36.9236 89.8852 40.8787 88.8305 44.9062 88.8125H51.0312C55.026 88.8583 58.9445 89.9116 62.4237 91.875H33.4219ZM49.5 85.75H46.4375V67.375H47.9687H49.5V85.75Z" fill="#8E000B"/>
<path d="M47.9686 42.875C48.5466 42.869 49.122 42.7971 49.6836 42.6606V42.9669C49.8767 45.2358 50.5975 47.4282 51.7886 49.3691C52.9797 51.3099 54.608 52.9454 56.5436 54.145C57.6811 54.7948 58.9699 55.1329 60.2799 55.125C61.5892 55.1142 62.8821 54.8327 64.0774 54.2981C66.8401 52.9908 69.122 50.8482 70.6005 48.1731C74.0305 42.2319 73.2342 35.5556 68.763 32.8606C66.7492 31.7869 64.5118 31.1999 62.2303 31.1467C59.9488 31.0935 57.6865 31.5756 55.6249 32.5544L55.043 32.7381C54.7167 31.7903 54.2068 30.9162 53.5424 30.1656L53.8486 29.89C55.7372 28.6028 57.2973 26.8903 58.4037 24.8904C59.51 22.8905 60.1316 20.6589 60.2186 18.375C60.2186 13.23 54.8286 9.1875 47.9686 9.1875C41.1086 9.1875 35.7186 13.23 35.7186 18.375C35.7777 20.6377 36.3617 22.8557 37.4246 24.854C38.4876 26.8524 40.0004 28.5764 41.8436 29.89L42.1499 30.1656C41.4639 30.9406 40.9429 31.8472 40.6186 32.83H40.4349C38.3725 31.8656 36.1133 31.3966 33.8376 31.4604C31.5618 31.5242 29.3324 32.1191 27.3274 33.1975C22.8561 35.77 22.0599 42.385 25.4899 48.51C26.9684 51.185 29.2503 53.3277 32.013 54.635C33.2082 55.1696 34.5012 55.4511 35.8105 55.4619C37.1204 55.4698 38.4093 55.1317 39.5467 54.4819C41.5038 53.2737 43.1479 51.6205 44.3453 49.6567C45.5427 47.693 46.2595 45.4743 46.4374 43.1813V42.7219C46.9413 42.8246 47.4543 42.8759 47.9686 42.875ZM43.3749 35.2188C43.3749 34.3102 43.6443 33.422 44.149 32.6666C44.6538 31.9112 45.3713 31.3224 46.2107 30.9747C47.0501 30.627 47.9737 30.536 48.8648 30.7133C49.7559 30.8905 50.5744 31.328 51.2169 31.9705C51.8593 32.6129 52.2968 33.4315 52.4741 34.3226C52.6513 35.2137 52.5604 36.1373 52.2127 36.9767C51.865 37.8161 51.2762 38.5335 50.5208 39.0383C49.7653 39.5431 48.8772 39.8125 47.9686 39.8125C46.7503 39.8125 45.5818 39.3285 44.7203 38.467C43.8588 37.6055 43.3749 36.4371 43.3749 35.2188ZM56.7274 35.4638C58.3704 34.6346 60.1851 34.2027 62.0255 34.2027C63.8659 34.2027 65.6806 34.6346 67.3236 35.4638C70.3861 37.1481 70.5699 42.1094 68.028 46.4888C66.8752 48.6075 65.0863 50.3107 62.9136 51.3581C62.1744 51.737 61.3556 51.9347 60.5249 51.9347C59.6941 51.9347 58.8754 51.737 58.1361 51.3581C56.5781 50.3589 55.2779 49.0061 54.3413 47.4096C53.4047 45.8132 52.8581 44.0182 52.7461 42.1706L52.5624 41.3131C53.4327 40.6692 54.156 39.8472 54.684 38.902C55.2121 37.9568 55.5328 36.91 55.6249 35.8313L56.7274 35.4638ZM38.7811 18.375C38.7811 15.0063 42.9155 12.25 47.9686 12.25C53.0217 12.25 57.1561 15.0063 57.1561 18.375C57.0646 20.2063 56.5462 21.9908 55.6422 23.586C54.7383 25.1812 53.4738 26.543 51.9499 27.5625L51.2149 28.2363C50.2117 27.7532 49.1126 27.5023 47.9992 27.5023C46.8858 27.5023 45.7867 27.7532 44.7836 28.2363L43.9874 27.5625C42.4634 26.543 41.199 25.1812 40.295 23.586C39.391 21.9908 38.8726 20.2063 38.7811 18.375ZM43.5586 42.5688C43.4466 44.4163 42.9 46.2113 41.9635 47.8077C41.0269 49.4042 39.7267 50.7571 38.1686 51.7563C37.4294 52.1352 36.6106 52.3328 35.7799 52.3328C34.9491 52.3328 34.1304 52.1352 33.3911 51.7563C31.2184 50.7088 29.4295 49.0056 28.2767 46.8869C25.7349 42.5075 26.0717 37.6994 28.9811 35.8619C30.6241 35.0327 32.4388 34.6008 34.2792 34.6008C36.1196 34.6008 37.9343 35.0327 39.5774 35.8619L40.3124 35.9538C40.4143 37.09 40.7699 38.1888 41.353 39.1694C41.936 40.1499 42.7316 40.9871 43.6811 41.6194L43.5586 42.5688Z" fill="#8E000B"/>
</svg>
