<svg width="101" height="100" viewBox="0 0 101 100" fill="none" xmlns="http://www.w3.org/2000/svg">
<path d="M85.7942 38.2353V97.0588H82.853V38.2353C82.853 29.6547 79.4444 21.4256 73.377 15.3583C67.3097 9.29094 59.0806 5.88234 50.5 5.88234C41.9195 5.88234 33.6904 9.29094 27.6231 15.3583C21.5557 21.4256 18.1471 29.6547 18.1471 38.2353V97.0588H15.2059V95.5882C16.1645 94.3171 16.683 92.7685 16.683 91.1765C16.683 89.5845 16.1645 88.0358 15.2059 86.7647V38.2353C15.2059 28.8747 18.9244 19.8975 25.5433 13.2786C32.1623 6.65964 41.1395 2.94116 50.5 2.94116C59.8606 2.94116 68.8378 6.65964 75.4568 13.2786C82.0757 19.8975 85.7942 28.8747 85.7942 38.2353Z" fill="#8E000B"/>
<path d="M89.9717 89L90.2246 89.0127C91.4868 89.1085 92.6991 89.6876 93.6436 90.6807L93.6455 90.6826C94.8665 91.9575 95.8002 93.5395 96.3652 95.2998L96.4736 95.6543C96.4939 95.7253 96.5034 95.808 96.499 95.8936C96.497 95.9321 96.4915 95.9678 96.4854 96H83.5V89.125C83.5 89.0772 83.5058 89.0356 83.5117 89H89.9717Z" stroke="#8E000B" stroke-width="2"/>
<path d="M58.136 97.0588H13.7353C14.292 96.64 14.7871 96.145 15.2058 95.5882C16.1644 94.3171 16.6829 92.7684 16.6829 91.1764C16.6829 89.5844 16.1644 88.0358 15.2058 86.7647C14.5209 85.8515 13.6328 85.1103 12.6118 84.5998C11.5908 84.0893 10.465 83.8235 9.32349 83.8235C8.82965 83.824 8.33706 83.8732 7.85291 83.9706V80.8823C7.85291 80.4923 8.00784 80.1183 8.28363 79.8425C8.55942 79.5667 8.93347 79.4117 9.32349 79.4117H31.5183C37.1457 79.4113 42.6651 80.9564 47.4743 83.8783C52.2836 86.8003 56.1979 90.987 58.7904 95.9816C58.8494 96.0939 58.8783 96.2196 58.8744 96.3464C58.8704 96.4732 58.8337 96.5968 58.7679 96.7053C58.702 96.8137 58.6092 96.9033 58.4985 96.9652C58.3877 97.0272 58.2629 97.0594 58.136 97.0588Z" fill="#8E000B"/>
<path d="M15.2059 91.1764C15.2059 92.3398 14.8609 93.4771 14.2145 94.4445C13.5682 95.4118 12.6495 96.1658 11.5746 96.611C10.4997 97.0562 9.31699 97.1727 8.17593 96.9457C7.03486 96.7188 5.98673 96.1585 5.16407 95.3359C4.3414 94.5132 3.78116 93.4651 3.55419 92.324C3.32722 91.1829 3.44371 90.0002 3.88893 88.9253C4.33415 87.8505 5.08811 86.9318 6.05546 86.2854C7.02281 85.6391 8.1601 85.2941 9.32352 85.2941C10.8836 85.2941 12.3798 85.9138 13.483 87.017C14.5861 88.1201 15.2059 89.6163 15.2059 91.1764Z" fill="#8E000B"/>
</svg>
