<svg width="91" height="90" viewBox="0 0 91 90" fill="none" xmlns="http://www.w3.org/2000/svg">
<path d="M87.0385 68.75C87.0385 74.2729 82.5613 78.75 77.0385 78.75H34.7308C29.2079 78.75 24.7308 74.2729 24.7308 68.75V57.5962C24.7308 52.0733 29.2079 47.5962 34.7308 47.5962H77.0385C82.5613 47.5962 87.0385 52.0733 87.0385 57.5962V68.75ZM28.1923 65.2885C28.1923 70.8113 32.6695 75.2885 38.1923 75.2885H73.5769C79.0998 75.2885 83.5769 70.8113 83.5769 65.2885V61.0577C83.5769 55.5349 79.0998 51.0577 73.5769 51.0577H38.1923C32.6695 51.0577 28.1923 55.5349 28.1923 61.0577V65.2885Z" fill="#8E000B"/>
<path d="M71.4615 71.827C66.6901 71.827 62.8077 67.9446 62.8077 63.1731C62.8077 58.4017 66.6901 54.5193 71.4615 54.5193C76.233 54.5193 80.1154 58.4017 80.1154 63.1731C80.1154 67.9446 76.233 71.827 71.4615 71.827ZM71.4615 57.9808C68.5983 57.9808 66.2692 60.3099 66.2692 63.1731C66.2692 66.0363 68.5983 68.3654 71.4615 68.3654C74.3247 68.3654 76.6538 66.0363 76.6538 63.1731C76.6538 60.3099 74.3247 57.9808 71.4615 57.9808Z" fill="#8E000B"/>
<path d="M48.9615 70.0962C45.1442 70.0962 42.0385 66.9904 42.0385 63.1731C42.0385 59.3558 45.1442 56.25 48.9615 56.25C52.7789 56.25 55.8846 59.3558 55.8846 63.1731C55.8846 66.9904 52.7789 70.0962 48.9615 70.0962ZM48.9615 59.7115C47.0524 59.7115 45.5 61.264 45.5 63.1731C45.5 65.0822 47.0524 66.6346 48.9615 66.6346C50.8706 66.6346 52.4231 65.0822 52.4231 63.1731C52.4231 61.264 50.8706 59.7115 48.9615 59.7115Z" fill="#8E000B"/>
<path d="M76.6539 21.6346C76.6539 25.4581 73.5543 28.5577 69.7308 28.5577H62.8077C58.9842 28.5577 55.8846 25.4581 55.8846 21.6346C55.8846 17.8111 58.9842 14.7115 62.8077 14.7115H69.7308C73.5543 14.7115 76.6539 17.8111 76.6539 21.6346ZM59.3462 21.6346C59.3462 23.5464 60.896 25.0962 62.8077 25.0962H69.7308C71.6426 25.0962 73.1923 23.5464 73.1923 21.6346C73.1923 19.7229 71.6426 18.1731 69.7308 18.1731H62.8077C60.896 18.1731 59.3462 19.7229 59.3462 21.6346Z" fill="#8E000B"/>
<path d="M73.1923 11.25H69.7308V16.4423H73.1923V11.25Z" fill="#8E000B"/>
<path d="M62.8077 11.25H59.3462V16.4423H62.8077V11.25Z" fill="#8E000B"/>
<path d="M29.9231 63.1731C29.9231 64.1289 29.1482 64.9038 28.1923 64.9038H16.9423C9.77323 64.9038 3.96155 59.0921 3.96155 51.9231V49.3269C3.96155 40.724 10.9356 33.75 19.5385 33.75H61.0769C62.9887 33.75 64.5385 32.2002 64.5385 30.2884V28.5577C64.5385 27.6018 65.3134 26.8269 66.2692 26.8269C67.2251 26.8269 68 27.6018 68 28.5577V32.0192C68 34.8868 65.6753 37.2115 62.8077 37.2115H19.5385C12.8473 37.2115 7.42309 42.6358 7.42309 49.3269V50.1923C7.42309 56.4055 12.4599 61.4423 18.6731 61.4423H28.1923C29.1482 61.4423 29.9231 62.2172 29.9231 63.1731Z" fill="#8E000B"/>
<path d="M31.6539 66.6346V59.7115C31.6539 58.7556 30.879 57.9807 29.9231 57.9807C28.9672 57.9807 28.1923 58.7556 28.1923 59.7115V66.6346C28.1923 67.5904 28.9672 68.3653 29.9231 68.3653C30.879 68.3653 31.6539 67.5904 31.6539 66.6346Z" fill="#8E000B"/>
</svg>
