<svg width="107" height="106" viewBox="0 0 107 106" fill="none" xmlns="http://www.w3.org/2000/svg">
<g clip-path="url(#clip0_367_685)">
<path d="M101.531 46.375H5.46875C4.15096 46.375 2.88713 46.8985 1.95531 47.8303C1.02349 48.7621 0.5 50.026 0.5 51.3438L0.5 84.4688C0.5 85.7865 1.02349 87.0504 1.95531 87.9822C2.88713 88.914 4.15096 89.4375 5.46875 89.4375H101.531C102.849 89.4375 104.113 88.914 105.045 87.9822C105.977 87.0504 106.5 85.7865 106.5 84.4688V51.3438C106.5 50.026 105.977 48.7621 105.045 47.8303C104.113 46.8985 102.849 46.375 101.531 46.375ZM103.188 84.4688C103.188 84.908 103.013 85.3293 102.702 85.6399C102.392 85.9505 101.971 86.125 101.531 86.125H5.46875C5.02949 86.125 4.60821 85.9505 4.2976 85.6399C3.987 85.3293 3.8125 84.908 3.8125 84.4688V51.3438C3.8125 50.9045 3.987 50.4832 4.2976 50.1726C4.60821 49.862 5.02949 49.6875 5.46875 49.6875H101.531C101.971 49.6875 102.392 49.862 102.702 50.1726C103.013 50.4832 103.188 50.9045 103.188 51.3438V84.4688Z" fill="#8E000B"/>
<path d="M76.6875 72.875H73.375V76.1875H80V66.25H76.6875V72.875Z" fill="#8E000B"/>
<path d="M80 79.5H70.0625V82.8125H80V79.5Z" fill="#8E000B"/>
<path d="M73.375 66.25H13.75V69.5625H73.375V66.25Z" fill="#8E000B"/>
<path d="M10.4375 66.25H7.125V69.5625H10.4375V66.25Z" fill="#8E000B"/>
<path d="M10.4375 53H7.125V56.3125H10.4375V53Z" fill="#8E000B"/>
<path d="M13.75 72.875H7.125V76.1875H13.75V72.875Z" fill="#8E000B"/>
<path d="M17.0625 79.5H7.125V82.8125H17.0625V79.5Z" fill="#8E000B"/>
<path d="M66.75 79.5H20.375V82.8125H66.75V79.5Z" fill="#8E000B"/>
<path d="M70.0625 72.875H17.0625V76.1875H70.0625V72.875Z" fill="#8E000B"/>
<path d="M80 59.625H7.125V62.9375H80V59.625Z" fill="#8E000B"/>
<path d="M99.875 59.625H83.3125V62.9375H99.875V59.625Z" fill="#8E000B"/>
<path d="M80 53H13.75V56.3125H80V53Z" fill="#8E000B"/>
<path d="M99.875 66.25H83.3125V69.5625H99.875V66.25Z" fill="#8E000B"/>
<path d="M93.25 76.1875H89.9375V79.5H86.625V82.8125H96.5625V79.5H93.25V76.1875Z" fill="#8E000B"/>
<path d="M45.2188 39.75H60.125C63.1999 39.75 66.1488 38.5285 68.323 36.3543C70.4973 34.18 71.7188 31.2311 71.7188 28.1562C71.7188 25.0814 70.4973 22.1325 68.323 19.9582C66.1488 17.784 63.1999 16.5625 60.125 16.5625H45.2188C42.1439 16.5625 39.195 17.784 37.0207 19.9582C34.8465 22.1325 33.625 25.0814 33.625 28.1562C33.625 31.2311 34.8465 34.18 37.0207 36.3543C39.195 38.5285 42.1439 39.75 45.2188 39.75ZM68.4062 28.1562C68.4062 29.2438 68.192 30.3206 67.7759 31.3253C67.3597 32.3301 66.7497 33.243 65.9807 34.012C65.2117 34.781 64.2988 35.391 63.2941 35.8071C62.2894 36.2233 61.2125 36.4375 60.125 36.4375H53.5V19.875H60.125C61.2125 19.875 62.2894 20.0892 63.2941 20.5054C64.2988 20.9215 65.2117 21.5315 65.9807 22.3005C66.7497 23.0695 67.3597 23.9824 67.7759 24.9872C68.192 25.9919 68.4062 27.0687 68.4062 28.1562ZM45.2188 19.875H50.1875V36.4375H45.2188C43.0224 36.4375 40.9161 35.565 39.363 34.012C37.81 32.4589 36.9375 30.3526 36.9375 28.1562C36.9375 25.9599 37.81 23.8536 39.363 22.3005C40.9161 20.7475 43.0224 19.875 45.2188 19.875Z" fill="#8E000B"/>
<path d="M46.875 26.5H40.25V29.8125H46.875V26.5Z" fill="#8E000B"/>
</g>
<defs>
<clipPath id="clip0_367_685">
<rect width="106" height="106" fill="white" transform="translate(0.5)"/>
</clipPath>
</defs>
</svg>
