<svg width="125" height="124" viewBox="0 0 125 124" fill="none" xmlns="http://www.w3.org/2000/svg">
<g clip-path="url(#clip0_369_838)">
<path d="M70.296 19.7437H33.0429C28.2623 19.7437 24.2934 24.165 24.2934 29.6146V97.6827C24.2934 103.132 28.1721 107.554 33.0429 107.554H70.296C75.0766 107.554 79.0455 103.132 79.0455 97.6827V29.6146C79.0455 24.165 75.1669 19.7437 70.296 19.7437ZM76.3395 97.6827C76.3395 101.487 73.6334 104.469 70.296 104.469H33.0429C29.7055 104.469 26.9995 101.384 26.9995 97.6827V29.6146C26.9995 25.8101 29.7055 22.8283 33.0429 22.8283H70.296C73.6334 22.8283 76.3395 25.913 76.3395 29.6146V97.6827Z" fill="#8E000B"/>
<path d="M60.4206 25.9419H42.9183C42.3514 25.9419 41.8554 26.665 41.8554 27.4915C41.8554 28.3179 42.3514 29.0411 42.9183 29.0411H60.4206C60.9875 29.0411 61.4835 28.3179 61.4835 27.4915C61.4835 26.665 60.9875 25.9419 60.4206 25.9419Z" fill="#8E000B"/>
<path d="M90.0652 113.809H107.282C108.804 113.809 110.264 113.205 111.341 112.128C112.417 111.052 113.021 109.592 113.021 108.07V82.2437C113.021 80.7217 112.417 79.2623 111.341 78.186C110.264 77.1097 108.804 76.5044 107.282 76.5044H90.0652C88.543 76.5044 87.0829 77.1097 86.0066 78.186C84.9304 79.2623 84.3259 80.7217 84.3259 82.2437V108.07C84.3259 109.592 84.9303 111.052 86.0066 112.128C87.0829 113.205 88.543 113.809 90.0652 113.809ZM102.284 108.344C101.639 108.732 100.868 108.851 100.136 108.675C99.4052 108.5 98.7717 108.044 98.3728 107.407L98.3659 107.396L91.9099 96.6353C91.6483 96.1999 91.5064 95.7026 91.4997 95.1948C91.4931 94.6871 91.6219 94.1866 91.8718 93.7446C92.1219 93.3025 92.4848 92.9342 92.9236 92.6782C93.3622 92.4223 93.861 92.2877 94.3689 92.2876H97.9109L94.0691 85.8853C93.8669 85.5622 93.7311 85.2018 93.6696 84.8257C93.6082 84.4495 93.6218 84.0645 93.7107 83.6938C93.7995 83.3231 93.9619 82.974 94.1872 82.6665C94.4126 82.3591 94.6965 82.0992 95.0232 81.9028C95.3498 81.7065 95.7124 81.5776 96.0896 81.5229C96.4668 81.4683 96.8514 81.489 97.2204 81.5845C97.5895 81.68 97.9356 81.8487 98.239 82.0796C98.5391 82.308 98.7905 82.5936 98.9802 82.9194L98.9812 82.9185L105.437 93.6792C105.699 94.1146 105.841 94.6118 105.847 95.1196C105.854 95.6274 105.725 96.1278 105.475 96.5698C105.225 97.0118 104.862 97.3793 104.424 97.6353C103.985 97.8912 103.486 98.0267 102.978 98.0269H99.4372L103.285 104.441H103.286L103.292 104.452C103.667 105.103 103.772 105.876 103.584 106.604C103.395 107.332 102.928 107.957 102.284 108.344Z" stroke="#8E000B" stroke-width="1.4348"/>
<path d="M97.0771 9.76318C98.6784 8.06174 101.084 7.55079 103.203 8.24854L99.372 12.0815L98.9824 12.4712L102.847 16.3354L107.066 12.1157C107.658 14.2454 107.14 16.6552 105.543 18.2524L105.538 18.2573L105.532 18.2622C103.719 20.1761 100.999 20.5827 98.7773 19.5728L98.4081 19.4048L98.1376 19.7075L88.3359 30.7212C87.327 31.8216 85.7055 31.9052 84.6142 30.814L84.6054 30.8052L84.5966 30.7974C83.539 29.8278 83.5951 28.1099 84.706 27.0913L95.7206 17.2905L96.0234 17.02L95.8554 16.6509C94.8432 14.4241 95.2534 11.5871 97.0654 9.7749L97.0771 9.76318ZM99.4228 23.2007C99.9944 23.2935 100.606 23.3794 101.305 23.3794H101.975L106.115 27.0962C107.212 28.1054 107.294 29.724 106.204 30.814L106.195 30.8228L106.187 30.8315C105.219 31.8873 103.506 31.8325 102.487 30.7271L97.6308 25.2505L99.4228 23.2007ZM88.1913 10.688V12.1479L92.0859 16.0425L91.2919 16.7759L87.4277 12.9116H85.9697L84.0361 9.69092L84.9706 8.75635L88.1913 10.688Z" stroke="#8E000B" stroke-width="1.10193"/>
<path d="M9.80914 74.878V70.6425H13.8277V68.752H9.80914V64.4958H7.74302V68.752H3.74509V70.6425H7.74302V74.878H9.80914Z" fill="#8E000B"/>
<path d="M5.16035 63.256V59.0204H9.17894V57.1299H5.16035V52.8737H3.09423V57.1299H-0.903699V59.0204H3.09423V63.256H5.16035Z" fill="#8E000B"/>
<path d="M14.4579 56.2828V52.0473H18.4765V50.1568H14.4579V45.9006H12.3918V50.1568H8.39386V52.0473H12.3918V56.2828H14.4579Z" fill="#8E000B"/>
</g>
<defs>
<clipPath id="clip0_369_838">
<rect width="124" height="124" fill="white" transform="translate(0.5)"/>
</clipPath>
</defs>
</svg>
