<svg width="101" height="101" viewBox="0 0 101 101" fill="none" xmlns="http://www.w3.org/2000/svg">
<path d="M68.5305 7H32.4695C27.8418 7 24 11.2799 24 16.555V82.445C24 87.7201 27.7545 92 32.4695 92H68.5305C73.1582 92 77 87.7201 77 82.445V16.555C77 11.2799 73.2455 7 68.5305 7ZM74.3806 82.445C74.3806 86.1276 71.7611 89.0141 68.5305 89.0141H32.4695C29.2389 89.0141 26.6194 86.0281 26.6194 82.445V16.555C26.6194 12.8724 29.2389 9.98595 32.4695 9.98595H68.5305C71.7611 9.98595 74.3806 12.9719 74.3806 16.555V82.445Z" fill="#8E000B"/>
<path d="M58.9711 13H42.0289C41.4801 13 41 13.7 41 14.5C41 15.3 41.4801 16 42.0289 16H58.9711C59.5199 16 60 15.3 60 14.5C60 13.7 59.5199 13 58.9711 13Z" fill="#8E000B"/>
<path d="M50.3 73.8C47.5 73.8 45.3 76.1 45.3 78.8C45.3 80.1 45.8 81.4 46.8 82.3C47.7 83.2 49 83.7001 50.3 83.7001C53.1 83.7001 55.3 81.4001 55.3 78.7001C55.3 76.0001 53.1 73.8 50.3 73.8ZM50.4001 80.8C49.9001 80.8 49.4 80.6001 49 80.2001C48.6 79.8001 48.4001 79.3 48.4001 78.8C48.4001 77.7 49.3001 76.8 50.4001 76.8C51.5001 76.8 52.4001 77.7 52.4001 78.8C52.4001 79.9 51.5001 80.8 50.4001 80.8Z" fill="#8E000B"/>
</svg>
