<svg width="125" height="124" viewBox="0 0 125 124" fill="none" xmlns="http://www.w3.org/2000/svg">
<path d="M89.0461 93.9601C88.3268 93.9967 87.6544 94.2871 87.1464 94.7641C87.067 94.8389 87.0276 94.8761 86.8432 95.1523C86.6591 95.4286 86.6019 95.5818 86.4873 95.8883L86.1498 96.7923C86.511 95.4776 87.3672 93.3753 85.3919 92.8593C81.6013 91.869 77.7052 94.0619 76.6897 97.7574L76.5364 98.3147C75.5206 102.01 77.77 105.808 81.5607 106.798C82.5081 107.046 83.4821 106.498 83.7361 105.574L84.2341 103.762M84.3492 103.344C84.0638 104.382 83.9211 104.9 83.9457 105.357C83.9955 106.279 84.4952 107.123 85.2898 107.626C85.6833 107.875 86.2153 108.014 87.2799 108.293L93.6964 109.969C96.2777 110.643 97.5684 110.98 98.1887 111.075C98.809 111.17 98.4573 111.153 98.598 111.16C101.096 111.281 104.347 110.336 105.21 106.527C106.959 99.3111 100.228 100.754 100.228 96.4249V86.292C100.228 83.9011 100.228 81.9319 95.7874 81.9627C91.3466 81.9939 91.3466 83.9011 91.3466 86.292V96.4249" stroke="#8E000B" stroke-width="2.95833" stroke-linecap="round" stroke-linejoin="round"/>
<path d="M35.9539 93.9601C36.6732 93.9967 37.3456 94.2871 37.8536 94.7641C37.933 94.8389 37.9724 94.8761 38.1568 95.1523C38.3409 95.4286 38.3981 95.5818 38.5127 95.8883L38.8502 96.7923C38.489 95.4776 37.6328 93.3753 39.6081 92.8593C43.3987 91.869 47.2948 94.0619 48.3103 97.7574L48.4636 98.3147C49.4794 102.01 47.23 105.808 43.4393 106.798C42.4919 107.046 41.5179 106.498 41.2639 105.574L40.7659 103.762M40.6508 103.344C40.9362 104.382 41.0789 104.9 41.0543 105.357C41.0045 106.279 40.5048 107.123 39.7102 107.626C39.3167 107.875 38.7847 108.014 37.7201 108.293L31.3036 109.969C28.7223 110.643 27.4316 110.98 26.8113 111.075C26.191 111.17 26.5427 111.153 26.402 111.16C23.9037 111.281 20.6525 110.336 19.7903 106.527C18.0405 99.3111 24.7717 100.754 24.7717 96.4249V86.292C24.7717 83.9011 24.7717 81.9319 29.2126 81.9627C33.6534 81.9939 33.6534 83.9011 33.6534 86.292V96.4249" stroke="#8E000B" stroke-width="2.95833" stroke-linecap="round" stroke-linejoin="round"/>
<path d="M96.3422 81.9623V56.4057C97.7862 43.1541 93.2016 16.4075 63.3113 15.434" stroke="#8E000B" stroke-width="3"/>
<path d="M96.3422 79.5283V53.9717C97.7862 40.7201 93.2016 13.9736 63.3113 13" stroke="#8E000B" stroke-width="3"/>
<path d="M30.2804 81.9623V56.4057C28.8364 43.1541 33.4211 16.4075 63.3113 15.434" stroke="#8E000B" stroke-width="3"/>
<path d="M30.2804 79.5283V53.9717C28.8364 40.7201 33.4211 13.9736 63.3113 13" stroke="#8E000B" stroke-width="3"/>
</svg>
