<svg width="93" height="92" viewBox="0 0 93 92" fill="none" xmlns="http://www.w3.org/2000/svg">
<path d="M42.358 78.5418C41.9685 79.2342 42.2143 80.1111 42.9068 80.5003C43.5989 80.8892 44.4752 80.6436 44.8644 79.9517L56.4724 59.3156C57.3242 57.8012 55.9727 55.9957 54.2796 56.3863L46.001 58.2962C44.1839 58.7154 42.8325 56.6392 43.9514 55.1473L54.6937 40.8249C55.1701 40.1898 55.0414 39.2888 54.4062 38.8124C53.7711 38.3361 52.8701 38.4648 52.3938 39.1L36.9309 59.7179C35.812 61.2098 37.1636 63.2861 38.9808 62.8666L48.5809 60.6506C50.274 60.2598 51.6258 62.0654 50.7739 63.5799L42.358 78.5418Z" fill="#8E000B"/>
<path d="M70.9375 40.25C70.9375 37.8683 69.0067 35.9375 66.625 35.9375C64.2433 35.9375 62.3125 37.8683 62.3125 40.25C62.3125 42.6317 64.2433 44.5625 66.625 44.5625C69.0067 44.5625 70.9375 42.6317 70.9375 40.25ZM68.0625 40.25C68.0625 41.0439 67.4189 41.6875 66.625 41.6875C65.8311 41.6875 65.1875 41.0439 65.1875 40.25C65.1875 39.4561 65.8311 38.8125 66.625 38.8125C67.4189 38.8125 68.0625 39.4561 68.0625 40.25Z" fill="#8E000B"/>
<path d="M70.9375 53.1875C70.9375 50.8058 69.0067 48.875 66.625 48.875C64.2433 48.875 62.3125 50.8058 62.3125 53.1875C62.3125 55.5692 64.2433 57.5 66.625 57.5C69.0067 57.5 70.9375 55.5692 70.9375 53.1875ZM68.0625 53.1875C68.0625 53.9814 67.4189 54.625 66.625 54.625C65.8311 54.625 65.1875 53.9814 65.1875 53.1875C65.1875 52.3936 65.8311 51.75 66.625 51.75C67.4189 51.75 68.0625 52.3936 68.0625 53.1875Z" fill="#8E000B"/>
<path d="M70.9375 66.125C70.9375 63.7433 69.0067 61.8125 66.625 61.8125C64.2433 61.8125 62.3125 63.7433 62.3125 66.125C62.3125 68.5067 64.2433 70.4375 66.625 70.4375C69.0067 70.4375 70.9375 68.5067 70.9375 66.125ZM68.0625 66.125C68.0625 66.9189 67.4189 67.5625 66.625 67.5625C65.8311 67.5625 65.1875 66.9189 65.1875 66.125C65.1875 65.3311 65.8311 64.6875 66.625 64.6875C67.4189 64.6875 68.0625 65.3311 68.0625 66.125Z" fill="#8E000B"/>
<path d="M76.3454 4.3125H59.7796C54.8346 4.3125 50.8125 8.786 50.8125 14.2859V17.0081C50.8125 18.1126 49.9171 19.0081 48.8125 19.0081H47.0625C45.9579 19.0081 45.0625 19.9035 45.0625 21.0081V25.3125C45.0625 26.4171 44.1671 27.3125 43.0625 27.3125H24.9375C20.1808 27.3125 16.3125 31.1808 16.3125 35.9375V79.0625C16.3125 83.8192 20.1808 87.6875 24.9375 87.6875H68.0625C72.8192 87.6875 76.6875 83.8192 76.6875 79.0625V35.9375C76.6875 31.1808 72.8192 27.3125 68.0625 27.3125H62.875C61.7704 27.3125 60.875 26.4171 60.875 25.3125V21.0066C60.875 19.9021 59.9796 19.0066 58.875 19.0066H55.6875C54.5829 19.0066 53.6875 18.1112 53.6875 17.0066V14.2859C53.6875 10.3716 56.4202 7.1875 59.7796 7.1875H76.3439C79.7048 7.1875 82.4375 10.3716 82.4375 14.2859V46.25C82.4375 47.0439 83.0811 47.6875 83.875 47.6875C84.6689 47.6875 85.3125 47.0439 85.3125 46.25V14.2859C85.3125 8.786 81.2904 4.3125 76.3454 4.3125ZM73.8125 35.9375V79.0625C73.8125 82.2336 71.2336 84.8125 68.0625 84.8125H24.9375C21.7664 84.8125 19.1875 82.2336 19.1875 79.0625V35.9375C19.1875 32.7664 21.7664 30.1875 24.9375 30.1875H68.0625C71.2336 30.1875 73.8125 32.7664 73.8125 35.9375ZM58 25.3125C58 26.4171 57.1046 27.3125 56 27.3125H49.9375C48.8329 27.3125 47.9375 26.4171 47.9375 25.3125V23.8816C47.9375 22.7771 48.8329 21.8816 49.9375 21.8816H56C57.1046 21.8816 58 22.7771 58 23.8816V25.3125Z" fill="#8E000B"/>
</svg>
