<svg width="125" height="124" viewBox="0 0 125 124" fill="none" xmlns="http://www.w3.org/2000/svg">
<path d="M41.9776 74.1452C42.1165 76.0712 42.9795 77.8732 44.3931 79.1888C45.8066 80.5043 47.6659 81.2357 49.597 81.236H72.5503C74.4813 81.2357 76.3406 80.5043 77.7541 79.1888C79.1677 77.8733 80.0307 76.0713 80.1695 74.1453H100.556C102.171 74.1434 103.72 73.5009 104.862 72.3586C106.005 71.2163 106.647 69.6675 106.649 68.052V56.1839C106.647 54.5685 106.005 53.0198 104.862 51.8775C103.72 50.7352 102.171 50.0926 100.556 50.0908H80.1696C80.0308 48.1647 79.1678 46.3627 77.7542 45.0472C76.3406 43.7317 74.4813 43.0002 72.5503 43H49.597C47.6659 43.0002 45.8066 43.7317 44.393 45.0472C42.9795 46.3627 42.1164 48.1647 41.9776 50.0908H23.5932C21.9777 50.0926 20.4289 50.7351 19.2866 51.8774C18.1443 53.0197 17.5018 54.5685 17.5 56.1839V68.052C17.5018 69.6675 18.1443 71.2163 19.2866 72.3586C20.4289 73.5009 21.9777 74.1434 23.5932 74.1452H41.9776ZM102.773 56.1839V68.052C102.773 68.6399 102.539 69.2035 102.123 69.6193C101.708 70.035 101.144 70.2689 100.556 70.2696H80.1917V53.9664H100.556C101.144 53.9671 101.708 54.201 102.123 54.6167C102.539 55.0325 102.773 55.5961 102.773 56.1839ZM46.2692 50.0456C46.27 49.3212 46.5581 48.6267 47.0703 48.1145C47.5824 47.6023 48.2769 47.3141 49.0012 47.3133H73.1463C73.8707 47.3141 74.5651 47.6023 75.0773 48.1145C75.5894 48.6267 75.8775 49.3212 75.8783 50.0456V74.1903C75.8775 74.9147 75.5894 75.6091 75.0772 76.1213C74.565 76.6335 73.8706 76.9216 73.1463 76.9225H49.0012C48.2769 76.9216 47.5825 76.6335 47.0703 76.1213C46.5581 75.6091 46.2701 74.9147 46.2692 74.1903V50.0456ZM21.3756 68.052V56.1839C21.3763 55.596 21.6101 55.0323 22.0258 54.6166C22.4416 54.2009 23.0052 53.967 23.5932 53.9664H41.9555V70.2696H23.5932C23.0052 70.2689 22.4416 70.0351 22.0258 69.6194C21.6101 69.2036 21.3763 68.64 21.3756 68.052Z" fill="#8E000B"/>
<path d="M51.2809 63.8984H55.8848C56.3972 63.8986 56.8986 63.7488 57.327 63.4675C57.7554 63.1862 58.0921 62.7858 58.2957 62.3155L59.4586 59.632L61.8162 67.9012C61.9619 68.4293 62.271 68.8977 62.6991 69.2395C63.1272 69.5813 63.6525 69.779 64.1997 69.8041C64.2505 69.807 64.301 69.8082 64.3511 69.8082C64.8732 69.8113 65.384 69.6568 65.8167 69.3649C66.2495 69.0729 66.584 68.6571 66.7766 68.1719L68.7308 63.3766H71.3641C71.7924 63.3766 72.2031 63.2065 72.506 62.9036C72.8088 62.6008 72.9789 62.19 72.9789 61.7618C72.9789 61.3335 72.8088 60.9227 72.506 60.6199C72.2031 60.3171 71.7924 60.1469 71.3641 60.1469H68.3258C67.8033 60.1457 67.2924 60.3008 66.8588 60.5923C66.4252 60.8839 66.0888 61.2985 65.8928 61.7829L64.4438 65.338L62.1025 57.1268C61.9539 56.6057 61.6479 56.1433 61.2264 55.803C60.8048 55.4626 60.2884 55.2609 59.7477 55.2254C59.2071 55.1899 58.6687 55.3224 58.2063 55.6048C57.7439 55.8871 57.38 56.3055 57.1646 56.8027L55.4892 60.6687H51.281C50.8527 60.6687 50.442 60.8389 50.1391 61.1417C49.8363 61.4446 49.6661 61.8553 49.6661 62.2836C49.6661 62.7119 49.8363 63.1226 50.1391 63.4254C50.442 63.7283 50.8526 63.8984 51.2809 63.8984Z" fill="#8E000B"/>
<path d="M95.4538 64.4895C95.9228 64.4895 96.3813 64.3504 96.7713 64.0898C97.1612 63.8292 97.4652 63.4588 97.6446 63.0255C97.8241 62.5922 97.871 62.1154 97.7795 61.6554C97.688 61.1954 97.4622 60.7729 97.1305 60.4412C96.7989 60.1096 96.3763 59.8838 95.9163 59.7923C95.4563 59.7008 94.9795 59.7477 94.5462 59.9272C94.1129 60.1067 93.7425 60.4107 93.482 60.8006C93.2214 61.1906 93.0823 61.6491 93.0823 62.1181C93.0823 62.4295 93.1437 62.7379 93.2628 63.0256C93.382 63.3133 93.5567 63.5748 93.7769 63.795C93.9971 64.0152 94.2586 64.1899 94.5463 64.309C94.834 64.4282 95.1424 64.4895 95.4538 64.4895Z" fill="#8E000B"/>
<path d="M87.5703 64.4894C88.88 64.4894 89.9417 63.4277 89.9417 62.1181C89.9417 60.8084 88.88 59.7467 87.5703 59.7467C86.2607 59.7467 85.199 60.8084 85.199 62.1181C85.199 63.4277 86.2607 64.4894 87.5703 64.4894Z" fill="#8E000B"/>
</svg>
