<svg width="125" height="124" viewBox="0 0 125 124" fill="none" xmlns="http://www.w3.org/2000/svg">
<path d="M36.0654 28.3163L36.083 28.3173H48.2891C49.076 28.2989 49.8384 28.5916 50.4102 29.1327C50.9788 29.6709 51.3127 30.4111 51.3408 31.1932V48.1962L49.5771 72.3505L49.5762 72.3719L49.5752 72.3925C49.5532 73.2889 49.1812 74.1417 48.5381 74.7665C47.895 75.3912 47.0323 75.7381 46.1357 75.7343H42.7764C41.8631 75.7343 40.9866 75.3722 40.3408 74.7264C39.7007 74.0863 39.3384 73.2199 39.332 72.3153L40.9199 50.0487L40.9873 49.1034H33.4209C32.133 49.1478 30.8798 48.6806 29.9355 47.8036C29.0503 46.9813 28.5039 45.8618 28.3975 44.6639L28.3828 44.4237V35.3553C28.4763 33.4086 29.3344 31.5769 30.7705 30.2587C32.2099 28.9376 34.1132 28.2393 36.0654 28.3163ZM36.1133 30.0829C34.6498 29.9974 33.2097 30.4833 32.0977 31.4403C30.974 32.4074 30.2754 33.7774 30.1523 35.2548L30.1494 35.2919V44.5057L30.1543 44.5526C30.2414 45.3649 30.6432 46.1109 31.2734 46.6307C31.8844 47.1345 32.6626 47.3837 33.4512 47.3358V47.3368H41.9785C42.0995 47.3372 42.2193 47.3625 42.3301 47.411C42.441 47.4596 42.5407 47.5312 42.623 47.62L42.6279 47.6249C42.7107 47.7128 42.7744 47.8169 42.8154 47.9305C42.8564 48.0445 42.874 48.1662 42.8662 48.287L41.1006 72.3505L41.0938 72.4423L41.1064 72.535C41.1623 72.9412 41.3665 73.3124 41.6797 73.577H41.6807C41.987 73.8357 42.376 73.9737 42.7764 73.9677V73.9686H46.1318C46.5765 73.9685 47.0028 73.7918 47.3174 73.4774C47.6168 73.178 47.7905 72.7769 47.8066 72.3553L49.5732 48.161L49.5752 48.1288V31.1776C49.5751 30.9928 49.5192 30.8514 49.4854 30.7792C49.4462 30.6958 49.3997 30.6274 49.3584 30.5751C49.2752 30.4698 49.1751 30.3831 49.0703 30.3143C48.854 30.1724 48.5796 30.0829 48.2686 30.0829H36.1133Z" fill="black" stroke="#8E000B" stroke-width="1.76602"/>
<path d="M32.3096 29.8945C32.4229 29.9324 32.6687 30.1083 32.8691 30.6016L32.875 30.6133C33.5982 32.3173 34.3918 35.2609 34.5771 38.4697C34.7629 41.6861 34.3307 45.0532 32.7246 47.6963L32.7227 47.6992C32.6126 47.8817 32.5022 47.9919 32.415 48.0518C32.3322 48.1085 32.2762 48.1172 32.2461 48.1172C32.216 48.1171 32.1607 48.1083 32.0781 48.0518C31.9909 47.992 31.8797 47.882 31.7695 47.6992L31.7666 47.6934L31.6865 47.5498C31.6095 47.3964 31.5414 47.2148 31.4893 47.0088C31.4199 46.7349 31.3828 46.4337 31.3828 46.126C31.3828 45.8183 31.42 45.5179 31.4893 45.2441C31.5414 45.0381 31.6095 44.8566 31.6865 44.7031L31.7666 44.5586C33.164 42.2754 33.0642 39.331 32.6982 37.1113C32.5112 35.9772 32.2453 34.9768 32.0264 34.2607C31.9166 33.9019 31.8179 33.6118 31.7461 33.4102C31.7103 33.3095 31.6809 33.2306 31.6602 33.1758C31.6498 33.1484 31.6416 33.1264 31.6357 33.1113C31.6329 33.104 31.6306 33.098 31.6289 33.0938C31.6281 33.0918 31.6275 33.0902 31.627 33.0889L31.626 33.0869V33.0859L31.625 33.084C31.4342 32.6053 31.357 31.9891 31.4316 31.3838C31.4979 30.8467 31.6691 30.4271 31.8613 30.165L31.9453 30.0625C32.1444 29.8504 32.2616 29.8786 32.3096 29.8945Z" fill="#8E000B" stroke="#8E000B" stroke-width="1.76602"/>
<path d="M75.8737 52.8496L75.8708 52.8174L74.1071 28.9141V11.7939C74.1285 11.0096 74.458 10.265 75.0241 9.72168C75.5903 9.1784 76.3479 8.87958 77.1325 8.89062H89.3317L89.3513 8.88965C90.3232 8.84733 91.2937 8.99782 92.2077 9.33105C93.1216 9.66427 93.9609 10.1742 94.6774 10.832C95.394 11.49 95.9746 12.2827 96.3845 13.165C96.792 14.0425 97.0227 14.9916 97.0651 15.958V25.0449C97.007 26.3245 96.4477 27.5299 95.5075 28.4004C94.5638 29.274 93.3133 29.7398 92.028 29.6953L92.0124 29.6943H84.4616L84.529 30.6406L86.1159 52.793C86.123 53.2478 86.0416 53.6997 85.8747 54.123C85.7058 54.5515 85.4535 54.9423 85.1325 55.2725C84.8115 55.6026 84.428 55.866 84.0046 56.0469C83.5812 56.2277 83.1261 56.3225 82.6657 56.3262H79.3171C78.4037 56.3262 77.5274 55.9632 76.8815 55.3174C76.236 54.6717 75.8738 53.7959 75.8737 52.8828V52.8496ZM95.2995 15.9053L95.2975 15.874C95.2445 15.1335 95.0458 14.4104 94.7126 13.7471C94.3793 13.0837 93.9175 12.4933 93.3552 12.0088C92.7927 11.5242 92.1397 11.1553 91.4343 10.9238C90.7407 10.6963 90.0098 10.6059 89.2819 10.6572H77.1452C76.9077 10.657 76.674 10.72 76.4694 10.8408C76.2644 10.962 76.0964 11.1368 75.9821 11.3457L75.8737 11.5439V28.8447L75.8757 28.877L77.655 52.7705C77.646 52.9692 77.6707 53.1681 77.7302 53.3584C77.8003 53.5828 77.9162 53.791 78.07 53.9688C78.2239 54.1465 78.4128 54.291 78.6247 54.3926C78.8366 54.4942 79.0675 54.5509 79.3024 54.5596L79.3181 54.5605H82.6901C83.1351 54.5605 83.562 54.383 83.8766 54.0684C84.191 53.7538 84.3678 53.3275 84.3679 52.8828V52.8496L84.3659 52.8174L82.5993 28.8877L82.5983 28.8789C82.5882 28.7573 82.6038 28.635 82.6432 28.5195C82.6729 28.4329 82.7158 28.3515 82.7702 28.2783L82.8288 28.208C82.9105 28.1208 83.0093 28.0509 83.1188 28.0029C83.2019 27.9666 83.2898 27.9431 83.3796 27.9336L83.4704 27.9287L91.9968 27.9277C92.7826 27.9803 93.5603 27.7361 94.1716 27.2363C94.8039 26.7193 95.2074 25.9742 95.2946 25.1621L95.2995 25.1152V15.9053Z" fill="black" stroke="#8E000B" stroke-width="1.76602"/>
<path d="M92.9902 10.8945C93.0459 10.9118 93.133 10.9571 93.2363 11.0654C93.3403 11.1744 93.4487 11.3351 93.541 11.5518C93.6329 11.7674 93.7018 12.0218 93.7373 12.2998C93.7727 12.5773 93.7729 12.8647 93.7383 13.1426C93.7036 13.4208 93.6363 13.6759 93.5449 13.8926C93.3919 14.2369 92.7659 15.8464 92.4355 17.8467C92.1003 19.8768 92.0321 22.5244 93.3008 24.6523L93.4277 24.8574C93.6408 25.2007 93.7871 25.7153 93.7871 26.2939C93.7871 26.8754 93.6396 27.3921 93.4248 27.7354C93.3189 27.901 93.2123 28.0004 93.1279 28.0547C93.0476 28.1064 92.9894 28.1166 92.9521 28.1162H92.9307L92.9092 28.1172C92.8718 28.1187 92.8155 28.1104 92.7373 28.0625C92.6754 28.0245 92.6003 27.9612 92.5215 27.8633L92.4414 27.7529C90.8188 25.1995 90.4019 22.0243 90.5977 18.999C90.7933 15.9763 91.5949 13.2052 92.292 11.5625L92.293 11.5596C92.3847 11.342 92.4925 11.1797 92.5967 11.0693C92.7003 10.9596 92.7883 10.9135 92.8447 10.8955C92.8955 10.8794 92.9401 10.8791 92.9902 10.8945Z" fill="#8E000B" stroke="#8E000B" stroke-width="1.76602"/>
<path d="M81.5 56.6207V75.2281C81.5 79.2816 78.0962 82.5037 74.0488 82.2816L71.8566 82.1613C67.8091 81.9391 64.4053 85.1612 64.4053 89.2147V93.3156M64.4053 122V93.3156M44.5 75.1087V82.5257C44.5 85.7169 46.6396 88.5119 49.7202 89.3449L64.4053 93.3156" stroke="#8E000B" stroke-width="3"/>
</svg>
