<svg width="85" height="84" viewBox="0 0 85 84" fill="none" xmlns="http://www.w3.org/2000/svg">
<path d="M42.5 77C37.8587 77 33.4075 75.1563 30.1256 71.8744C26.8437 68.5925 25 64.1413 25 59.5V31.5C25 30.5717 25.3687 29.6815 26.0251 29.0251C26.6815 28.3687 27.5717 28 28.5 28C29.4283 28 30.3185 28.3687 30.9749 29.0251C31.6313 29.6815 32 30.5717 32 31.5V59.5C32 62.2848 33.1062 64.9555 35.0754 66.9246C37.0445 68.8938 39.7152 70 42.5 70C45.2848 70 47.9555 68.8938 49.9246 66.9246C51.8938 64.9555 53 62.2848 53 59.5V35C53 34.0717 53.3687 33.1815 54.0251 32.5251C54.6815 31.8687 55.5717 31.5 56.5 31.5C57.4283 31.5 58.3185 31.8687 58.9749 32.5251C59.6313 33.1815 60 34.0717 60 35V59.5C60 64.1413 58.1563 68.5925 54.8744 71.8744C51.5925 75.1563 47.1413 77 42.5 77Z" fill="#8E000B"/>
<path d="M56.5 24.5H28.5C27.5717 24.5 26.6815 24.1313 26.0251 23.4749C25.3687 22.8185 25 21.9283 25 21V10.5C25 9.57174 25.3687 8.6815 26.0251 8.02513C26.6815 7.36875 27.5717 7 28.5 7C29.4283 7 30.3185 7.36875 30.9749 8.02513C31.6313 8.6815 32 9.57174 32 10.5V17.5H53V10.5C53 9.57174 53.3687 8.6815 54.0251 8.02513C54.6815 7.36875 55.5717 7 56.5 7C57.4283 7 58.3185 7.36875 58.9749 8.02513C59.6313 8.6815 60 9.57174 60 10.5V21C60 21.9283 59.6313 22.8185 58.9749 23.4749C58.3185 24.1313 57.4283 24.5 56.5 24.5Z" fill="#8E000B"/>
<path d="M42.5 21C41.5717 21 40.6815 20.6313 40.0251 19.9749C39.3687 19.3185 39 18.4283 39 17.5V10.5C39 9.57174 39.3687 8.6815 40.0251 8.02513C40.6815 7.36875 41.5717 7 42.5 7C43.4283 7 44.3185 7.36875 44.9749 8.02513C45.6313 8.6815 46 9.57174 46 10.5V17.5C46 18.4283 45.6313 19.3185 44.9749 19.9749C44.3185 20.6313 43.4283 21 42.5 21Z" fill="#8E000B"/>
<path d="M42.5 52.5C41.5717 52.5 40.6815 52.1313 40.0251 51.4749C39.3687 50.8185 39 49.9283 39 49C39.0055 48.5427 39.1007 48.0908 39.28 47.67C39.4466 47.2404 39.6964 46.8479 40.015 46.515C40.3404 46.187 40.7275 45.9266 41.154 45.7489C41.5805 45.5712 42.038 45.4797 42.5 45.4797C42.962 45.4797 43.4195 45.5712 43.846 45.7489C44.2725 45.9266 44.6596 46.187 44.985 46.515C45.2942 46.8552 45.5428 47.2459 45.72 47.67C45.8993 48.0908 45.9945 48.5427 46 49C46 49.9283 45.6313 50.8185 44.9749 51.4749C44.3185 52.1313 43.4283 52.5 42.5 52.5Z" fill="#8E000B"/>
</svg>
