<svg width="101" height="100" viewBox="0 0 101 100" fill="none" xmlns="http://www.w3.org/2000/svg">
<path d="M97.375 71.875H91.125V56.25C91.125 45.4756 86.8449 35.1425 79.2262 27.5238C71.6076 19.9051 61.2744 15.625 50.5 15.625C39.7256 15.625 29.3925 19.9051 21.7738 27.5238C14.1551 35.1425 9.875 45.4756 9.875 56.25V71.875H3.625V56.25C3.625 43.818 8.5636 31.8951 17.3544 23.1044C26.1451 14.3136 38.068 9.375 50.5 9.375C62.932 9.375 74.8549 14.3136 83.6456 23.1044C92.4364 31.8951 97.375 43.818 97.375 56.25V71.875Z" fill="#8E000B"/>
<path d="M23.0938 90.625H19.25C17.1981 90.625 15.1663 90.2208 13.2706 89.4356C11.3749 88.6504 9.65237 87.4995 8.20146 86.0485C5.2712 83.1183 3.625 79.144 3.625 75V68.75C3.625 64.606 5.2712 60.6317 8.20146 57.7015C11.1317 54.7712 15.106 53.125 19.25 53.125H23.0938C24.5693 53.1496 25.9761 53.7531 27.0108 54.8053C28.0455 55.8575 28.6252 57.2743 28.625 58.75V85C28.6252 86.4757 28.0455 87.8925 27.0108 88.9447C25.9761 89.9969 24.5693 90.6004 23.0938 90.625ZM19.25 59.375C16.7636 59.375 14.379 60.3627 12.6209 62.1209C10.8627 63.879 9.875 66.2636 9.875 68.75V75C9.875 77.4864 10.8627 79.871 12.6209 81.6291C14.379 83.3873 16.7636 84.375 19.25 84.375H22.375V59.375H19.25Z" fill="#8E000B"/>
<path d="M81.75 90.625H78C76.5082 90.625 75.0774 90.0324 74.0225 88.9775C72.9676 87.9226 72.375 86.4918 72.375 85V58.75C72.375 57.2582 72.9676 55.8274 74.0225 54.7725C75.0774 53.7176 76.5082 53.125 78 53.125H81.75C85.894 53.125 89.8683 54.7712 92.7985 57.7015C95.7288 60.6317 97.375 64.606 97.375 68.75V75C97.375 79.144 95.7288 83.1183 92.7985 86.0485C89.8683 88.9788 85.894 90.625 81.75 90.625ZM78.625 84.375H81.75C84.2364 84.375 86.621 83.3873 88.3791 81.6291C90.1373 79.871 91.125 77.4864 91.125 75V68.75C91.125 66.2636 90.1373 63.879 88.3791 62.1209C86.621 60.3627 84.2364 59.375 81.75 59.375H78.625V84.375Z" fill="#8E000B"/>
</svg>
