<svg width="264" height="234" viewBox="0 0 264 234" fill="none" xmlns="http://www.w3.org/2000/svg">
<g filter="url(#filter0_dd_5676_23963)">
<rect x="60" y="40" width="144" height="114" rx="16" fill="#1A1A1C"/>
<g clip-path="url(#clip0_5676_23963)">
<path d="M99.5 72C99.5 65.3726 104.873 60 111.5 60V60C118.127 60 123.5 65.3726 123.5 72V72C123.5 78.6274 118.127 84 111.5 84V84C104.873 84 99.5 78.6274 99.5 72V72Z" fill="url(#paint0_linear_5676_23963)"/>
<path d="M108.878 74.9715C109.761 75.5233 110.898 75.4258 111.907 75.1714C112.916 74.9171 113.912 74.5228 114.952 74.5396C115.993 74.5563 117.127 75.1352 117.357 76.1499C117.553 77.0147 117.032 77.8975 116.359 78.4744C115.685 79.0514 114.86 79.421 114.146 79.9462C113.215 80.6304 112.281 81.6376 111.142 81.4446C110.482 81.333 109.968 80.8311 109.498 80.3539C108.859 79.7036 108.22 79.0532 107.581 78.403C106.985 77.7962 106.347 77.0893 106.371 76.2389C106.388 75.6279 106.793 75.0447 107.359 74.8146C107.925 74.5844 108.622 74.7199 109.06 75.1457" fill="#2E2E2E"/>
<path d="M109.323 70.1604C109.703 70.7705 109.667 71.4932 109.241 71.7747C108.816 72.0562 108.164 71.7896 107.784 71.1796C107.404 70.5696 107.441 69.8468 107.866 69.5653C108.291 69.2839 108.944 69.5502 109.323 70.1604Z" fill="#F5F5FF" stroke="#2E2E2E" stroke-width="0.5006" stroke-miterlimit="10" stroke-linecap="round" stroke-linejoin="round"/>
<path d="M108.18 69.8594C107.996 69.9313 107.856 70.1062 107.826 70.3015C107.796 70.4968 107.877 70.7056 108.032 70.8292" stroke="#2E2E2E" stroke-width="0.5006" stroke-miterlimit="10" stroke-linecap="round" stroke-linejoin="round"/>
<path d="M114.448 70.1604C114.068 70.7705 114.104 71.4932 114.53 71.7747C114.955 72.0562 115.608 71.7896 115.987 71.1796C116.367 70.5696 116.331 69.8468 115.905 69.5653C115.48 69.2839 114.828 69.5502 114.448 70.1604Z" fill="#F5F5FF" stroke="#2E2E2E" stroke-width="0.5006" stroke-miterlimit="10" stroke-linecap="round" stroke-linejoin="round"/>
<path d="M115.585 69.8594C115.77 69.9313 115.909 70.1062 115.939 70.3015C115.969 70.497 115.888 70.7056 115.733 70.8292" stroke="#2E2E2E" stroke-width="0.5006" stroke-miterlimit="10" stroke-linecap="round" stroke-linejoin="round"/>
<path d="M109.938 77.5265C109.901 78.6291 110.783 79.5407 111.886 79.5407C112.966 79.5407 113.836 78.6639 113.836 77.5925C113.836 77.5705 113.836 77.5485 113.834 77.5265L113.618 74.6208L113.563 73.8852L113.454 72.4414H110.319L110.147 74.7235L110.024 76.3837L109.938 77.5265Z" fill="#F5F5FF" stroke="#2E2E2E" stroke-width="0.5589" stroke-miterlimit="10" stroke-linecap="round" stroke-linejoin="round"/>
<path d="M110.024 76.3837C111.053 76.4571 112.187 75.9454 112.964 74.951C113.227 74.6171 113.427 74.2558 113.562 73.8852L113.454 72.4414H110.319L110.147 74.7235L110.024 76.3837Z" fill="#2E2E2E"/>
<path d="M108.444 71.1473C108.444 71.9918 108.789 72.8005 109.4 73.3837L110.332 74.2201C110.614 74.529 111.013 74.7049 111.432 74.7049H112.3C112.716 74.7049 113.11 74.5324 113.395 74.2299L114.346 73.3854C114.969 72.8003 115.32 71.9853 115.32 71.1325L115.306 70.8745L115.22 69.3956L115.156 68.2996C115.156 66.4772 113.69 65 111.883 65C110.977 65 110.159 65.3698 109.567 65.9662C108.974 66.5626 108.608 67.3876 108.608 68.2996L108.536 69.5469L108.465 70.7777L108.444 71.1473Z" fill="#F5F5FF" stroke="#2E2E2E" stroke-width="0.5006" stroke-miterlimit="10" stroke-linecap="round" stroke-linejoin="round"/>
<path d="M108.534 69.5468H108.636C109.116 68.8435 109.425 68.0234 109.527 67.1789C109.591 66.6514 110.34 66.474 110.869 66.5314C111.108 66.8913 111.527 67.1263 111.959 67.1395C112.391 67.1526 112.815 66.8634 113.074 66.5166C113.602 66.4592 114.354 66.6366 114.418 67.1641C114.514 67.9545 114.79 68.7236 115.219 69.3956L115.155 68.2996C115.155 66.4772 113.689 65 111.881 65C110.976 65 110.157 65.3698 109.566 65.9662C108.973 66.5626 108.606 67.3876 108.606 68.2996L108.534 69.5468Z" fill="#2E2E2E"/>
<path d="M111.162 68.9175C111.009 68.8261 110.842 68.7619 110.666 68.7165C110.49 68.6695 110.302 68.6448 110.109 68.6515C109.917 68.6577 109.717 68.7019 109.542 68.7941C109.366 68.8849 109.222 69.0267 109.145 69.1969C109.322 69.1384 109.482 69.1077 109.634 69.103C109.787 69.098 109.932 69.1176 110.08 69.1442C110.228 69.1712 110.378 69.2098 110.533 69.2459C110.687 69.2837 110.846 69.3229 111.016 69.3419L111.019 69.3423C111.145 69.3564 111.258 69.2658 111.272 69.1399C111.282 69.0477 111.236 68.9622 111.162 68.9175Z" fill="#2E2E2E"/>
<path d="M112.754 69.3419C112.924 69.3228 113.083 69.2836 113.237 69.2459C113.392 69.2098 113.542 69.1712 113.69 69.1441C113.838 69.1175 113.983 69.0978 114.136 69.1029C114.288 69.1077 114.448 69.1384 114.625 69.1968C114.548 69.0266 114.403 68.885 114.228 68.7941C114.053 68.7018 113.853 68.6577 113.661 68.6514C113.468 68.6449 113.28 68.6696 113.104 68.7164C112.928 68.762 112.761 68.8261 112.608 68.9175C112.499 68.9825 112.464 69.1233 112.529 69.2319C112.577 69.3114 112.665 69.3517 112.751 69.3421L112.754 69.3419Z" fill="#2E2E2E"/>
<path d="M111.088 70.3218C111.041 70.2486 110.991 70.1782 110.941 70.1066C110.884 70.035 110.823 69.9641 110.748 69.9075C110.602 69.7917 110.422 69.7186 110.235 69.6909C110.049 69.6674 109.853 69.6874 109.68 69.7649C109.592 69.7989 109.513 69.8529 109.438 69.9074C109.369 69.9602 109.3 70.0122 109.255 70.0981C109.245 70.1178 109.253 70.142 109.272 70.1524C109.28 70.1565 109.289 70.1578 109.297 70.1567C109.393 70.1425 109.465 70.0946 109.537 70.0473C109.606 70.0063 109.676 69.9697 109.751 69.9443C109.898 69.8908 110.056 69.8712 110.213 69.8841C110.368 69.9008 110.525 69.9464 110.658 70.035C110.728 70.0744 110.789 70.1288 110.847 70.185C110.909 70.2456 110.969 70.3083 111.033 70.3675C111.048 70.3812 111.07 70.3804 111.084 70.3659C111.096 70.3536 111.097 70.3354 111.088 70.3218Z" fill="#2E2E2E"/>
<path d="M110.491 70.0578C110.479 69.8914 110.335 69.7662 110.168 69.7781C110.002 69.7901 109.877 69.9347 109.889 70.1013C109.901 70.2677 110.045 70.3929 110.212 70.381C110.378 70.3688 110.503 70.2242 110.491 70.0578Z" fill="#2E2E2E"/>
<path d="M111.023 70.3477C110.877 70.4251 110.707 70.4627 110.532 70.4565" stroke="#2E2E2E" stroke-width="0.5006" stroke-miterlimit="10" stroke-linecap="round" stroke-linejoin="round"/>
<path d="M111.07 69.9842C110.903 69.7526 110.638 69.5936 110.355 69.5547" stroke="#2E2E2E" stroke-width="0.5006" stroke-miterlimit="10" stroke-linecap="round" stroke-linejoin="round"/>
<path d="M112.733 70.3675C112.797 70.3083 112.857 70.2456 112.919 70.1849C112.978 70.1286 113.038 70.0743 113.108 70.0349C113.242 69.9462 113.398 69.9005 113.553 69.8839C113.71 69.8711 113.868 69.8905 114.016 69.9441C114.09 69.9696 114.16 70.0062 114.229 70.0472C114.302 70.0945 114.374 70.1424 114.47 70.1565C114.492 70.1598 114.512 70.1445 114.515 70.1225C114.516 70.1138 114.515 70.1053 114.511 70.0981C114.466 70.0121 114.397 69.9602 114.328 69.9074C114.254 69.853 114.175 69.799 114.086 69.7649C113.914 69.6874 113.718 69.6674 113.531 69.6909C113.345 69.7186 113.164 69.7916 113.018 69.9075C112.944 69.964 112.882 70.035 112.826 70.1066C112.776 70.1782 112.726 70.2486 112.678 70.3218C112.668 70.3385 112.672 70.3608 112.689 70.3716C112.703 70.3807 112.721 70.3785 112.733 70.3675Z" fill="#2E2E2E"/>
<path d="M113.279 70.0598C113.291 69.8933 113.436 69.7681 113.602 69.7801C113.769 69.7921 113.894 69.9367 113.882 70.1032C113.87 70.2697 113.725 70.3949 113.559 70.3829C113.392 70.3708 113.267 70.2262 113.279 70.0598Z" fill="#2E2E2E"/>
<path d="M112.743 70.3477C112.889 70.4251 113.059 70.4627 113.234 70.4565" stroke="#2E2E2E" stroke-width="0.5006" stroke-miterlimit="10" stroke-linecap="round" stroke-linejoin="round"/>
<path d="M112.699 69.9842C112.867 69.7526 113.131 69.5936 113.414 69.5547" stroke="#2E2E2E" stroke-width="0.5006" stroke-miterlimit="10" stroke-linecap="round" stroke-linejoin="round"/>
<path d="M112.125 72.6348C112.062 72.6952 111.976 72.7302 111.889 72.7302C111.801 72.7302 111.715 72.6951 111.652 72.6347C111.554 72.54 111.377 72.5981 111.242 72.6176C111.107 72.6371 110.969 72.6644 110.836 72.6355" stroke="#2E2E2E" stroke-width="0.5269" stroke-miterlimit="10" stroke-linecap="round" stroke-linejoin="round"/>
<path d="M112.121 72.6347C112.219 72.54 112.396 72.5981 112.531 72.6176C112.666 72.6371 112.804 72.6644 112.938 72.6355" stroke="#2E2E2E" stroke-width="0.5269" stroke-miterlimit="10" stroke-linecap="round" stroke-linejoin="round"/>
<path d="M112.508 73.0215C112.162 73.1418 111.78 73.158 111.425 73.0671" stroke="#2E2E2E" stroke-width="0.5269" stroke-miterlimit="10" stroke-linecap="round" stroke-linejoin="round"/>
<path d="M112.391 71.7012L112.138 71.8074C111.977 71.8753 111.796 71.8753 111.634 71.8074L111.382 71.7012" stroke="#2E2E2E" stroke-width="0.4622" stroke-miterlimit="10" stroke-linecap="round" stroke-linejoin="round"/>
<path d="M104.89 88.9195L105.645 87.0861L106.25 85.617L106.759 84.3778L107.878 81.658C108.467 80.227 107.888 78.6418 106.617 78.2064C106.395 78.1304 106.168 78.0961 105.943 78.0977C105.922 78.0979 105.901 78.098 105.88 78.1C104.895 78.1356 103.943 78.8673 103.561 79.9846L102.655 82.6327L102.249 83.8202L100.497 88.9515" fill="#2E2E2E"/>
<path d="M118.88 88.9195L118.125 87.0861L117.521 85.617L117.012 84.3778L115.892 81.658C115.303 80.227 115.882 78.6418 117.153 78.2064C117.375 78.1304 117.602 78.0961 117.828 78.0977C117.848 78.0979 117.869 78.098 117.89 78.1C118.876 78.1356 119.828 78.8673 120.209 79.9846L121.115 82.6327L121.521 83.8202L123.273 88.9515" fill="#2E2E2E"/>
<path d="M105.626 88.9998H118.148L118.083 87.1648L118.038 85.8407L117.98 84.2146L117.794 78.9639L117.766 78.1823L117.362 78.0366L115.014 77.1884L114.561 77.0251L114.336 76.9426L113.75 76.627H113.572H110.183H110.113L109.454 76.9303L109.231 77.011L108.778 77.1743L106.362 78.0471L105.989 78.1823L105.963 78.9655L105.863 81.9228L105.787 84.1829L105.733 85.8178V85.8265L105.684 87.3035L105.626 88.9998Z" fill="#2E2E2E"/>
<path d="M113.226 78.6797C113.682 79.3783 113.648 80.2936 113.435 81.1005C113.223 81.9073 112.851 82.668 112.671 83.4828C112.492 84.2978 112.538 85.2266 113.078 85.8634" stroke="#F5F5FF" stroke-width="1.07" stroke-miterlimit="10"/>
<path d="M110.547 78.6719C110.09 79.2652 110.124 80.0423 110.337 80.7275C110.55 81.4127 110.922 82.0585 111.101 82.7504C111.28 83.4425 111.234 84.2311 110.695 84.7717" stroke="#F5F5FF" stroke-width="0.986" stroke-miterlimit="10"/>
</g>
<path d="M111.5 59.5C118.404 59.5 124 65.0964 124 72C124 78.9036 118.404 84.5 111.5 84.5C104.596 84.5 99 78.9036 99 72C99 65.0964 104.596 59.5 111.5 59.5Z" stroke="white"/>
<g clip-path="url(#clip1_5676_23963)">
<path d="M116 72C116 63.1634 123.163 56 132 56V56C140.837 56 148 63.1634 148 72V72C148 80.8366 140.837 88 132 88V88C123.163 88 116 80.8366 116 72V72Z" fill="url(#paint1_linear_5676_23963)"/>
<path d="M140.092 75.7426C139.814 73.0842 139.213 70.4604 138.311 67.9442C138.284 67.5639 138.227 67.193 138.138 66.835C137.862 65.7179 137.294 64.7195 136.528 63.9291C135.62 62.9932 134.435 62.3486 133.107 62.1464C133.064 62.1406 133.02 62.1315 132.977 62.1257C132.922 62.1168 132.867 62.1107 132.813 62.1049C132.709 62.093 132.605 62.0872 132.502 62.0811C132.421 62.0753 132.334 62.0723 132.254 62.0723H132.185C132.165 62.0723 132.147 62.0723 132.127 62.0753C132.124 62.0723 132.121 62.0723 132.119 62.0753C129.28 62.1049 126.903 64.1194 126.228 66.8352C126.191 66.986 126.161 67.1394 126.134 67.2942C124.696 70.3245 124.207 73.8187 124.262 77.2042C124.484 76.622 124.839 76.0905 125.291 75.6613C124.871 76.5697 124.88 77.6607 125.301 78.5675L125.297 78.6279H125.327C125.332 78.6391 125.336 78.651 125.342 78.6621L125.347 78.6279H138.981L138.929 78.4954C139.088 78.4511 139.29 78.4627 139.429 78.3979C139.399 78.0475 139.37 77.6971 139.34 77.3464C139.516 77.6174 139.704 77.729 139.88 77.9999C139.77 77.1066 139.623 76.032 139.371 75.1677C139.658 75.341 139.946 75.4405 140.092 75.7426Z" fill="#2E2E2E"/>
<path d="M135.072 82.0472C135.127 83.7211 133.814 85.1094 132.176 85.1094C130.573 85.1094 129.281 83.7786 129.281 82.1456C129.281 82.1137 129.281 82.0793 129.284 82.0472L129.606 77.6265L129.647 77.057L129.848 74.3105H134.504L134.713 77.16L134.758 77.7819L135.072 82.0472Z" fill="#F5F5FF" stroke="#2E2E2E" stroke-width="0.5" stroke-miterlimit="10" stroke-linecap="round" stroke-linejoin="round"/>
<path d="M134.908 79.8855C133.44 80.0651 131.786 79.3592 130.665 77.9272C130.209 77.3478 129.893 76.7102 129.711 76.065L129.843 74.2812H134.498L134.705 77.1302L134.753 77.7526L134.908 79.8855Z" fill="#2E2E2E"/>
<path d="M136.123 69.878C135.538 70.8174 135.595 71.9302 136.249 72.3636C136.904 72.797 137.909 72.3866 138.494 71.4472C139.079 70.5077 139.022 69.395 138.367 68.9618C137.713 68.5284 136.708 68.9386 136.123 69.878Z" fill="#F5F5FF" stroke="#2E2E2E" stroke-width="0.5" stroke-miterlimit="10" stroke-linecap="round" stroke-linejoin="round"/>
<path d="M137.875 69.4121C138.159 69.5229 138.374 69.7921 138.42 70.093C138.466 70.3938 138.341 70.7151 138.103 70.9054" stroke="#2E2E2E" stroke-width="0.5" stroke-miterlimit="10" stroke-linecap="round" stroke-linejoin="round"/>
<path d="M128.228 69.878C128.813 70.8174 128.756 71.9302 128.102 72.3636C127.447 72.797 126.442 72.3866 125.857 71.4472C125.272 70.5077 125.329 69.395 125.984 68.9618C126.638 68.5284 127.643 68.9386 128.228 69.878Z" fill="#F5F5FF" stroke="#2E2E2E" stroke-width="0.5" stroke-miterlimit="10" stroke-linecap="round" stroke-linejoin="round"/>
<path d="M126.468 69.4121C126.185 69.5229 125.97 69.7921 125.923 70.093C125.877 70.3938 126.003 70.7151 126.241 70.9054" stroke="#2E2E2E" stroke-width="0.5" stroke-miterlimit="10" stroke-linecap="round" stroke-linejoin="round"/>
<path d="M137.671 68.3253C137.671 68.4139 137.671 68.4999 137.666 68.5834C137.655 68.8364 137.635 69.092 137.602 69.3399L137.567 69.6941L137.552 69.8864L137.526 70.1647C137.511 70.3343 137.501 70.5012 137.488 70.6682C137.483 70.7745 137.478 70.8782 137.471 70.9845C137.448 71.4045 137.425 71.822 137.369 72.2369C137.369 72.2445 137.364 72.2521 137.364 72.2572C137.354 72.3356 137.342 72.4166 137.326 72.4925C137.326 72.495 137.326 72.495 137.326 72.495C137.311 72.581 137.296 72.6645 137.273 72.748C137.248 72.8745 137.215 72.9985 137.175 73.125V73.1275C137.165 73.1731 137.149 73.2161 137.132 73.2641C137.104 73.3552 137.066 73.4488 137.03 73.5425C136.932 73.7879 136.813 74.0257 136.676 74.2635C136.112 75.2503 135.244 76.1561 134.376 76.7557C134.371 76.7633 134.366 76.7659 134.364 76.7659C134.257 76.8418 134.151 76.9101 134.047 76.9733C132.987 77.621 131.735 77.6565 130.637 77.0973C130.409 76.9834 130.189 76.8519 129.976 76.695C129.974 76.695 129.971 76.695 129.969 76.6899C129.129 76.0903 128.405 75.2199 127.864 74.2635C127.823 74.1952 127.788 74.1295 127.75 74.0611C127.732 74.0257 127.715 73.9878 127.697 73.9523C127.666 73.8941 127.636 73.8309 127.606 73.7676C127.52 73.6032 127.444 73.4311 127.373 73.2641C127.355 73.2161 127.335 73.1705 127.32 73.1225C127.064 72.4494 126.973 71.698 126.912 70.9567C126.902 70.8428 126.892 70.7239 126.885 70.61C126.875 70.481 126.864 70.3494 126.854 70.2229L126.824 69.8763C126.816 69.8383 126.811 69.8004 126.806 69.765C126.796 69.722 126.791 69.6815 126.786 69.6385C126.758 69.4816 126.738 69.3222 126.72 69.1577C126.695 68.8896 126.68 68.6112 126.68 68.3253C126.68 68.3026 126.68 68.2773 126.682 68.252C126.682 68.1204 126.687 67.9914 126.695 67.8623C126.697 67.8168 126.7 67.7712 126.702 67.7257C126.715 67.5764 126.733 67.4297 126.756 67.288C126.882 66.41 127.163 65.5928 127.568 64.8768C127.669 64.6971 127.778 64.5251 127.897 64.3581C128.286 63.7989 128.765 63.3182 129.298 62.9412C129.336 62.9108 129.377 62.883 129.415 62.8577C129.463 62.8248 129.511 62.7919 129.559 62.7616C129.749 62.6452 129.944 62.5389 130.143 62.4478C130.728 62.1796 131.363 62.0253 132.031 62.0076C132.033 62.0025 132.036 62.0025 132.039 62.0076V62.0025C132.071 62 132.107 62 132.14 62H132.173C132.256 62 132.347 62.0025 132.431 62.0101C132.542 62.0152 132.648 62.0228 132.757 62.038C132.815 62.043 132.873 62.0506 132.929 62.0607C132.975 62.0658 133.02 62.0759 133.066 62.0835C133.445 62.1569 133.81 62.2707 134.159 62.4301C134.427 62.5465 134.688 62.6907 134.933 62.8577C134.946 62.8653 134.958 62.8754 134.971 62.883C135.128 62.9893 135.277 63.1006 135.421 63.2246C135.965 63.6825 136.431 64.2518 136.798 64.9046V64.9071C136.823 64.9451 136.841 64.983 136.863 65.021C136.866 65.021 136.866 65.026 136.866 65.026C137.22 65.7016 137.476 66.4581 137.592 67.2703C137.592 67.2753 137.595 67.2804 137.595 67.288C137.617 67.4297 137.633 67.5764 137.645 67.7257C137.648 67.751 137.65 67.7763 137.65 67.8016C137.663 67.9483 137.668 68.1001 137.668 68.252C137.671 68.2775 137.671 68.3026 137.671 68.3253Z" fill="#F5F5FF" stroke="#2E2E2E" stroke-width="0.5" stroke-miterlimit="10" stroke-linecap="round" stroke-linejoin="round"/>
<path d="M129.314 62.9414C128.927 65.3255 128.092 67.631 126.866 69.6888C126.852 69.7118 126.837 69.7381 126.821 69.7642C126.812 69.7227 126.806 69.6809 126.801 69.6394C126.775 69.4808 126.754 69.3221 126.737 69.1574C126.71 68.891 126.695 68.6107 126.695 68.3258C126.695 68.3028 126.695 68.2764 126.698 68.2534C126.698 67.9237 126.722 67.6004 126.771 67.2877C126.928 66.1896 127.329 65.1869 127.911 64.3583C128.303 63.7994 128.779 63.3174 129.314 62.9414Z" fill="#2E2E2E"/>
<path d="M137.684 68.3258C137.684 68.4151 137.684 68.5014 137.677 68.5831C137.669 68.8372 137.648 69.0914 137.615 69.3394L137.58 69.6951L137.564 69.8877C137.518 69.8138 137.477 69.7475 137.443 69.6891C136.208 67.6146 135.365 65.2889 134.984 62.8848C135.14 62.9895 135.291 63.1019 135.435 63.2251C136.012 63.7101 136.501 64.3201 136.875 65.0225C136.878 65.0225 136.878 65.0255 136.878 65.0255C137.234 65.7016 137.488 66.4593 137.606 67.271C137.606 67.2771 137.609 67.2819 137.609 67.288C137.654 67.6007 137.68 67.924 137.68 68.2537C137.684 68.2765 137.684 68.3028 137.684 68.3258Z" fill="#2E2E2E"/>
<path d="M137.661 67.8013C137.509 67.9506 137.329 68.0645 137.117 68.1151C136.52 68.2618 135.9 67.8443 135.611 67.3004C135.321 66.7589 135.412 66.0125 135.381 65.3977C135.25 66.3845 134.587 67.2068 133.754 67.7558C134.387 67.1081 134.597 66.0252 134.453 65.132C134.41 65.3302 134.329 65.5376 134.224 65.7461C133.579 67.0243 132.238 67.8013 130.806 67.7943C130.099 67.7907 129.408 67.7874 129.21 67.7864C129.992 67.3892 130.435 66.5568 130.83 65.7724C129.942 66.8065 128.772 67.5923 127.482 68.0273C127.214 68.1176 126.91 68.0655 126.709 67.8659L126.705 67.8623C126.705 67.8603 126.704 67.8585 126.703 67.8565C126.716 67.6622 126.737 67.4709 126.766 67.288C126.893 66.41 127.173 65.5928 127.578 64.8768C127.68 64.6971 127.788 64.5251 127.907 64.3581C128.297 63.7989 128.775 63.3182 129.309 62.9412C129.347 62.9108 129.387 62.883 129.425 62.8577C129.473 62.8248 129.521 62.7919 129.57 62.7616C129.759 62.6452 129.954 62.5389 130.154 62.4478C130.738 62.1796 131.373 62.0253 132.041 62.0076C132.044 62.0025 132.047 62.0025 132.049 62.0076V62.0025C132.082 62 132.117 62 132.15 62H132.183C132.267 62 132.358 62.0025 132.441 62.0101C132.553 62.0152 132.659 62.0228 132.768 62.038C132.826 62.043 132.884 62.0506 132.94 62.0607C132.985 62.0658 133.031 62.0759 133.076 62.0835C133.456 62.1569 133.82 62.2707 134.169 62.4301C134.437 62.5465 134.698 62.6907 134.944 62.8577C134.956 62.8653 134.969 62.8754 134.981 62.883C135.138 62.9893 135.288 63.1006 135.432 63.2246C135.976 63.6825 136.441 64.2518 136.808 64.9046V64.9071C136.834 64.9451 136.851 64.983 136.874 65.021C136.877 65.021 136.877 65.026 136.877 65.026C137.231 65.7016 137.486 66.4581 137.603 67.2703C137.603 67.2753 137.605 67.2804 137.605 67.288C137.632 67.4527 137.648 67.6245 137.662 67.7991C137.661 67.7996 137.661 67.8003 137.661 67.8013Z" fill="#2E2E2E"/>
<path d="M136.102 66.4746C136.96 67.5839 137.448 68.9757 137.469 70.3784C137.49 71.7811 137.045 73.1868 136.22 74.3216C137.284 73.3126 137.973 72.1804 138.123 70.7217C138.274 69.2631 137.886 67.7549 137.051 66.5498C136.944 66.3949 136.818 66.2368 136.64 66.1763C136.461 66.1159 136.132 66.2887 136.102 66.4746Z" fill="#2E2E2E"/>
<path d="M133.281 68.9871C133.454 68.7556 133.703 68.6192 133.95 68.5241C134.201 68.4327 134.462 68.3892 134.721 68.3834C134.98 68.3778 135.24 68.4117 135.491 68.4856C135.741 68.5635 135.99 68.6736 136.198 68.871C135.928 68.9466 135.686 68.9803 135.445 69.0088C135.205 69.0344 134.97 69.0476 134.736 69.0516C134.502 69.0562 134.27 69.0516 134.033 69.0412C133.795 69.0281 133.56 69.0131 133.281 68.9871Z" fill="#2E2E2E"/>
<path d="M131.066 68.9871C130.893 68.7556 130.644 68.6192 130.397 68.5241C130.146 68.4327 129.885 68.3892 129.626 68.3834C129.366 68.3778 129.107 68.4117 128.856 68.4856C128.606 68.5635 128.357 68.6736 128.148 68.871C128.419 68.9466 128.661 68.9803 128.902 69.0088C129.142 69.0344 129.377 69.0476 129.611 69.0516C129.845 69.0562 130.077 69.0516 130.314 69.0412C130.553 69.0281 130.787 69.0131 131.066 68.9871Z" fill="#2E2E2E"/>
<path d="M133.197 71.0539C133.332 70.8551 133.465 70.6529 133.643 70.4702C133.816 70.2868 134.032 70.1332 134.283 70.0421C134.533 69.948 134.821 69.9404 135.078 70.0163C135.34 70.0844 135.564 70.2372 135.754 70.4123L135.74 70.4006C135.846 70.4841 135.955 70.5646 136.06 70.6511L135.987 70.6279C135.982 70.6349 136.023 70.6306 136.053 70.6195C136.087 70.6086 136.122 70.5934 136.157 70.5767C136.227 70.5426 136.299 70.5011 136.362 70.4566L136.364 70.4545C136.389 70.4368 136.424 70.4426 136.442 70.4674C136.456 70.4879 136.455 70.515 136.44 70.5337C136.385 70.6046 136.326 70.6658 136.261 70.7263C136.228 70.7561 136.194 70.7852 136.154 70.8125C136.112 70.8386 136.075 70.8697 135.987 70.8814H135.987C135.966 70.8831 135.947 70.8778 135.93 70.868L135.913 70.8581C135.797 70.788 135.685 70.7116 135.571 70.6385L135.564 70.6327L135.557 70.6266C135.39 70.4806 135.197 70.3695 134.995 70.3083C134.791 70.243 134.576 70.2516 134.37 70.3078C134.162 70.3652 133.971 70.4879 133.793 70.6316C133.618 70.7759 133.457 70.957 133.282 71.1245C133.26 71.146 133.225 71.1455 133.203 71.1238C133.184 71.1048 133.183 71.0752 133.197 71.0539Z" fill="#2E2E2E"/>
<path d="M134.157 70.5881C134.176 70.3318 134.399 70.139 134.655 70.1575C134.911 70.1759 135.104 70.3986 135.086 70.6549C135.067 70.9112 134.844 71.104 134.588 71.0855C134.332 71.0671 134.139 70.8444 134.157 70.5881Z" fill="#2E2E2E"/>
<path d="M135.531 71.0184C135.702 70.9802 135.864 70.9025 136.001 70.793" stroke="#2E2E2E" stroke-width="0.5" stroke-miterlimit="10" stroke-linecap="round" stroke-linejoin="round"/>
<path d="M133.25 70.5077C133.467 70.1252 133.845 69.8375 134.272 69.7305" stroke="#2E2E2E" stroke-width="0.5" stroke-miterlimit="10" stroke-linecap="round" stroke-linejoin="round"/>
<path d="M131.061 71.1247C130.886 70.9569 130.725 70.7758 130.55 70.6318C130.372 70.4883 130.181 70.3656 129.973 70.3079C129.767 70.2518 129.552 70.2432 129.348 70.3084C129.146 70.3697 128.952 70.4807 128.786 70.6267L128.78 70.6326L128.772 70.6386C128.657 70.7117 128.545 70.7879 128.429 70.8582L128.413 70.8681C128.395 70.879 128.375 70.883 128.356 70.8815H128.355C128.268 70.8699 128.231 70.8388 128.189 70.8127C128.149 70.7851 128.114 70.756 128.082 70.7264C128.016 70.6659 127.958 70.605 127.902 70.5339C127.883 70.5098 127.888 70.4749 127.912 70.4559C127.932 70.4405 127.959 70.4405 127.978 70.4544L127.981 70.4565C128.044 70.501 128.115 70.5425 128.185 70.5766C128.221 70.5936 128.256 70.6088 128.289 70.6194C128.32 70.6305 128.36 70.6348 128.356 70.6277L128.282 70.651C128.387 70.5645 128.496 70.4843 128.603 70.4005L128.589 70.4122C128.779 70.2371 129.003 70.0843 129.265 70.0162C129.522 69.9406 129.809 69.9479 130.059 70.042C130.31 70.1329 130.527 70.2864 130.699 70.4701C130.878 70.6528 131.011 70.8552 131.146 71.0538C131.163 71.0791 131.156 71.1135 131.131 71.1307C131.109 71.1457 131.08 71.1421 131.061 71.1247Z" fill="#2E2E2E"/>
<path d="M130.187 70.5861C130.169 70.3298 129.946 70.1371 129.69 70.1555C129.433 70.174 129.241 70.3966 129.259 70.6529C129.278 70.9092 129.5 71.102 129.756 71.0836C130.013 71.0651 130.206 70.8425 130.187 70.5861Z" fill="#2E2E2E"/>
<path d="M128.822 71.0164C128.651 70.9782 128.488 70.9006 128.352 70.791" stroke="#2E2E2E" stroke-width="0.5" stroke-miterlimit="10" stroke-linecap="round" stroke-linejoin="round"/>
<path d="M131.1 70.5077C130.883 70.1252 130.505 69.8375 130.078 69.7305" stroke="#2E2E2E" stroke-width="0.5" stroke-miterlimit="10" stroke-linecap="round" stroke-linejoin="round"/>
<path d="M132.207 75.1963C132.434 75.1857 132.66 75.1586 132.89 75.1288C132.944 75.1217 133.67 75.0377 133.663 74.9921L133.642 74.8391C133.47 74.8499 133.302 74.7417 133.177 74.6453L133.121 74.6002C132.986 74.4914 132.847 74.3788 132.673 74.3234C132.503 74.2716 132.277 74.2981 132.148 74.4375C132.019 74.2981 131.793 74.2716 131.622 74.3237C131.449 74.3788 131.31 74.4914 131.176 74.6002L131.12 74.6448C130.995 74.7409 130.827 74.8469 130.654 74.8391L130.633 74.9921C130.925 75.1027 131.297 75.1374 131.607 75.1766C131.809 75.2021 132.008 75.2057 132.207 75.1963Z" fill="#2E2E2E"/>
<path d="M133.422 74.9741C133.589 74.9417 133.753 74.8908 133.911 74.8223" stroke="#2E2E2E" stroke-width="0.5778" stroke-miterlimit="10" stroke-linecap="round" stroke-linejoin="round"/>
<path d="M130.935 74.9741C130.768 74.9417 130.604 74.8908 130.445 74.8223" stroke="#2E2E2E" stroke-width="0.5778" stroke-miterlimit="10" stroke-linecap="round" stroke-linejoin="round"/>
<path d="M131.32 75.6172C131.869 75.747 132.446 75.7612 133 75.6584" stroke="#2E2E2E" stroke-width="0.5" stroke-miterlimit="10" stroke-linecap="round" stroke-linejoin="round"/>
<path d="M131.578 73.1367C131.895 73.4279 132.423 73.4527 132.766 73.1926" stroke="#2E2E2E" stroke-width="0.6139" stroke-miterlimit="10" stroke-linecap="round" stroke-linejoin="round"/>
<path d="M132.172 70.4961V72.4155" stroke="#2E2E2E" stroke-width="0.5" stroke-miterlimit="10" stroke-linecap="round" stroke-linejoin="round"/>
<path d="M116 98.0018C116.008 97.9765 116.018 97.9537 116.025 97.9284L118.763 90.1078L119.36 88.4025L120.564 84.9615C120.946 83.866 121.759 83.0664 122.687 82.7401C122.988 82.6338 123.302 82.5781 123.616 82.5781C123.904 82.5781 124.193 82.6262 124.476 82.7249C126.09 83.2916 126.814 85.3157 126.052 87.1349L124.484 90.8694L123.914 92.223L123.451 93.3261L121.485 98.0018" fill="#F5F5FF"/>
<path d="M116 98.0018C116.008 97.9765 116.018 97.9537 116.025 97.9284L118.763 90.1078L119.36 88.4025L120.564 84.9615C120.946 83.866 121.759 83.0664 122.687 82.7401C122.988 82.6338 123.302 82.5781 123.616 82.5781C123.904 82.5781 124.193 82.6262 124.476 82.7249C126.09 83.2916 126.814 85.3157 126.052 87.1349L124.484 90.8694L123.914 92.223L123.451 93.3261L121.485 98.0018" stroke="#2E2E2E" stroke-width="0.5" stroke-miterlimit="10" stroke-linecap="round" stroke-linejoin="round"/>
<path d="M117.672 88.5186C118.052 88.0391 119.852 88.341 121.816 89.2255C123.872 90.1536 125.329 91.3711 125.067 91.9472C125.061 91.9596 125.055 91.9689 125.046 91.9813L125.067 91.9907L127.337 86.6688C128.228 84.5794 127.266 82.1971 125.242 81.4904C124.859 81.3565 124.47 81.291 124.08 81.291C122.694 81.291 121.365 82.1131 120.683 83.4459L117.672 88.5186Z" fill="#2E2E2E"/>
<path d="M142.473 98.0018L140.388 93.0453L140.044 92.223L139.475 90.8694L139.098 89.9737L138.458 88.4455L137.906 87.1349C137.142 85.3157 137.868 83.2916 139.483 82.7249C139.764 82.6262 140.055 82.5781 140.34 82.5781C140.596 82.5781 140.849 82.6161 141.097 82.6869C142.096 82.9678 142.987 83.8002 143.394 84.9615L144.599 88.4025L145.196 90.1078L147.933 97.9284C147.941 97.9537 147.951 97.9765 147.959 98.0018" fill="#F5F5FF"/>
<path d="M142.473 98.0018L140.388 93.0453L140.044 92.223L139.475 90.8694L139.098 89.9737L138.458 88.4455L137.906 87.1349C137.142 85.3157 137.868 83.2916 139.483 82.7249C139.764 82.6262 140.055 82.5781 140.34 82.5781C140.596 82.5781 140.849 82.6161 141.097 82.6869C142.096 82.9678 142.987 83.8002 143.394 84.9615L144.599 88.4025L145.196 90.1078L147.933 97.9284C147.941 97.9537 147.951 97.9765 147.959 98.0018" stroke="#2E2E2E" stroke-width="0.5" stroke-miterlimit="10" stroke-linecap="round" stroke-linejoin="round"/>
<path d="M146.288 88.5186C145.908 88.0391 144.108 88.341 142.143 89.2255C140.088 90.1536 138.63 91.3711 138.892 91.9472C138.898 91.9596 138.904 91.9689 138.914 91.9813L138.892 91.9907L136.622 86.6688C135.731 84.5794 136.694 82.1971 138.718 81.4904C139.101 81.3565 139.49 81.291 139.879 81.291C141.265 81.291 142.595 82.1131 143.277 83.4459L146.288 88.5186Z" fill="#2E2E2E"/>
<path d="M141.248 85.9274L140.6 89.0243C140.729 89.3077 140.83 89.6062 140.898 89.9174C140.969 90.2413 141.007 90.5753 141.007 90.9194C141.007 91.3292 140.954 91.729 140.85 92.1085C140.764 92.4374 140.643 92.7512 140.489 93.0447C140.236 93.5305 139.902 93.9682 139.499 94.335L138.738 98.0012H125.032L124.27 94.2313C123.995 93.9631 123.752 93.657 123.549 93.3255C123.309 92.9308 123.124 92.4982 123.01 92.0377C122.922 91.6809 122.874 91.3065 122.874 90.9194C122.874 90.5272 122.924 90.1451 123.015 89.7808C123.074 89.5506 123.147 89.3279 123.236 89.1129L122.593 85.9274C122.317 84.7534 122.37 83.6048 122.785 82.7394C123.127 82.0209 123.719 81.4997 124.579 81.315C124.797 81.2694 125.035 81.2441 125.29 81.2441H138.887C139.14 81.2441 139.373 81.2694 139.585 81.315C140.4 81.4921 140.919 81.9956 141.197 82.6863C141.554 83.5595 141.528 84.7309 141.248 85.9274Z" fill="#2E2E2E"/>
<path d="M141.247 85.9258C141.152 86.4445 141.064 86.9649 140.961 87.4821C140.862 88 140.764 88.5179 140.656 89.0343L140.652 88.9996C140.855 89.4444 140.99 89.9216 141.043 90.4087C141.094 90.896 141.065 91.3899 140.965 91.8683C140.866 92.3475 140.678 92.8052 140.432 93.225C140.185 93.6455 139.863 94.0164 139.5 94.3352C139.847 93.9984 140.137 93.608 140.369 93.189C140.601 92.769 140.761 92.3131 140.857 91.846C141.045 90.9099 140.937 89.9188 140.55 89.0462C140.545 89.0351 140.544 89.0227 140.546 89.0115C140.654 88.4954 140.771 87.9813 140.887 87.4669C140.999 86.9512 141.127 86.4391 141.247 85.9258Z" fill="white"/>
<path d="M124.27 94.2317C123.933 93.9154 123.635 93.5526 123.406 93.1465C123.179 92.7407 123.006 92.3007 122.912 91.8422C122.819 91.384 122.791 90.9122 122.836 90.4459C122.879 89.9793 123.002 89.5216 123.184 89.091L123.18 89.1244C122.968 88.0615 122.776 86.9945 122.594 85.9258C122.84 86.9819 123.076 88.0397 123.293 89.1019C123.295 89.1135 123.293 89.1251 123.289 89.1355C122.944 89.9798 122.844 90.9241 123.02 91.821C123.108 92.2688 123.255 92.7063 123.469 93.1126C123.682 93.5182 123.949 93.8982 124.27 94.2317Z" fill="white"/>
<path d="M135.357 80.1113H128.523V82.1911H135.357V80.1113Z" fill="#2E2E2E"/>
<path d="M135.47 81.1816C135.491 81.44 135.502 81.7039 135.502 81.9718C135.502 85.1686 133.923 87.76 131.974 87.76C130.025 87.76 128.445 85.1686 128.445 81.9718C128.445 81.7433 128.453 81.5181 128.469 81.2968" stroke="white" stroke-width="0.5" stroke-miterlimit="10" stroke-linecap="round" stroke-linejoin="round"/>
</g>
<path d="M132 55.5C141.113 55.5 148.5 62.8873 148.5 72C148.5 81.1127 141.113 88.5 132 88.5C122.887 88.5 115.5 81.1127 115.5 72C115.5 62.8873 122.887 55.5 132 55.5Z" stroke="white"/>
<g clip-path="url(#clip2_5676_23963)">
<path d="M140.5 72C140.5 65.3726 145.873 60 152.5 60V60C159.127 60 164.5 65.3726 164.5 72V72C164.5 78.6274 159.127 84 152.5 84V84C145.873 84 140.5 78.6274 140.5 72V72Z" fill="url(#paint2_linear_5676_23963)"/>
<path d="M145.04 86.2382C146.569 86.9281 147.965 87.1408 148.157 86.7132C148.35 86.2855 147.267 85.3797 145.738 84.6898C144.209 83.9999 142.813 83.7872 142.621 84.2149C142.428 84.6425 143.511 85.5484 145.04 86.2382Z" fill="#2E2E2E"/>
<path d="M145.67 89.9993L146.399 88.2659L146.982 86.877L147.474 85.7052L148.554 83.1338C149.123 81.7807 148.584 80.2734 147.382 79.8518C147.172 79.7782 146.957 79.7441 146.743 79.7441C146.724 79.7441 146.704 79.7441 146.684 79.746C145.749 79.773 144.841 80.4602 144.472 81.5171L143.594 84.0221L143.201 85.1454L141.504 89.9995" fill="#F5F5FF"/>
<path d="M145.67 89.9993L146.399 88.2659L146.982 86.877L147.474 85.7052L148.554 83.1338C149.123 81.7807 148.584 80.2734 147.382 79.8518C147.172 79.7782 146.957 79.7441 146.743 79.7441C146.724 79.7441 146.704 79.7441 146.684 79.746C145.749 79.773 144.841 80.4602 144.472 81.5171L143.594 84.0221L143.201 85.1454L141.504 89.9995" stroke="#2E2E2E" stroke-width="0.535" stroke-miterlimit="10" stroke-linecap="round" stroke-linejoin="round"/>
<path d="M142.654 84.1631C142.936 83.8062 144.276 84.031 145.738 84.689C147.267 85.3795 148.351 86.2856 148.157 86.7142C148.152 86.7235 148.148 86.7305 148.141 86.7397L148.157 86.7468L149.846 82.7868C150.509 81.232 149.793 79.4593 148.286 78.9334C148.002 78.8338 147.712 78.7852 147.422 78.7852C146.391 78.7852 145.402 79.3969 144.894 80.3886L142.654 84.1631Z" fill="#2E2E2E"/>
<path d="M160.496 86.2382C158.967 86.9281 157.571 87.1408 157.378 86.7132C157.185 86.2855 158.268 85.3797 159.797 84.6898C161.326 83.9999 162.722 83.7872 162.915 84.2149C163.108 84.6425 162.025 85.5484 160.496 86.2382Z" fill="#2E2E2E"/>
<path d="M164.023 89.9995L162.326 85.1473L161.933 84.0221L161.056 81.5171C160.679 80.4386 159.74 79.7441 158.786 79.7441H158.773C158.563 79.746 158.353 79.78 158.147 79.8518C156.945 80.2734 156.404 81.7809 156.973 83.1338L158.053 85.7052V85.7071L158.545 86.877L159.069 88.124L159.857 89.9993" fill="#F5F5FF"/>
<path d="M164.023 89.9995L162.326 85.1473L161.933 84.0221L161.056 81.5171C160.679 80.4386 159.74 79.7441 158.786 79.7441H158.773C158.563 79.746 158.353 79.78 158.147 79.8518C156.945 80.2734 156.404 81.7809 156.973 83.1338L158.053 85.7052V85.7071L158.545 86.877L159.069 88.124L159.857 89.9993" stroke="#2E2E2E" stroke-width="0.535" stroke-miterlimit="10" stroke-linecap="round" stroke-linejoin="round"/>
<path d="M162.875 84.1631C162.592 83.8062 161.253 84.031 159.791 84.689C158.262 85.3795 157.177 86.2856 157.372 86.7142C157.376 86.7235 157.381 86.7305 157.388 86.7397L157.372 86.7468L155.683 82.7868C155.02 81.232 155.736 79.4593 157.242 78.9334C157.527 78.8338 157.817 78.7852 158.106 78.7852C159.138 78.7852 160.127 79.3969 160.634 80.3886L162.875 84.1631Z" fill="#2E2E2E"/>
<path d="M150.057 70.8875C150.472 71.5538 150.432 72.3431 149.968 72.6503C149.503 72.9575 148.791 72.6667 148.376 72.0004C147.961 71.3341 148.001 70.5451 148.465 70.2377C148.93 69.9305 149.642 70.2213 150.057 70.8875Z" fill="#F5F5FF" stroke="#2E2E2E" stroke-width="0.535" stroke-miterlimit="10" stroke-linecap="round" stroke-linejoin="round"/>
<path d="M148.82 70.5586C148.619 70.6371 148.466 70.8281 148.434 71.0414C148.401 71.2547 148.49 71.4826 148.659 71.6177" stroke="#2E2E2E" stroke-width="0.535" stroke-miterlimit="10" stroke-linecap="round" stroke-linejoin="round"/>
<path d="M155.657 70.8875C155.242 71.5538 155.282 72.3431 155.747 72.6503C156.211 72.9575 156.923 72.6667 157.338 72.0004C157.753 71.3341 157.713 70.5451 157.249 70.2377C156.784 69.9305 156.072 70.2213 155.657 70.8875Z" fill="#F5F5FF" stroke="#2E2E2E" stroke-width="0.535" stroke-miterlimit="10" stroke-linecap="round" stroke-linejoin="round"/>
<path d="M156.904 70.5586C157.105 70.6371 157.258 70.8281 157.29 71.0414C157.323 71.2547 157.234 71.4826 157.065 71.6177" stroke="#2E2E2E" stroke-width="0.535" stroke-miterlimit="10" stroke-linecap="round" stroke-linejoin="round"/>
<path d="M150.798 78.3544C150.76 79.481 151.662 80.4126 152.789 80.4126C153.893 80.4126 154.781 79.5166 154.781 78.4218C154.781 78.3993 154.781 78.3768 154.779 78.3544L154.558 75.3852L154.502 74.6335L154.391 73.1582H151.188L151.011 75.4901L150.886 77.1866L150.798 78.3544Z" fill="#F5F5FF" stroke="#2E2E2E" stroke-width="0.5589" stroke-miterlimit="10" stroke-linecap="round" stroke-linejoin="round"/>
<path d="M150.892 77.1866C151.943 77.2616 153.102 76.7387 153.897 75.7226C154.165 75.3815 154.369 75.0122 154.508 74.6335L154.397 73.1582H151.193L151.017 75.4901L150.892 77.1866Z" fill="#2E2E2E"/>
<path d="M149.348 72.7207C149.472 73.0418 149.653 73.3756 149.871 73.7004C150.289 74.3231 150.842 74.9081 151.394 75.2795C152.001 75.6869 152.796 75.8197 153.486 75.5827C154.03 75.3979 154.479 75.0085 154.879 74.5976C155.379 74.0845 155.837 73.5102 156.094 72.8391C156.291 72.3187 156.377 71.7391 156.401 71.1469C156.411 70.8365 156.406 70.5242 156.392 70.212C156.366 69.6988 156.318 69.191 156.273 68.7207C156.171 67.6082 155.496 66.5513 154.534 65.9841C153.591 65.4297 152.386 65.3472 151.376 65.7688C150.366 66.1904 149.576 67.1056 149.309 68.1661C149.13 68.8786 149.176 69.6161 149.175 70.3409C149.175 70.3857 149.175 70.4288 149.173 70.4738C149.169 70.6909 149.158 70.908 149.155 71.127C149.138 71.6692 149.149 72.2093 149.348 72.7207Z" fill="#F5F5FF" stroke="#2E2E2E" stroke-width="0.535" stroke-miterlimit="10" stroke-linecap="round" stroke-linejoin="round"/>
<path d="M153.34 69.146C153.031 69.1604 152.713 69.1165 152.444 68.9677C152.174 68.819 151.96 68.5545 151.923 68.2511C151.72 68.6521 151.335 68.9587 150.895 69.0692C150.456 69.1797 149.97 69.092 149.599 68.8354C149.138 68.5163 148.872 67.8944 149.073 67.3727C149.294 66.7971 149.956 66.5273 150.564 66.3953C151.748 66.1382 152.992 66.1711 154.162 66.475C154.523 66.5687 155.528 66.753 155.666 67.1448C155.806 67.5466 155.232 68.1899 154.969 68.4358C154.53 68.8477 153.947 69.1175 153.34 69.146Z" fill="#2E2E2E"/>
<path d="M151.862 69.5583C151.706 69.4646 151.536 69.4002 151.356 69.352C151.175 69.3057 150.984 69.2792 150.787 69.2863C150.59 69.2927 150.386 69.3378 150.207 69.432C150.028 69.5248 149.88 69.6697 149.801 69.8436C149.982 69.7839 150.145 69.7525 150.301 69.7476C150.457 69.7426 150.606 69.7626 150.757 69.7897C151.06 69.8436 151.367 69.9487 151.713 69.9918C151.842 70.0077 151.959 69.9167 151.975 69.7884C151.987 69.6936 151.939 69.6046 151.862 69.5583Z" fill="#2E2E2E"/>
<path d="M153.478 69.9918C153.825 69.9487 154.132 69.8437 154.435 69.7897C154.586 69.7626 154.735 69.7424 154.891 69.7476C155.046 69.7525 155.21 69.7839 155.391 69.8436C155.312 69.6697 155.164 69.5249 154.985 69.432C154.806 69.3378 154.602 69.2927 154.405 69.2863C154.208 69.2792 154.016 69.3057 153.836 69.352C153.656 69.4002 153.486 69.4646 153.33 69.5583C153.219 69.6245 153.182 69.7683 153.248 69.8795C153.297 69.9613 153.389 70.0024 153.478 69.9918Z" fill="#2E2E2E"/>
<path d="M153.508 71.1532C153.578 71.0975 153.644 71.0383 153.711 70.9812C153.776 70.9282 153.841 70.8773 153.916 70.8425C154.058 70.7621 154.221 70.7272 154.381 70.7219C154.541 70.7205 154.701 70.7522 154.847 70.8178C154.921 70.8493 154.99 70.8918 155.057 70.9389C155.127 70.9924 155.197 71.0467 155.294 71.0682C155.316 71.0731 155.338 71.0591 155.343 71.037C155.345 71.0283 155.344 71.0194 155.34 71.0117C155.301 70.9208 155.234 70.8626 155.168 70.8035C155.097 70.7425 155.02 70.6815 154.933 70.6402C154.762 70.5483 154.564 70.5131 154.372 70.5231C154.18 70.5374 153.991 70.5983 153.833 70.7054C153.753 70.7574 153.685 70.8252 153.622 70.8938C153.566 70.9629 153.51 71.031 153.456 71.1021C153.444 71.1183 153.447 71.1415 153.463 71.1537C153.477 71.1643 153.495 71.1634 153.508 71.1532Z" fill="#2E2E2E"/>
<path d="M154.081 70.8793C154.106 70.7106 154.262 70.5939 154.431 70.6185C154.6 70.6432 154.717 70.8 154.692 70.9689C154.667 71.1376 154.511 71.2543 154.342 71.2296C154.173 71.2048 154.056 71.048 154.081 70.8793Z" fill="#2E2E2E"/>
<path d="M153.515 71.1348C153.658 71.2247 153.828 71.2756 154.008 71.2825" stroke="#2E2E2E" stroke-width="0.5006" stroke-miterlimit="10" stroke-linecap="round" stroke-linejoin="round"/>
<path d="M153.497 70.759C153.685 70.5357 153.966 70.3934 154.258 70.375" stroke="#2E2E2E" stroke-width="0.5006" stroke-miterlimit="10" stroke-linecap="round" stroke-linejoin="round"/>
<path d="M151.93 71.102C151.876 71.0309 151.82 70.963 151.764 70.8937C151.701 70.8251 151.633 70.7574 151.553 70.7054C151.395 70.5982 151.206 70.5374 151.014 70.5231C150.822 70.5132 150.624 70.5483 150.453 70.6402C150.366 70.6814 150.29 70.7425 150.218 70.8035C150.152 70.8624 150.085 70.9206 150.046 71.0116C150.037 71.0324 150.046 71.0566 150.067 71.0656C150.075 71.0691 150.084 71.0698 150.092 71.068C150.189 71.0465 150.259 70.9922 150.329 70.9387C150.397 70.8917 150.465 70.8491 150.539 70.8176C150.686 70.7519 150.845 70.7203 151.006 70.7217C151.165 70.727 151.328 70.7619 151.471 70.8422C151.545 70.8771 151.611 70.9279 151.675 70.9809C151.742 71.0381 151.808 71.0973 151.878 71.153C151.893 71.1657 151.917 71.1632 151.929 71.1475C151.94 71.1341 151.94 71.1153 151.93 71.102Z" fill="#2E2E2E"/>
<path d="M151.301 70.8793C151.277 70.7106 151.12 70.5939 150.951 70.6185C150.782 70.6432 150.666 70.8 150.69 70.9689C150.715 71.1376 150.872 71.2543 151.04 71.2296C151.209 71.2048 151.326 71.048 151.301 70.8793Z" fill="#2E2E2E"/>
<path d="M151.867 71.1328C151.724 71.2227 151.554 71.2737 151.374 71.2806" stroke="#2E2E2E" stroke-width="0.5006" stroke-miterlimit="10" stroke-linecap="round" stroke-linejoin="round"/>
<path d="M151.883 70.759C151.695 70.5357 151.413 70.3934 151.122 70.375" stroke="#2E2E2E" stroke-width="0.5006" stroke-miterlimit="10" stroke-linecap="round" stroke-linejoin="round"/>
<path d="M152.906 73.4337C152.852 73.486 152.777 73.5162 152.702 73.5161C152.627 73.5161 152.552 73.4857 152.498 73.4336C152.413 73.3517 152.26 73.4019 152.144 73.4188C152.027 73.4357 151.908 73.4592 151.793 73.4342C151.71 73.4164 151.635 73.3673 151.589 73.2969" stroke="#2E2E2E" stroke-width="0.4456" stroke-miterlimit="10" stroke-linecap="round" stroke-linejoin="round"/>
<path d="M152.903 73.4331C152.988 73.3513 153.141 73.4014 153.258 73.4184C153.374 73.4353 153.493 73.4588 153.609 73.4338C153.701 73.4138 153.785 73.3463 153.812 73.2559" stroke="#2E2E2E" stroke-width="0.4456" stroke-miterlimit="10" stroke-linecap="round" stroke-linejoin="round"/>
<path d="M153.242 73.7656C152.943 73.8696 152.613 73.8835 152.306 73.805" stroke="#2E2E2E" stroke-width="0.4456" stroke-miterlimit="10" stroke-linecap="round" stroke-linejoin="round"/>
<path d="M152.719 74.7812V75.3369" stroke="#2E2E2E" stroke-width="0.535" stroke-miterlimit="10" stroke-linecap="round" stroke-linejoin="round"/>
<path d="M152.695 72.2893V71.1055" stroke="#2E2E2E" stroke-width="0.535" stroke-miterlimit="10" stroke-linecap="round" stroke-linejoin="round"/>
<path d="M153.094 72.5215L152.894 72.6583C152.765 72.7469 152.624 72.7469 152.495 72.6583L152.295 72.5215" stroke="#2E2E2E" stroke-width="0.5731" stroke-miterlimit="10" stroke-linecap="round" stroke-linejoin="round"/>
<path d="M149.174 70.3411C149.265 70.3034 149.346 70.2407 149.41 70.1652C149.518 70.0414 149.583 69.8871 149.636 69.731C149.877 69.0419 149.888 68.229 149.76 67.5094C150.577 67.522 151.366 67.0142 151.727 66.2803C152.669 66.8815 153.756 67.1309 154.871 67.0752C154.912 68.2703 155.488 69.4332 156.391 70.212C156.365 69.6988 156.317 69.191 156.272 68.7207C156.17 67.6082 155.495 66.5513 154.533 65.9841C153.59 65.4297 152.385 65.3472 151.375 65.7688C150.365 66.1904 149.575 67.1056 149.308 68.1661C149.129 68.8786 149.175 69.6161 149.174 70.3411Z" fill="#2E2E2E"/>
<path d="M156.664 67.4851C156.412 66.0306 155.03 64.2462 153.364 64.024C151.699 63.8018 149.884 65.1601 149.158 66.4841C151.602 67.2528 154.081 67.6969 156.664 67.4851Z" fill="#F5F5FF" stroke="#2E2E2E" stroke-width="0.5756" stroke-miterlimit="10" stroke-linecap="round" stroke-linejoin="round"/>
<path d="M148.803 66.9856C149.866 67.793 151.294 68.1567 152.7 68.3264C154.107 68.4962 155.536 68.4957 156.937 68.692C157.118 68.4618 157.194 68.2476 157.154 67.9719C157.113 67.6962 156.954 67.4339 156.712 67.2471C154.094 67.0886 151.505 66.6697 149.058 65.8496C148.937 65.8513 148.569 66.6058 148.803 66.9856Z" fill="#F5F5FF" stroke="#2E2E2E" stroke-width="0.4995" stroke-miterlimit="10" stroke-linecap="round" stroke-linejoin="round"/>
<path d="M156.218 68.5938C156.353 68.2485 156.313 67.8403 156.114 67.5273" stroke="#2E2E2E" stroke-width="0.535" stroke-miterlimit="10" stroke-linecap="round" stroke-linejoin="round"/>
<path d="M149.891 66.459C149.673 66.7347 149.532 67.0696 149.485 67.4176" stroke="#2E2E2E" stroke-width="0.535" stroke-miterlimit="10" stroke-linecap="round" stroke-linejoin="round"/>
<path d="M151.32 66.9316C151.117 67.2583 150.991 67.6333 150.958 68.0167" stroke="#2E2E2E" stroke-width="0.535" stroke-miterlimit="10" stroke-linecap="round" stroke-linejoin="round"/>
<path d="M155.106 67.4902C155.192 67.8372 155.116 68.2203 154.905 68.509" stroke="#2E2E2E" stroke-width="0.535" stroke-miterlimit="10" stroke-linecap="round" stroke-linejoin="round"/>
<path d="M153.195 67.332C153.074 67.6599 153.012 68.0091 153.011 68.3586" stroke="#2E2E2E" stroke-width="0.535" stroke-miterlimit="10" stroke-linecap="round" stroke-linejoin="round"/>
<path d="M154.026 67.6016C154.059 67.9123 153.94 68.236 153.714 68.4517C153.709 68.433 153.704 68.4144 153.698 68.3958" stroke="#2E2E2E" stroke-width="0.535" stroke-miterlimit="10" stroke-linecap="round" stroke-linejoin="round"/>
<path d="M152.055 67.3848C151.984 67.6368 151.973 67.9052 152.021 68.1622" stroke="#2E2E2E" stroke-width="0.535" stroke-miterlimit="10" stroke-linecap="round" stroke-linejoin="round"/>
<path d="M146.345 89.9988H159.141L159.074 88.1236L159.028 86.7707L158.968 85.1091L158.778 79.7435L158.75 78.9451L158.337 78.7961L155.938 77.9294L155.475 77.7626L155.245 77.6782L154.646 77.4629L154.464 77.3965H151.001L150.929 77.4233L150.256 77.6656L150.029 77.7482L149.566 77.915L147.096 78.8069L146.716 78.9451L146.689 79.7454L146.587 82.7672L146.51 85.0767L146.454 86.7474V86.7563L146.404 88.2654L146.345 89.9988Z" fill="#2E2E2E"/>
</g>
<path d="M152.5 59.5C159.404 59.5 165 65.0964 165 72C165 78.9036 159.404 84.5 152.5 84.5C145.596 84.5 140 78.9036 140 72C140 65.0964 145.596 59.5 152.5 59.5Z" stroke="white"/>
<path d="M117.187 100.814V111H115.669V102.359H115.601L113.181 103.952V102.476L115.71 100.814H117.187ZM122.231 111.137C121.448 111.137 120.775 110.932 120.215 110.521C119.659 110.111 119.233 109.519 118.937 108.744C118.645 107.965 118.499 107.021 118.499 105.914C118.499 104.811 118.647 103.87 118.943 103.091C119.24 102.307 119.666 101.71 120.222 101.3C120.782 100.885 121.452 100.678 122.231 100.678C123.015 100.678 123.685 100.885 124.241 101.3C124.802 101.71 125.228 102.307 125.52 103.091C125.816 103.87 125.964 104.811 125.964 105.914C125.964 107.021 125.818 107.965 125.526 108.744C125.235 109.519 124.811 110.111 124.255 110.521C123.699 110.932 123.024 111.137 122.231 111.137ZM122.231 109.824C122.71 109.824 123.113 109.672 123.441 109.366C123.77 109.061 124.02 108.617 124.193 108.033C124.367 107.445 124.453 106.739 124.453 105.914C124.453 105.085 124.367 104.378 124.193 103.795C124.02 103.207 123.77 102.76 123.441 102.455C123.113 102.145 122.71 101.99 122.231 101.99C121.525 101.99 120.978 102.334 120.591 103.022C120.208 103.706 120.017 104.67 120.017 105.914C120.017 106.739 120.103 107.445 120.276 108.033C120.45 108.617 120.7 109.061 121.028 109.366C121.361 109.672 121.762 109.824 122.231 109.824ZM130.694 111.137C129.91 111.137 129.238 110.932 128.678 110.521C128.122 110.111 127.696 109.519 127.399 108.744C127.108 107.965 126.962 107.021 126.962 105.914C126.962 104.811 127.11 103.87 127.406 103.091C127.702 102.307 128.129 101.71 128.685 101.3C129.245 100.885 129.915 100.678 130.694 100.678C131.478 100.678 132.148 100.885 132.704 101.3C133.265 101.71 133.691 102.307 133.982 103.091C134.279 103.87 134.427 104.811 134.427 105.914C134.427 107.021 134.281 107.965 133.989 108.744C133.698 109.519 133.274 110.111 132.718 110.521C132.162 110.932 131.487 111.137 130.694 111.137ZM130.694 109.824C131.173 109.824 131.576 109.672 131.904 109.366C132.232 109.061 132.483 108.617 132.656 108.033C132.829 107.445 132.916 106.739 132.916 105.914C132.916 105.085 132.829 104.378 132.656 103.795C132.483 103.207 132.232 102.76 131.904 102.455C131.576 102.145 131.173 101.99 130.694 101.99C129.988 101.99 129.441 102.334 129.054 103.022C128.671 103.706 128.479 104.67 128.479 105.914C128.479 106.739 128.566 107.445 128.739 108.033C128.912 108.617 129.163 109.061 129.491 109.366C129.824 109.672 130.225 109.824 130.694 109.824ZM135.753 111V100.814H137.291V105.682H137.414L141.693 100.814H143.614L139.513 105.395L143.635 111H141.782L138.487 106.454L137.291 107.842V111H135.753ZM146.137 110.351V103.631H147.47V110.351H146.137ZM143.437 107.664V106.317H150.163V107.664H143.437Z" fill="white"/>
<path d="M97.9336 133.152C97.3086 133.152 96.7676 133.053 96.3105 132.854C95.8535 132.65 95.4941 132.369 95.2324 132.01C94.9746 131.646 94.8281 131.227 94.793 130.75H95.8828C95.9141 131.078 96.0254 131.35 96.2168 131.564C96.4121 131.779 96.6602 131.939 96.9609 132.045C97.2617 132.15 97.5859 132.203 97.9336 132.203C98.3359 132.203 98.6973 132.137 99.0176 132.004C99.3418 131.871 99.5977 131.686 99.7852 131.447C99.9727 131.209 100.066 130.93 100.066 130.609C100.066 130.32 99.9844 130.086 99.8203 129.906C99.6562 129.727 99.4414 129.58 99.1758 129.467C98.9141 129.354 98.6289 129.254 98.3203 129.168L97.2539 128.863C96.5703 128.668 96.0293 128.389 95.6309 128.025C95.2363 127.658 95.0391 127.18 95.0391 126.59C95.0391 126.102 95.1699 125.676 95.4316 125.312C95.6973 124.945 96.0547 124.66 96.5039 124.457C96.957 124.254 97.4609 124.152 98.0156 124.152C98.5781 124.152 99.0781 124.254 99.5156 124.457C99.9531 124.656 100.301 124.93 100.559 125.277C100.816 125.621 100.953 126.012 100.969 126.449H99.9375C99.8867 126.02 99.6797 125.686 99.3164 125.447C98.957 125.209 98.5117 125.09 97.9805 125.09C97.5977 125.09 97.2617 125.152 96.9727 125.277C96.6836 125.402 96.459 125.574 96.2988 125.793C96.1387 126.012 96.0586 126.262 96.0586 126.543C96.0586 126.852 96.1543 127.102 96.3457 127.293C96.5371 127.48 96.7637 127.627 97.0254 127.732C97.291 127.838 97.5312 127.922 97.7461 127.984L98.625 128.23C98.8516 128.293 99.1035 128.377 99.3809 128.482C99.6621 128.588 99.9316 128.73 100.189 128.91C100.451 129.09 100.666 129.32 100.834 129.602C101.002 129.879 101.086 130.223 101.086 130.633C101.086 131.102 100.963 131.527 100.717 131.91C100.471 132.289 100.113 132.592 99.6445 132.818C99.1758 133.041 98.6055 133.152 97.9336 133.152ZM104.051 133.152C103.637 133.152 103.26 133.074 102.92 132.918C102.58 132.758 102.311 132.527 102.111 132.227C101.912 131.926 101.812 131.562 101.812 131.137C101.812 130.762 101.887 130.459 102.035 130.229C102.184 129.994 102.381 129.811 102.627 129.678C102.877 129.541 103.15 129.439 103.447 129.373C103.748 129.307 104.051 129.254 104.355 129.215C104.754 129.164 105.076 129.125 105.322 129.098C105.572 129.07 105.754 129.023 105.867 128.957C105.984 128.891 106.043 128.777 106.043 128.617V128.582C106.043 128.164 105.928 127.84 105.697 127.609C105.471 127.375 105.125 127.258 104.66 127.258C104.184 127.258 103.809 127.363 103.535 127.574C103.262 127.781 103.07 128.004 102.961 128.242L102 127.902C102.172 127.504 102.4 127.193 102.686 126.971C102.975 126.748 103.287 126.592 103.623 126.502C103.963 126.412 104.297 126.367 104.625 126.367C104.836 126.367 105.078 126.393 105.352 126.443C105.625 126.49 105.891 126.592 106.148 126.748C106.41 126.9 106.625 127.133 106.793 127.445C106.965 127.754 107.051 128.168 107.051 128.688V133H106.043V132.109H105.996C105.93 132.25 105.816 132.402 105.656 132.566C105.496 132.727 105.283 132.865 105.018 132.982C104.756 133.096 104.434 133.152 104.051 133.152ZM104.203 132.25C104.602 132.25 104.938 132.172 105.211 132.016C105.484 131.859 105.691 131.658 105.832 131.412C105.973 131.162 106.043 130.902 106.043 130.633V129.707C106 129.758 105.906 129.805 105.762 129.848C105.621 129.887 105.457 129.922 105.27 129.953C105.086 129.984 104.906 130.012 104.73 130.035C104.555 130.055 104.414 130.07 104.309 130.082C104.047 130.117 103.803 130.174 103.576 130.252C103.35 130.326 103.166 130.438 103.025 130.586C102.889 130.734 102.82 130.938 102.82 131.195C102.82 131.543 102.949 131.807 103.207 131.986C103.469 132.162 103.801 132.25 104.203 132.25ZM111.176 126.449V127.305H107.789V126.449H111.176ZM108.773 124.891H109.77V131.125C109.77 131.465 109.84 131.715 109.98 131.875C110.121 132.031 110.344 132.109 110.648 132.109C110.715 132.109 110.783 132.105 110.854 132.098C110.928 132.09 111.008 132.078 111.094 132.062L111.305 132.965C111.211 133 111.096 133.027 110.959 133.047C110.826 133.07 110.691 133.082 110.555 133.082C110.027 133.082 109.598 132.926 109.266 132.613C108.938 132.301 108.773 131.895 108.773 131.395V124.891ZM112.137 133V126.449H113.133V133H112.137ZM112.641 125.359C112.445 125.359 112.277 125.293 112.137 125.16C111.996 125.027 111.926 124.867 111.926 124.68C111.926 124.492 111.996 124.332 112.137 124.199C112.277 124.066 112.445 124 112.641 124C112.836 124 113.004 124.066 113.145 124.199C113.285 124.332 113.355 124.492 113.355 124.68C113.355 124.867 113.285 125.027 113.145 125.16C113.004 125.293 112.836 125.359 112.641 125.359ZM119.051 127.926L118.148 128.172C118.062 127.949 117.914 127.738 117.703 127.539C117.496 127.336 117.172 127.234 116.73 127.234C116.332 127.234 116 127.328 115.734 127.516C115.469 127.699 115.336 127.93 115.336 128.207C115.336 128.457 115.426 128.656 115.605 128.805C115.789 128.953 116.074 129.074 116.461 129.168L117.434 129.402C118.016 129.543 118.449 129.76 118.734 130.053C119.023 130.346 119.168 130.719 119.168 131.172C119.168 131.547 119.061 131.883 118.846 132.18C118.631 132.477 118.332 132.711 117.949 132.883C117.566 133.055 117.121 133.141 116.613 133.141C115.945 133.141 115.393 132.994 114.955 132.701C114.521 132.408 114.246 131.984 114.129 131.43L115.078 131.195C115.168 131.547 115.34 131.811 115.594 131.986C115.852 132.162 116.188 132.25 116.602 132.25C117.066 132.25 117.438 132.15 117.715 131.951C117.996 131.748 118.137 131.508 118.137 131.23C118.137 130.77 117.812 130.461 117.164 130.305L116.074 130.047C115.473 129.902 115.031 129.682 114.75 129.385C114.469 129.088 114.328 128.715 114.328 128.266C114.328 127.895 114.432 127.566 114.639 127.281C114.85 126.996 115.137 126.773 115.5 126.613C115.863 126.449 116.273 126.367 116.73 126.367C117.383 126.367 117.893 126.512 118.26 126.801C118.631 127.086 118.895 127.461 119.051 127.926ZM123.035 126.449V127.305H119.508V126.449H123.035ZM120.562 133V125.547C120.562 125.172 120.65 124.859 120.826 124.609C121.006 124.359 121.236 124.172 121.518 124.047C121.799 123.922 122.094 123.859 122.402 123.859C122.652 123.859 122.855 123.881 123.012 123.924C123.172 123.963 123.289 124 123.363 124.035L123.07 124.902C123.02 124.883 122.949 124.861 122.859 124.838C122.773 124.811 122.656 124.797 122.508 124.797C122.176 124.797 121.934 124.883 121.781 125.055C121.633 125.223 121.559 125.469 121.559 125.793V133H120.562ZM123.891 133V126.449H124.887V133H123.891ZM124.395 125.359C124.199 125.359 124.031 125.293 123.891 125.16C123.75 125.027 123.68 124.867 123.68 124.68C123.68 124.492 123.75 124.332 123.891 124.199C124.031 124.066 124.199 124 124.395 124C124.59 124 124.758 124.066 124.898 124.199C125.039 124.332 125.109 124.492 125.109 124.68C125.109 124.867 125.039 125.027 124.898 125.16C124.758 125.293 124.59 125.359 124.395 125.359ZM128.918 133.141C128.289 133.141 127.744 133 127.283 132.719C126.826 132.438 126.475 132.045 126.229 131.541C125.982 131.033 125.859 130.445 125.859 129.777C125.859 129.105 125.98 128.514 126.223 128.002C126.465 127.49 126.805 127.09 127.242 126.801C127.684 126.512 128.199 126.367 128.789 126.367C129.129 126.367 129.467 126.424 129.803 126.537C130.139 126.65 130.443 126.834 130.717 127.088C130.994 127.342 131.215 127.678 131.379 128.096C131.543 128.514 131.625 129.027 131.625 129.637V130.07H126.574V129.203H131.08L130.617 129.531C130.617 129.094 130.549 128.705 130.412 128.365C130.275 128.025 130.07 127.758 129.797 127.562C129.527 127.367 129.191 127.27 128.789 127.27C128.387 127.27 128.041 127.369 127.752 127.568C127.467 127.764 127.248 128.02 127.096 128.336C126.943 128.652 126.867 128.992 126.867 129.355V129.93C126.867 130.426 126.953 130.846 127.125 131.189C127.297 131.533 127.537 131.795 127.846 131.975C128.154 132.15 128.512 132.238 128.918 132.238C129.18 132.238 129.418 132.201 129.633 132.127C129.848 132.049 130.033 131.934 130.189 131.781C130.346 131.625 130.465 131.434 130.547 131.207L131.52 131.488C131.418 131.816 131.246 132.105 131.004 132.355C130.766 132.602 130.469 132.795 130.113 132.936C129.758 133.072 129.359 133.141 128.918 133.141ZM135.035 133.141C134.488 133.141 134.006 133.002 133.588 132.725C133.17 132.447 132.844 132.055 132.609 131.547C132.375 131.035 132.258 130.434 132.258 129.742C132.258 129.055 132.375 128.459 132.609 127.955C132.848 127.447 133.176 127.057 133.594 126.783C134.012 126.506 134.496 126.367 135.047 126.367C135.477 126.367 135.814 126.438 136.061 126.578C136.311 126.719 136.502 126.879 136.635 127.059C136.768 127.234 136.871 127.379 136.945 127.492H137.027V124.27H138.023V133H137.062V131.992H136.945C136.871 132.109 136.766 132.26 136.629 132.443C136.492 132.623 136.297 132.785 136.043 132.93C135.793 133.07 135.457 133.141 135.035 133.141ZM135.164 132.238C135.57 132.238 135.912 132.133 136.189 131.922C136.467 131.707 136.678 131.412 136.822 131.037C136.967 130.658 137.039 130.223 137.039 129.73C137.039 129.238 136.969 128.809 136.828 128.441C136.688 128.07 136.477 127.783 136.195 127.58C135.918 127.373 135.574 127.27 135.164 127.27C134.742 127.27 134.391 127.379 134.109 127.598C133.828 127.816 133.617 128.111 133.477 128.482C133.336 128.854 133.266 129.27 133.266 129.73C133.266 130.195 133.336 130.617 133.477 130.996C133.621 131.375 133.834 131.678 134.115 131.904C134.396 132.127 134.746 132.238 135.164 132.238ZM146.25 130.328V126.449H147.246V133H146.25V131.887H146.18C146.023 132.219 145.783 132.502 145.459 132.736C145.139 132.971 144.73 133.086 144.234 133.082C143.824 133.082 143.461 132.994 143.145 132.818C142.828 132.639 142.578 132.365 142.395 131.998C142.215 131.631 142.125 131.168 142.125 130.609V126.449H143.121V130.551C143.121 131.023 143.256 131.402 143.525 131.688C143.799 131.973 144.145 132.113 144.562 132.109C144.812 132.109 145.066 132.047 145.324 131.922C145.586 131.793 145.805 131.598 145.98 131.336C146.16 131.07 146.25 130.734 146.25 130.328ZM153.164 127.926L152.262 128.172C152.176 127.949 152.027 127.738 151.816 127.539C151.609 127.336 151.285 127.234 150.844 127.234C150.445 127.234 150.113 127.328 149.848 127.516C149.582 127.699 149.449 127.93 149.449 128.207C149.449 128.457 149.539 128.656 149.719 128.805C149.902 128.953 150.188 129.074 150.574 129.168L151.547 129.402C152.129 129.543 152.562 129.76 152.848 130.053C153.137 130.346 153.281 130.719 153.281 131.172C153.281 131.547 153.174 131.883 152.959 132.18C152.744 132.477 152.445 132.711 152.062 132.883C151.68 133.055 151.234 133.141 150.727 133.141C150.059 133.141 149.506 132.994 149.068 132.701C148.635 132.408 148.359 131.984 148.242 131.43L149.191 131.195C149.281 131.547 149.453 131.811 149.707 131.986C149.965 132.162 150.301 132.25 150.715 132.25C151.18 132.25 151.551 132.15 151.828 131.951C152.109 131.748 152.25 131.508 152.25 131.23C152.25 130.77 151.926 130.461 151.277 130.305L150.188 130.047C149.586 129.902 149.145 129.682 148.863 129.385C148.582 129.088 148.441 128.715 148.441 128.266C148.441 127.895 148.545 127.566 148.752 127.281C148.963 126.996 149.25 126.773 149.613 126.613C149.977 126.449 150.387 126.367 150.844 126.367C151.496 126.367 152.006 126.512 152.373 126.801C152.744 127.086 153.008 127.461 153.164 127.926ZM156.984 133.141C156.355 133.141 155.811 133 155.35 132.719C154.893 132.438 154.541 132.045 154.295 131.541C154.049 131.033 153.926 130.445 153.926 129.777C153.926 129.105 154.047 128.514 154.289 128.002C154.531 127.49 154.871 127.09 155.309 126.801C155.75 126.512 156.266 126.367 156.855 126.367C157.195 126.367 157.533 126.424 157.869 126.537C158.205 126.65 158.51 126.834 158.783 127.088C159.061 127.342 159.281 127.678 159.445 128.096C159.609 128.514 159.691 129.027 159.691 129.637V130.07H154.641V129.203H159.146L158.684 129.531C158.684 129.094 158.615 128.705 158.479 128.365C158.342 128.025 158.137 127.758 157.863 127.562C157.594 127.367 157.258 127.27 156.855 127.27C156.453 127.27 156.107 127.369 155.818 127.568C155.533 127.764 155.314 128.02 155.162 128.336C155.01 128.652 154.934 128.992 154.934 129.355V129.93C154.934 130.426 155.02 130.846 155.191 131.189C155.363 131.533 155.604 131.795 155.912 131.975C156.221 132.15 156.578 132.238 156.984 132.238C157.246 132.238 157.484 132.201 157.699 132.127C157.914 132.049 158.1 131.934 158.256 131.781C158.412 131.625 158.531 131.434 158.613 131.207L159.586 131.488C159.484 131.816 159.312 132.105 159.07 132.355C158.832 132.602 158.535 132.795 158.18 132.936C157.824 133.072 157.426 133.141 156.984 133.141ZM160.641 133V126.449H161.602V127.445H161.672C161.793 127.121 162.01 126.859 162.322 126.66C162.639 126.457 162.992 126.355 163.383 126.355C163.457 126.355 163.549 126.357 163.658 126.361C163.768 126.361 163.852 126.363 163.91 126.367V127.387C163.875 127.379 163.797 127.367 163.676 127.352C163.555 127.336 163.426 127.328 163.289 127.328C162.973 127.328 162.689 127.395 162.439 127.527C162.189 127.66 161.992 127.842 161.848 128.072C161.707 128.303 161.637 128.566 161.637 128.863V133H160.641ZM169.172 127.926L168.27 128.172C168.184 127.949 168.035 127.738 167.824 127.539C167.617 127.336 167.293 127.234 166.852 127.234C166.453 127.234 166.121 127.328 165.855 127.516C165.59 127.699 165.457 127.93 165.457 128.207C165.457 128.457 165.547 128.656 165.727 128.805C165.91 128.953 166.195 129.074 166.582 129.168L167.555 129.402C168.137 129.543 168.57 129.76 168.855 130.053C169.145 130.346 169.289 130.719 169.289 131.172C169.289 131.547 169.182 131.883 168.967 132.18C168.752 132.477 168.453 132.711 168.07 132.883C167.688 133.055 167.242 133.141 166.734 133.141C166.066 133.141 165.514 132.994 165.076 132.701C164.643 132.408 164.367 131.984 164.25 131.43L165.199 131.195C165.289 131.547 165.461 131.811 165.715 131.986C165.973 132.162 166.309 132.25 166.723 132.25C167.188 132.25 167.559 132.15 167.836 131.951C168.117 131.748 168.258 131.508 168.258 131.23C168.258 130.77 167.934 130.461 167.285 130.305L166.195 130.047C165.594 129.902 165.152 129.682 164.871 129.385C164.59 129.088 164.449 128.715 164.449 128.266C164.449 127.895 164.553 127.566 164.76 127.281C164.971 126.996 165.258 126.773 165.621 126.613C165.984 126.449 166.395 126.367 166.852 126.367C167.504 126.367 168.014 126.512 168.381 126.801C168.752 127.086 169.016 127.461 169.172 127.926Z" fill="#FCFCFC" fill-opacity="0.6"/>
</g>
<defs>
<filter id="filter0_dd_5676_23963" x="0" y="0" width="264" height="234" filterUnits="userSpaceOnUse" color-interpolation-filters="sRGB">
<feFlood flood-opacity="0" result="BackgroundImageFix"/>
<feColorMatrix in="SourceAlpha" type="matrix" values="0 0 0 0 0 0 0 0 0 0 0 0 0 0 0 0 0 0 127 0" result="hardAlpha"/>
<feMorphology radius="5" operator="erode" in="SourceAlpha" result="effect1_dropShadow_5676_23963"/>
<feOffset dy="20"/>
<feGaussianBlur stdDeviation="32.5"/>
<feColorMatrix type="matrix" values="0 0 0 0 0.109804 0 0 0 0 0.133333 0 0 0 0 0.168627 0 0 0 0.05 0"/>
<feBlend mode="normal" in2="BackgroundImageFix" result="effect1_dropShadow_5676_23963"/>
<feColorMatrix in="SourceAlpha" type="matrix" values="0 0 0 0 0 0 0 0 0 0 0 0 0 0 0 0 0 0 127 0" result="hardAlpha"/>
<feMorphology radius="5" operator="erode" in="SourceAlpha" result="effect2_dropShadow_5676_23963"/>
<feOffset dy="10"/>
<feGaussianBlur stdDeviation="10"/>
<feColorMatrix type="matrix" values="0 0 0 0 0.109804 0 0 0 0 0.133333 0 0 0 0 0.168627 0 0 0 0.05 0"/>
<feBlend mode="normal" in2="effect1_dropShadow_5676_23963" result="effect2_dropShadow_5676_23963"/>
<feBlend mode="normal" in="SourceGraphic" in2="effect2_dropShadow_5676_23963" result="shape"/>
</filter>
<linearGradient id="paint0_linear_5676_23963" x1="109.973" y1="66.7636" x2="117.4" y2="83.58" gradientUnits="userSpaceOnUse">
<stop stop-color="white"/>
<stop offset="1" stop-color="#A585FF"/>
</linearGradient>
<linearGradient id="paint1_linear_5676_23963" x1="129.964" y1="65.0182" x2="139.867" y2="87.44" gradientUnits="userSpaceOnUse">
<stop stop-color="white"/>
<stop offset="1" stop-color="#A585FF"/>
</linearGradient>
<linearGradient id="paint2_linear_5676_23963" x1="150.973" y1="66.7636" x2="158.4" y2="83.58" gradientUnits="userSpaceOnUse">
<stop stop-color="white"/>
<stop offset="1" stop-color="#A585FF"/>
</linearGradient>
<clipPath id="clip0_5676_23963">
<path d="M99.5 72C99.5 65.3726 104.873 60 111.5 60V60C118.127 60 123.5 65.3726 123.5 72V72C123.5 78.6274 118.127 84 111.5 84V84C104.873 84 99.5 78.6274 99.5 72V72Z" fill="white"/>
</clipPath>
<clipPath id="clip1_5676_23963">
<path d="M116 72C116 63.1634 123.163 56 132 56V56C140.837 56 148 63.1634 148 72V72C148 80.8366 140.837 88 132 88V88C123.163 88 116 80.8366 116 72V72Z" fill="white"/>
</clipPath>
<clipPath id="clip2_5676_23963">
<path d="M140.5 72C140.5 65.3726 145.873 60 152.5 60V60C159.127 60 164.5 65.3726 164.5 72V72C164.5 78.6274 159.127 84 152.5 84V84C145.873 84 140.5 78.6274 140.5 72V72Z" fill="white"/>
</clipPath>
</defs>
</svg>
