<svg width="19" height="18" viewBox="0 0 19 18" fill="none" xmlns="http://www.w3.org/2000/svg">
<mask id="mask0_26_314" style="mask-type:luminance" maskUnits="userSpaceOnUse" x="0" y="0" width="19" height="18">
<path d="M18.4302 0.0697632H0.569702V17.9302H18.4302V0.0697632Z" fill="white"/>
</mask>
<g mask="url(#mask0_26_314)">
<path d="M0.578663 6.07586L1.32769 10.3728C1.42 10.8474 1.7982 11.1361 2.23433 11.1414H13.1539L13.3707 12.3635H2.9636C2.41561 12.4052 2.04389 12.7934 2.0372 13.2899C2.07705 13.8368 2.46529 14.2095 2.9636 14.2162H14.4746C15.0971 14.1603 15.4683 13.664 15.401 13.1124L14.9081 10.4319L15.6571 2.90251L17.7859 2.2324C18.3061 2.02589 18.5184 1.55527 18.3968 1.06946C18.1949 0.563232 17.7108 0.331938 17.234 0.458412L14.514 1.32576C14.1475 1.46306 13.9367 1.76301 13.8833 2.11419L13.7255 3.61213L1.38685 4.99185C0.819893 5.11464 0.512133 5.56372 0.578663 6.07586ZM11.6541 16.1614C11.6541 16.9424 12.2872 17.5757 13.0683 17.5757C13.8493 17.5757 14.4825 16.9424 14.4825 16.1614C14.4825 15.3804 13.8493 14.7471 13.0683 14.7471C12.2872 14.7472 11.6541 15.3804 11.6541 16.1614ZM3.21119 16.1614C3.21119 16.9424 3.84445 17.5757 4.62551 17.5757C5.40657 17.5757 6.03972 16.9424 6.03972 16.1614C6.03972 15.3804 5.40657 14.7471 4.62551 14.7471C3.84445 14.7472 3.21119 15.3804 3.21119 16.1614Z" fill="#8E000B"/>
</g>
</svg>
