<svg width="56" height="56" viewBox="0 0 56 56" fill="none" xmlns="http://www.w3.org/2000/svg">
<path d="M2.625 32.6667H27.1016C29.6683 32.6667 31.7683 30.5667 31.7683 28V4.66669H10.7683C7.26831 4.66669 4.21167 6.60333 2.625 9.44999" fill="white"/>
<path d="M2.625 32.6667H27.1016C29.6683 32.6667 31.7683 30.5667 31.7683 28V4.66669H10.7683C7.26831 4.66669 4.21167 6.60333 2.625 9.44999L2.625 32.6667Z" stroke="white" stroke-width="3.5" stroke-linecap="round" stroke-linejoin="round"/>
<path d="M4.66669 39.6667C4.66669 43.54 7.79335 46.6667 11.6667 46.6667H14C14 44.1 16.1 42 18.6667 42C21.2334 42 23.3334 44.1 23.3334 46.6667H32.6667C32.6667 44.1 34.7667 42 37.3334 42C39.9 42 42 44.1 42 46.6667H44.3334C48.2067 46.6667 51.3334 43.54 51.3334 39.6667V32.6667H44.3334C43.05 32.6667 42 31.6167 42 30.3334V23.3334C42 22.05 43.05 21 44.3334 21H47.3433L43.3534 14.0234C42.5134 12.5767 40.9734 11.6667 39.2934 11.6667H35V28C35 30.5667 32.9 32.6667 30.3334 32.6667H28" stroke="white" stroke-width="3.5" stroke-linecap="round" stroke-linejoin="round"/>
<path d="M18.6667 51.3333C21.244 51.3333 23.3333 49.244 23.3333 46.6667C23.3333 44.0893 21.244 42 18.6667 42C16.0893 42 14 44.0893 14 46.6667C14 49.244 16.0893 51.3333 18.6667 51.3333Z" stroke="white" stroke-width="3.5" stroke-linecap="round" stroke-linejoin="round"/>
<path d="M37.3334 51.3333C39.9107 51.3333 42 49.244 42 46.6667C42 44.0893 39.9107 42 37.3334 42C34.756 42 32.6667 44.0893 32.6667 46.6667C32.6667 49.244 34.756 51.3333 37.3334 51.3333Z" stroke="white" stroke-width="3.5" stroke-linecap="round" stroke-linejoin="round"/>
<path d="M51.3333 28V32.6667H44.3333C43.05 32.6667 42 31.6167 42 30.3333V23.3333C42 22.05 43.05 21 44.3333 21H47.3433L51.3333 28Z" fill="white" stroke="white" stroke-width="3.5" stroke-linecap="round" stroke-linejoin="round"/>
<path d="M11.375 12.25H25.375" stroke="#8E000B" stroke-width="3.5" stroke-linecap="round" stroke-linejoin="round"/>
<path d="M11.375 19.25H20.7083" stroke="#8E000B" stroke-width="3.5" stroke-linecap="round" stroke-linejoin="round"/>
<path d="M11.375 26.25H16.0417" stroke="#8E000B" stroke-width="3.5" stroke-linecap="round" stroke-linejoin="round"/>
</svg>
