<svg width="61" height="15" viewBox="0 0 61 15" fill="none" xmlns="http://www.w3.org/2000/svg">
<path d="M0 13.6073H0.287605V12.7943H1.29486V12.5476H0.287605V11.8472H1.41885V11.5979H0V13.6073Z" fill="#00CD11"/>
<path d="M2.28296 12.0708C2.1628 12.0708 2.04648 12.0874 1.93655 12.1207C1.82662 12.1539 1.73203 12.2025 1.65406 12.2651L1.7691 12.4722C1.8279 12.4223 1.90076 12.3827 1.98768 12.3533C2.07332 12.3239 2.16152 12.3086 2.25228 12.3086C2.38777 12.3086 2.49003 12.3405 2.55778 12.4044C2.62552 12.4683 2.66004 12.5591 2.66004 12.6754V12.7304H2.22416C2.07332 12.7304 1.95317 12.7508 1.86369 12.7905C1.77421 12.8301 1.7103 12.8838 1.67068 12.9515C1.63105 13.018 1.61188 13.0934 1.61188 13.1752C1.61188 13.2608 1.63489 13.3388 1.6809 13.4066C1.72692 13.4743 1.79211 13.528 1.87775 13.5663C1.96339 13.6047 2.06182 13.6239 2.1743 13.6239C2.31363 13.6239 2.42995 13.597 2.52199 13.5446C2.58718 13.5075 2.63703 13.4603 2.6741 13.4053V13.6073H2.93486V12.6882C2.93486 12.4798 2.87862 12.3252 2.76485 12.2229C2.65237 12.1219 2.49131 12.0708 2.28296 12.0708ZM2.49131 13.3427C2.41334 13.3887 2.32386 13.4117 2.22032 13.4117C2.11551 13.4117 2.03242 13.3887 1.97362 13.3439C1.91482 13.2992 1.88414 13.2391 1.88414 13.165C1.88414 13.0998 1.90843 13.0448 1.95573 12.9988C2.00302 12.9528 2.09633 12.9298 2.23438 12.9298H2.65876V13.142C2.62425 13.2302 2.56801 13.2966 2.49131 13.3427Z" fill="#00CD11"/>
<path d="M4.34862 12.8469C4.29238 12.8188 4.22974 12.7957 4.16072 12.7791C4.09169 12.7625 4.02267 12.7497 3.95364 12.7395C3.88462 12.7293 3.82198 12.7165 3.76574 12.7012C3.7095 12.6858 3.66348 12.6641 3.62769 12.6372C3.5919 12.6091 3.574 12.5695 3.574 12.5184C3.574 12.457 3.6034 12.4072 3.66348 12.3675C3.72228 12.3279 3.81304 12.3087 3.93319 12.3087C4.00733 12.3087 4.08275 12.3177 4.15688 12.3343C4.23102 12.3509 4.30388 12.3829 4.37163 12.4289L4.48923 12.2103C4.42404 12.1669 4.34095 12.1323 4.23741 12.1081C4.13515 12.0838 4.03417 12.0723 3.93447 12.0723C3.80409 12.0723 3.6916 12.0914 3.59701 12.1285C3.50242 12.1656 3.42956 12.2193 3.37715 12.2883C3.32602 12.3573 3.29918 12.4378 3.29918 12.5299C3.29918 12.6181 3.31708 12.6884 3.35031 12.7408C3.38482 12.7932 3.43084 12.8341 3.48836 12.8648C3.54588 12.8942 3.60852 12.9172 3.67754 12.9338C3.74657 12.9504 3.81559 12.9632 3.88462 12.9734C3.95364 12.9837 4.01628 12.9964 4.07252 13.0092C4.12876 13.0233 4.17478 13.0425 4.20929 13.0693C4.2438 13.0961 4.26042 13.1332 4.26042 13.1818C4.26042 13.247 4.2323 13.2981 4.17606 13.3339C4.11981 13.3697 4.02778 13.3889 3.89868 13.3889C3.79897 13.3889 3.70183 13.3735 3.60596 13.3428C3.51009 13.3122 3.42956 13.2751 3.36437 13.2304L3.24933 13.4489C3.31452 13.4988 3.404 13.541 3.51776 13.5755C3.63152 13.61 3.75168 13.6266 3.87822 13.6266C4.01372 13.6266 4.13132 13.6074 4.22846 13.5704C4.32561 13.5333 4.40231 13.4809 4.45471 13.4144C4.5084 13.348 4.53524 13.2674 4.53524 13.1767C4.53524 13.091 4.51735 13.022 4.48156 12.9696C4.45088 12.9159 4.40486 12.875 4.34862 12.8469Z" fill="#00CD11"/>
<path d="M5.43768 13.3912C5.36098 13.3912 5.30219 13.3695 5.26128 13.3247C5.22038 13.2813 5.19992 13.2174 5.19992 13.1356V12.3111H5.63581V12.0848H5.19992V11.7512H4.92382V12.0848H4.66562V12.3111H4.92382V13.1471C4.92382 13.3005 4.96601 13.4181 5.05037 13.4999C5.13473 13.5817 5.25361 13.6239 5.407 13.6239C5.46964 13.6239 5.53099 13.6149 5.58979 13.5983C5.64859 13.5817 5.69844 13.5548 5.74062 13.5178L5.65498 13.3196C5.59618 13.3682 5.5246 13.3912 5.43768 13.3912Z" fill="#00CD11"/>
<path d="M7.14154 11.4763H6.88589V14.1632H7.14154V11.4763Z" fill="#00CD11"/>
<path d="M9.12157 11.5979L8.21146 13.6073H8.50673L8.72787 13.105H9.79648L10.0176 13.6073H10.3193L9.40661 11.5979H9.12157ZM8.82885 12.8749L9.26217 11.8881L9.6955 12.8749H8.82885Z" fill="#00CD11"/>
<path d="M10.9507 11.754C10.9929 11.7092 11.0543 11.6862 11.1348 11.6862C11.1744 11.6862 11.2128 11.6926 11.2498 11.7054C11.2856 11.7182 11.3188 11.7361 11.347 11.7591L11.4301 11.5494C11.3917 11.5188 11.3457 11.4957 11.2907 11.4817C11.2358 11.4676 11.1795 11.46 11.1194 11.46C10.9584 11.46 10.8344 11.5047 10.7475 11.5929C10.6606 11.6824 10.6171 11.8013 10.6171 11.9508V12.0863H10.3589V12.3126H10.6171V13.6074H10.8932V12.3126H11.3291V12.0863H10.8868V11.9546C10.8881 11.8652 10.9085 11.7987 10.9507 11.754Z" fill="#00CD11"/>
<path d="M11.967 11.754C12.0092 11.7092 12.0705 11.6862 12.151 11.6862C12.1907 11.6862 12.229 11.6926 12.2661 11.7054C12.3019 11.7182 12.3351 11.7361 12.3632 11.7591L12.4463 11.5494C12.408 11.5188 12.362 11.4957 12.307 11.4817C12.252 11.4676 12.1958 11.46 12.1357 11.46C11.9746 11.46 11.8507 11.5047 11.7637 11.5929C11.6768 11.6824 11.6334 11.8013 11.6334 11.9508V12.0863H11.3752V12.3126H11.6334V13.6074H11.9095V12.3126H12.3453V12.0863H11.9031V11.9546C11.9043 11.8652 11.9248 11.7987 11.967 11.754Z" fill="#00CD11"/>
<path d="M13.6427 12.1705C13.5226 12.104 13.3871 12.0708 13.2363 12.0708C13.0829 12.0708 12.9474 12.104 12.8285 12.1705C12.7096 12.237 12.6163 12.3277 12.5473 12.4453C12.4783 12.5616 12.4438 12.6959 12.4438 12.8467C12.4438 12.9963 12.4783 13.1292 12.5473 13.2468C12.6163 13.3644 12.7096 13.4564 12.8285 13.5242C12.9474 13.5906 13.0829 13.6251 13.2363 13.6251C13.3871 13.6251 13.5226 13.5919 13.6427 13.5242C13.7629 13.4577 13.8562 13.3657 13.924 13.2481C13.9917 13.1317 14.0262 12.9975 14.0262 12.8467C14.0262 12.6933 13.9917 12.5591 13.924 12.4428C13.8562 12.3277 13.7629 12.2357 13.6427 12.1705ZM13.6811 13.1292C13.6376 13.211 13.5763 13.2736 13.4983 13.3171C13.4203 13.3605 13.3334 13.3836 13.235 13.3836C13.1366 13.3836 13.0496 13.3618 12.9742 13.3171C12.8975 13.2736 12.8362 13.211 12.7902 13.1292C12.7441 13.0474 12.7211 12.9541 12.7211 12.8467C12.7211 12.738 12.7441 12.6435 12.7902 12.5642C12.8362 12.485 12.8975 12.4236 12.9742 12.3789C13.0509 12.3354 13.1378 12.3124 13.235 12.3124C13.3321 12.3124 13.4203 12.3341 13.4983 12.3789C13.5763 12.4236 13.6364 12.485 13.6811 12.5642C13.7246 12.6435 13.7476 12.738 13.7476 12.8467C13.7476 12.9541 13.7258 13.0474 13.6811 13.1292Z" fill="#00CD11"/>
<path d="M14.6717 12.3431V12.0849H14.4071V13.6073H14.6832V12.8493C14.6832 12.6831 14.7266 12.5553 14.8123 12.4671C14.8979 12.3789 15.0155 12.3354 15.1625 12.3354C15.1727 12.3354 15.1817 12.3354 15.1932 12.3354C15.2034 12.3354 15.2149 12.3367 15.2264 12.338V12.0708C15.0807 12.0708 14.958 12.0989 14.8583 12.1539C14.7765 12.1999 14.7151 12.2638 14.6717 12.3431Z" fill="#00CD11"/>
<path d="M16.7105 12.3175C16.6594 12.251 16.598 12.196 16.5265 12.1564C16.4229 12.0989 16.3079 12.0708 16.1788 12.0708C16.0318 12.0708 15.9001 12.1027 15.7838 12.1679C15.6675 12.2331 15.5767 12.3239 15.509 12.4389C15.4425 12.5552 15.408 12.6894 15.408 12.8454C15.408 13 15.4412 13.1368 15.509 13.2531C15.5754 13.3695 15.6675 13.4615 15.7838 13.5254C15.9001 13.5906 16.0318 13.6226 16.1788 13.6226C16.3104 13.6226 16.428 13.5932 16.5316 13.5356C16.6057 13.4934 16.6683 13.4359 16.7207 13.3643V13.6059H16.9853V11.4751H16.7092V12.3175H16.7105ZM16.6453 13.1291C16.6006 13.211 16.5392 13.2736 16.4613 13.317C16.3833 13.3605 16.2976 13.3835 16.2018 13.3835C16.1046 13.3835 16.0164 13.3618 15.941 13.317C15.8643 13.2736 15.803 13.211 15.757 13.1291C15.7109 13.0473 15.6879 12.954 15.6879 12.8467C15.6879 12.738 15.7109 12.6434 15.757 12.5642C15.803 12.4849 15.8643 12.4236 15.941 12.3788C16.0177 12.3354 16.1046 12.3124 16.2018 12.3124C16.2976 12.3124 16.3846 12.3341 16.4613 12.3788C16.5392 12.4236 16.6006 12.4849 16.6453 12.5642C16.6901 12.6434 16.7131 12.738 16.7131 12.8467C16.7131 12.954 16.6913 13.0473 16.6453 13.1291Z" fill="#00CD11"/>
<path d="M18.0629 12.0708C17.9428 12.0708 17.8265 12.0874 17.7165 12.1207C17.6066 12.1539 17.512 12.2025 17.434 12.2651L17.5491 12.4722C17.6079 12.4223 17.6807 12.3827 17.7677 12.3533C17.8533 12.3239 17.9415 12.3086 18.0322 12.3086C18.1677 12.3086 18.27 12.3405 18.3377 12.4044C18.4055 12.4683 18.44 12.5591 18.44 12.6754V12.7304H18.0041C17.8533 12.7304 17.7331 12.7508 17.6437 12.7905C17.5542 12.8301 17.4903 12.8838 17.4506 12.9515C17.411 13.018 17.3918 13.0934 17.3918 13.1752C17.3918 13.2608 17.4149 13.3388 17.4609 13.4066C17.5069 13.4743 17.5721 13.528 17.6577 13.5663C17.7434 13.6047 17.8418 13.6239 17.9543 13.6239C18.0936 13.6239 18.2099 13.597 18.302 13.5446C18.3671 13.5075 18.417 13.4603 18.4541 13.4053V13.6073H18.7148V12.6882C18.7148 12.4798 18.6586 12.3252 18.5448 12.2229C18.4323 12.1219 18.2713 12.0708 18.0629 12.0708ZM18.2713 13.3427C18.1933 13.3887 18.1038 13.4117 18.0003 13.4117C17.8955 13.4117 17.8124 13.3887 17.7536 13.3439C17.6948 13.2992 17.6641 13.2391 17.6641 13.165C17.6641 13.0998 17.6884 13.0448 17.7357 12.9988C17.783 12.9528 17.8763 12.9298 18.0144 12.9298H18.4387V13.142C18.4042 13.2302 18.348 13.2966 18.2713 13.3427Z" fill="#00CD11"/>
<path d="M20.4289 12.1693C20.3139 12.1041 20.1822 12.0722 20.0326 12.0722C19.9061 12.0722 19.7911 12.1016 19.6862 12.1578C19.6147 12.1974 19.5533 12.2511 19.5009 12.3189V11.4778H19.2248V13.6086H19.4894V13.367C19.5418 13.4386 19.6044 13.4961 19.6798 13.5383C19.7847 13.5971 19.901 13.6252 20.0314 13.6252C20.1809 13.6252 20.3126 13.5933 20.4276 13.5281C20.5427 13.4629 20.6334 13.3721 20.6999 13.2558C20.7664 13.1395 20.8009 13.0027 20.8009 12.8481C20.8009 12.6934 20.7676 12.5579 20.6999 12.4416C20.6347 12.324 20.5439 12.2345 20.4289 12.1693ZM20.4557 13.1293C20.411 13.2111 20.3496 13.2737 20.2717 13.3172C20.1937 13.3606 20.1068 13.3837 20.0084 13.3837C19.9125 13.3837 19.8256 13.3619 19.7489 13.3172C19.6722 13.2724 19.6095 13.2111 19.5648 13.1293C19.5201 13.0475 19.4971 12.9542 19.4971 12.8468C19.4971 12.7381 19.5201 12.6435 19.5648 12.5643C19.6095 12.485 19.6709 12.4237 19.7489 12.3789C19.8268 12.3355 19.9125 12.3125 20.0084 12.3125C20.1055 12.3125 20.1937 12.3342 20.2717 12.3789C20.3496 12.4237 20.411 12.485 20.4557 12.5643C20.5005 12.6435 20.5235 12.7381 20.5235 12.8468C20.5235 12.9542 20.5005 13.0475 20.4557 13.1293Z" fill="#00CD11"/>
<path d="M21.4605 11.4763H21.1844V13.6072H21.4605V11.4763Z" fill="#00CD11"/>
<path d="M22.9982 12.1694C22.8857 12.1042 22.7553 12.0723 22.6084 12.0723C22.4626 12.0723 22.3322 12.1055 22.2159 12.172C22.0996 12.2384 22.0089 12.3292 21.9437 12.4468C21.8772 12.5631 21.844 12.6973 21.844 12.8482C21.844 12.999 21.8785 13.1332 21.9462 13.2495C22.014 13.3658 22.1098 13.4579 22.2338 13.5256C22.3578 13.5921 22.4997 13.6266 22.6633 13.6266C22.7899 13.6266 22.9036 13.6062 23.0059 13.564C23.1081 13.5218 23.1938 13.4604 23.2628 13.3799L23.1107 13.2022C23.0557 13.2636 22.9905 13.3096 22.9164 13.3403C22.8423 13.371 22.7605 13.3863 22.671 13.3863C22.5623 13.3863 22.4652 13.3646 22.3808 13.3198C22.2965 13.2764 22.2313 13.2137 22.184 13.1345C22.1495 13.0757 22.1277 13.0118 22.1188 12.9402H23.3536C23.3548 12.9274 23.3574 12.9121 23.3574 12.8967C23.3587 12.8814 23.3587 12.8673 23.3587 12.8571C23.3587 12.6999 23.3267 12.5631 23.2628 12.4455C23.2002 12.3254 23.112 12.2346 22.9982 12.1694ZM22.3527 12.3688C22.4268 12.3254 22.5125 12.3036 22.6084 12.3036C22.7055 12.3036 22.7911 12.3254 22.8653 12.3688C22.9394 12.4123 22.9969 12.4711 23.0391 12.5478C23.0711 12.6053 23.0903 12.6705 23.0966 12.7408H22.1188C22.1265 12.6705 22.1469 12.6078 22.1776 12.5503C22.2198 12.4724 22.2773 12.411 22.3527 12.3688Z" fill="#00CD11"/>
<path d="M24.8108 11.4763H24.5551V14.1632H24.8108V11.4763Z" fill="#00CD11"/>
<path d="M27.4197 12.9118C27.5437 12.8568 27.6395 12.7763 27.7073 12.6714C27.7737 12.5666 27.8082 12.4426 27.8082 12.2969C27.8082 12.1512 27.775 12.0259 27.7073 11.9211C27.6408 11.8163 27.5449 11.7358 27.4197 11.6795C27.2957 11.6246 27.1448 11.5964 26.9684 11.5964H26.1849V13.6058H26.4725V12.9948H26.9697C27.0145 12.9948 27.0566 12.9936 27.0975 12.9897L27.5296 13.6071H27.8428L27.3647 12.9335C27.3826 12.9258 27.403 12.9207 27.4197 12.9118ZM26.9608 12.752H26.4725V11.847H26.9608C27.1448 11.847 27.2842 11.8866 27.3788 11.9646C27.4733 12.0425 27.5206 12.1537 27.5206 12.2982C27.5206 12.4414 27.4733 12.5538 27.3788 12.6331C27.2842 12.7123 27.1448 12.752 26.9608 12.752Z" fill="#00CD11"/>
<path d="M29.2463 12.1694C29.1338 12.1042 29.0034 12.0723 28.8564 12.0723C28.7107 12.0723 28.5803 12.1055 28.464 12.172C28.3477 12.2384 28.2569 12.3292 28.1917 12.4468C28.1253 12.5631 28.092 12.6973 28.092 12.8482C28.092 12.999 28.1266 13.1332 28.1943 13.2495C28.262 13.3658 28.3579 13.4579 28.4819 13.5256C28.6059 13.5921 28.7478 13.6266 28.9114 13.6266C29.0379 13.6266 29.1517 13.6062 29.254 13.564C29.3562 13.5218 29.4419 13.4604 29.5109 13.3799L29.3588 13.2022C29.3038 13.2636 29.2386 13.3096 29.1645 13.3403C29.0904 13.371 29.0085 13.3863 28.9191 13.3863C28.8104 13.3863 28.7133 13.3646 28.6289 13.3198C28.5445 13.2764 28.4793 13.2137 28.4321 13.1345C28.3975 13.0757 28.3758 13.0118 28.3669 12.9402H29.6016C29.6029 12.9274 29.6055 12.9121 29.6055 12.8967C29.6068 12.8814 29.6068 12.8673 29.6068 12.8571C29.6068 12.6999 29.5748 12.5631 29.5109 12.4455C29.4483 12.3254 29.3588 12.2346 29.2463 12.1694ZM28.6008 12.3688C28.6749 12.3254 28.7606 12.3036 28.8564 12.3036C28.9536 12.3036 29.0392 12.3254 29.1134 12.3688C29.1875 12.4123 29.245 12.4711 29.2872 12.5478C29.3192 12.6053 29.3383 12.6705 29.3447 12.7408H28.3669C28.3745 12.6705 28.395 12.6078 28.4257 12.5503C28.4666 12.4724 28.5254 12.411 28.6008 12.3688Z" fill="#00CD11"/>
<path d="M30.2663 11.4763H29.9902V13.6072H30.2663V11.4763Z" fill="#00CD11"/>
<path d="M31.0665 12.0847H30.7904V13.6071H31.0665V12.0847Z" fill="#00CD11"/>
<path d="M30.9284 11.4343C30.8748 11.4343 30.83 11.4509 30.7955 11.4855C30.7597 11.52 30.7418 11.5634 30.7418 11.6146C30.7418 11.6644 30.7597 11.7066 30.7955 11.7411C30.8313 11.7756 30.876 11.7922 30.9284 11.7922C30.9834 11.7922 31.0294 11.7743 31.0639 11.7385C31.0985 11.7028 31.1151 11.6593 31.1151 11.6082C31.1151 11.5583 31.0972 11.5161 31.0614 11.4829C31.0269 11.4509 30.9821 11.4343 30.9284 11.4343Z" fill="#00CD11"/>
<path d="M32.1466 12.0708C32.0264 12.0708 31.9101 12.0874 31.8002 12.1207C31.6903 12.1539 31.5957 12.2025 31.5177 12.2651L31.6328 12.4722C31.6915 12.4223 31.7644 12.3827 31.8513 12.3533C31.937 12.3239 32.0252 12.3086 32.1159 12.3086C32.2514 12.3086 32.3537 12.3405 32.4214 12.4044C32.4892 12.4683 32.5237 12.5591 32.5237 12.6754V12.7304H32.0878C31.937 12.7304 31.8168 12.7508 31.7273 12.7905C31.6379 12.8301 31.574 12.8838 31.5343 12.9515C31.4947 13.018 31.4755 13.0934 31.4755 13.1752C31.4755 13.2608 31.4985 13.3388 31.5446 13.4066C31.5906 13.4743 31.6558 13.528 31.7414 13.5663C31.827 13.6047 31.9255 13.6239 32.038 13.6239C32.1773 13.6239 32.2936 13.597 32.3856 13.5446C32.4508 13.5075 32.5007 13.4603 32.5377 13.4053V13.6073H32.7985V12.6882C32.7985 12.4798 32.7423 12.3252 32.6285 12.2229C32.516 12.1219 32.355 12.0708 32.1466 12.0708ZM32.3537 13.3427C32.2757 13.3887 32.1862 13.4117 32.0827 13.4117C31.9779 13.4117 31.8948 13.3887 31.836 13.3439C31.7772 13.2992 31.7465 13.2391 31.7465 13.165C31.7465 13.0998 31.7708 13.0448 31.8181 12.9988C31.8654 12.9528 31.9587 12.9298 32.0968 12.9298H32.5211V13.142C32.4879 13.2302 32.4317 13.2966 32.3537 13.3427Z" fill="#00CD11"/>
<path d="M34.5114 12.1693C34.3963 12.1041 34.2647 12.0722 34.1151 12.0722C33.9886 12.0722 33.8735 12.1016 33.7687 12.1578C33.6971 12.1974 33.6358 12.2511 33.5834 12.3189V11.4778H33.3073V13.6086H33.5718V13.367C33.6243 13.4386 33.6869 13.4961 33.7623 13.5383C33.8671 13.5971 33.9834 13.6252 34.1138 13.6252C34.2634 13.6252 34.395 13.5933 34.5101 13.5281C34.6251 13.4629 34.7159 13.3721 34.7823 13.2558C34.8488 13.1395 34.8833 13.0027 34.8833 12.8481C34.8833 12.6934 34.8501 12.5579 34.7823 12.4416C34.7172 12.324 34.6264 12.2345 34.5114 12.1693ZM34.5395 13.1293C34.4947 13.2111 34.4334 13.2737 34.3554 13.3172C34.2774 13.3606 34.1905 13.3837 34.0921 13.3837C33.9962 13.3837 33.9093 13.3619 33.8326 13.3172C33.7546 13.2737 33.6933 13.2111 33.6485 13.1293C33.6038 13.0475 33.5808 12.9542 33.5808 12.8468C33.5808 12.7381 33.6038 12.6435 33.6485 12.5643C33.6933 12.485 33.7546 12.4237 33.8326 12.3789C33.9106 12.3355 33.9962 12.3125 34.0921 12.3125C34.1892 12.3125 34.2774 12.3342 34.3554 12.3789C34.4334 12.4237 34.4947 12.485 34.5395 12.5643C34.5842 12.6435 34.6072 12.7381 34.6072 12.8468C34.6072 12.9542 34.5842 13.0475 34.5395 13.1293Z" fill="#00CD11"/>
<path d="M35.5429 11.4763H35.2668V13.6072H35.5429V11.4763Z" fill="#00CD11"/>
<path d="M37.0819 12.1694C36.9694 12.1042 36.8391 12.0723 36.6921 12.0723C36.5463 12.0723 36.416 12.1055 36.2996 12.172C36.1833 12.2384 36.0926 12.3292 36.0274 12.4468C35.9609 12.5631 35.9277 12.6973 35.9277 12.8482C35.9277 12.999 35.9622 13.1332 36.0299 13.2495C36.0977 13.3658 36.1935 13.4579 36.3175 13.5256C36.4415 13.5921 36.5834 13.6266 36.747 13.6266C36.8736 13.6266 36.9873 13.6062 37.0896 13.564C37.1919 13.5218 37.2775 13.4604 37.3465 13.3799L37.1944 13.2022C37.1394 13.2636 37.0743 13.3096 37.0001 13.3403C36.926 13.371 36.8442 13.3863 36.7547 13.3863C36.646 13.3863 36.5489 13.3646 36.4645 13.3198C36.3802 13.2764 36.315 13.2137 36.2677 13.1345C36.2332 13.0757 36.2114 13.0118 36.2025 12.9402H37.4373C37.4386 12.9274 37.4411 12.9121 37.4411 12.8967C37.4424 12.8814 37.4424 12.8673 37.4424 12.8571C37.4424 12.6999 37.4104 12.5631 37.3465 12.4455C37.2826 12.3254 37.1944 12.2346 37.0819 12.1694ZM36.4351 12.3688C36.5093 12.3254 36.5949 12.3036 36.6908 12.3036C36.7879 12.3036 36.8736 12.3254 36.9477 12.3688C37.0218 12.4123 37.0794 12.4711 37.1216 12.5478C37.1535 12.6053 37.1727 12.6705 37.1791 12.7408H36.2012C36.2089 12.6705 36.2293 12.6078 36.26 12.5503C36.3022 12.4724 36.361 12.411 36.4351 12.3688Z" fill="#00CD11"/>
<path d="M40.5383 11.5979L39.7112 13.0091L38.8727 11.5979H38.6375V13.6073H38.9136V12.1501L39.6397 13.3632H39.7726L40.4986 12.1412L40.5012 13.6073H40.7773L40.7735 11.5979H40.5383Z" fill="#00CD11"/>
<path d="M42.3981 12.1705C42.278 12.104 42.1425 12.0708 41.9916 12.0708C41.8383 12.0708 41.7028 12.104 41.5839 12.1705C41.465 12.237 41.3717 12.3277 41.3027 12.4453C41.2336 12.5616 41.1991 12.6959 41.1991 12.8467C41.1991 12.9963 41.2336 13.1292 41.3027 13.2468C41.3717 13.3644 41.465 13.4564 41.5839 13.5242C41.7028 13.5906 41.8383 13.6251 41.9916 13.6251C42.1425 13.6251 42.278 13.5919 42.3981 13.5242C42.5183 13.4577 42.6116 13.3657 42.6793 13.2481C42.7471 13.1317 42.7816 12.9975 42.7816 12.8467C42.7816 12.6933 42.7471 12.5591 42.6793 12.4428C42.6116 12.3277 42.517 12.2357 42.3981 12.1705ZM42.4365 13.1292C42.393 13.211 42.3317 13.2736 42.2537 13.3171C42.1757 13.3605 42.0888 13.3836 41.9904 13.3836C41.8932 13.3836 41.805 13.3618 41.7296 13.3171C41.6529 13.2736 41.5915 13.211 41.5455 13.1292C41.4995 13.0474 41.4765 12.9541 41.4765 12.8467C41.4765 12.738 41.4995 12.6435 41.5455 12.5642C41.5915 12.485 41.6529 12.4236 41.7296 12.3789C41.8063 12.3354 41.8932 12.3124 41.9904 12.3124C42.0875 12.3124 42.1757 12.3341 42.2537 12.3789C42.3317 12.4236 42.3917 12.485 42.4365 12.5642C42.4812 12.6435 42.5029 12.738 42.5029 12.8467C42.5029 12.9541 42.4799 13.0474 42.4365 13.1292Z" fill="#00CD11"/>
<path d="M44.3654 12.1693C44.2503 12.1041 44.1187 12.0722 43.9691 12.0722C43.8426 12.0722 43.7275 12.1016 43.6227 12.1578C43.5511 12.1974 43.4898 12.2511 43.4374 12.3189V11.4778H43.1613V13.6086H43.4259V13.367C43.4783 13.4386 43.5409 13.4961 43.6163 13.5383C43.7212 13.5971 43.8375 13.6252 43.9679 13.6252C44.1174 13.6252 44.2491 13.5933 44.3641 13.5281C44.4792 13.4629 44.5699 13.3721 44.6364 13.2558C44.7028 13.1395 44.7374 13.0027 44.7374 12.8481C44.7374 12.6934 44.7041 12.5579 44.6364 12.4416C44.5712 12.324 44.4804 12.2345 44.3654 12.1693ZM44.3935 13.1293C44.3488 13.2111 44.2874 13.2737 44.2094 13.3172C44.1315 13.3606 44.0446 13.3837 43.9461 13.3837C43.8503 13.3837 43.7633 13.3619 43.6866 13.3172C43.6087 13.2737 43.5473 13.2111 43.5026 13.1293C43.4578 13.0475 43.4348 12.9542 43.4348 12.8468C43.4348 12.7381 43.4578 12.6435 43.5026 12.5643C43.5473 12.485 43.6087 12.4237 43.6866 12.3789C43.7646 12.3355 43.8503 12.3125 43.9461 12.3125C44.0433 12.3125 44.1315 12.3342 44.2094 12.3789C44.2874 12.4237 44.3488 12.485 44.3935 12.5643C44.4382 12.6435 44.4613 12.7381 44.4613 12.8468C44.4613 12.9542 44.4382 13.0475 44.3935 13.1293Z" fill="#00CD11"/>
<path d="M45.2589 11.4343C45.2052 11.4343 45.1604 11.4509 45.1259 11.4855C45.0901 11.52 45.0722 11.5634 45.0722 11.6146C45.0722 11.6644 45.0901 11.7066 45.1259 11.7411C45.1617 11.7756 45.2065 11.7922 45.2589 11.7922C45.3138 11.7922 45.3598 11.7743 45.3944 11.7385C45.4289 11.7028 45.4455 11.6593 45.4455 11.6082C45.4455 11.5583 45.4276 11.5161 45.3918 11.4829C45.3573 11.4509 45.3125 11.4343 45.2589 11.4343Z" fill="#00CD11"/>
<path d="M45.3969 12.0847H45.1208V13.6071H45.3969V12.0847Z" fill="#00CD11"/>
<path d="M46.1983 11.4763H45.9222V13.6072H46.1983V11.4763Z" fill="#00CD11"/>
<path d="M47.7361 12.1694C47.6236 12.1042 47.4932 12.0723 47.3462 12.0723C47.2005 12.0723 47.0701 12.1055 46.9538 12.172C46.8375 12.2384 46.7467 12.3292 46.6815 12.4468C46.6151 12.5631 46.5818 12.6973 46.5818 12.8482C46.5818 12.999 46.6163 13.1332 46.6841 13.2495C46.7518 13.3658 46.8477 13.4579 46.9717 13.5256C47.0957 13.5921 47.2376 13.6266 47.4012 13.6266C47.5277 13.6266 47.6415 13.6062 47.7437 13.564C47.846 13.5218 47.9316 13.4604 48.0007 13.3799L47.8486 13.2022C47.7936 13.2636 47.7284 13.3096 47.6543 13.3403C47.5801 13.371 47.4983 13.3863 47.4088 13.3863C47.3002 13.3863 47.203 13.3646 47.1187 13.3198C47.0343 13.2764 46.9691 13.2137 46.9218 13.1345C46.8873 13.0757 46.8656 13.0118 46.8566 12.9402H48.0914C48.0927 12.9274 48.0953 12.9121 48.0953 12.8967C48.0965 12.8814 48.0965 12.8673 48.0965 12.8571C48.0965 12.6999 48.0646 12.5631 48.0007 12.4455C47.938 12.3254 47.8498 12.2346 47.7361 12.1694ZM47.0906 12.3688C47.1647 12.3254 47.2503 12.3036 47.3462 12.3036C47.4434 12.3036 47.529 12.3254 47.6031 12.3688C47.6773 12.4123 47.7348 12.4711 47.777 12.5478C47.8089 12.6053 47.8281 12.6705 47.8345 12.7408H46.8566C46.8643 12.6705 46.8848 12.6078 46.9154 12.5503C46.9576 12.4724 47.0164 12.411 47.0906 12.3688Z" fill="#00CD11"/>
<path d="M50.5278 12.9118C50.6517 12.8568 50.7476 12.7763 50.8154 12.6714C50.8818 12.5666 50.9163 12.4426 50.9163 12.2969C50.9163 12.1512 50.8831 12.0259 50.8154 11.9211C50.7489 11.8163 50.653 11.7358 50.5278 11.6795C50.4038 11.6246 50.2529 11.5964 50.0765 11.5964H49.293V13.6058H49.5806V12.9948H50.0778C50.1225 12.9948 50.1647 12.9936 50.2056 12.9897L50.6377 13.6071H50.9508L50.4728 12.9335C50.4907 12.9258 50.5099 12.9207 50.5278 12.9118ZM50.0676 12.752H49.5793V11.847H50.0676C50.2517 11.847 50.391 11.8866 50.4856 11.9646C50.5802 12.0425 50.6275 12.1537 50.6275 12.2982C50.6275 12.4414 50.5802 12.5538 50.4856 12.6331C50.391 12.7123 50.2517 12.752 50.0676 12.752Z" fill="#00CD11"/>
<path d="M52.3531 12.1694C52.2406 12.1042 52.1102 12.0723 51.9632 12.0723C51.8175 12.0723 51.6871 12.1055 51.5708 12.172C51.4545 12.2384 51.3637 12.3292 51.2986 12.4468C51.2321 12.5631 51.1989 12.6973 51.1989 12.8482C51.1989 12.999 51.2334 13.1332 51.3011 13.2495C51.3689 13.3658 51.4647 13.4579 51.5887 13.5256C51.7127 13.5921 51.8546 13.6266 52.0182 13.6266C52.1448 13.6266 52.2585 13.6062 52.3608 13.564C52.463 13.5218 52.5487 13.4604 52.6177 13.3799L52.4656 13.2022C52.4106 13.2636 52.3454 13.3096 52.2713 13.3403C52.1972 13.371 52.1154 13.3863 52.0259 13.3863C51.9172 13.3863 51.8201 13.3646 51.7357 13.3198C51.6514 13.2751 51.5862 13.2137 51.5389 13.1345C51.5044 13.0757 51.4826 13.0118 51.4737 12.9402H52.7085C52.7097 12.9274 52.7123 12.9121 52.7123 12.8967C52.7136 12.8814 52.7136 12.8673 52.7136 12.8571C52.7136 12.6999 52.6816 12.5631 52.6177 12.4455C52.5551 12.3254 52.4669 12.2346 52.3531 12.1694ZM51.7076 12.3688C51.7817 12.3254 51.8674 12.3036 51.9632 12.3036C52.0604 12.3036 52.146 12.3254 52.2202 12.3688C52.2943 12.4123 52.3518 12.4711 52.394 12.5478C52.426 12.6053 52.4451 12.6705 52.4515 12.7408H51.4737C51.4813 12.6705 51.5018 12.6078 51.5325 12.5503C51.5747 12.4724 51.6335 12.411 51.7076 12.3688Z" fill="#00CD11"/>
<path d="M54.2999 12.1694C54.1848 12.1042 54.0532 12.0723 53.9036 12.0723C53.7732 12.0723 53.6556 12.1017 53.5521 12.1579C53.4767 12.1988 53.4141 12.2563 53.3616 12.3279V12.0863H53.097V14.1648H53.3731V13.3748C53.4256 13.4425 53.4869 13.4962 53.5585 13.5371C53.6633 13.5959 53.7784 13.6241 53.9049 13.6241C54.0545 13.6241 54.1861 13.5921 54.3012 13.5269C54.4162 13.4617 54.5069 13.371 54.5734 13.2546C54.6399 13.1383 54.6744 13.0015 54.6744 12.8469C54.6744 12.6922 54.6412 12.5567 54.5734 12.4404C54.5057 12.3241 54.4149 12.2346 54.2999 12.1694ZM54.328 13.1294C54.2833 13.2112 54.2219 13.2738 54.1439 13.3173C54.066 13.3607 53.979 13.3837 53.8806 13.3837C53.7847 13.3837 53.6978 13.362 53.6211 13.3173C53.5432 13.2738 53.4818 13.2112 53.4371 13.1294C53.3923 13.0476 53.3693 12.9543 53.3693 12.8469C53.3693 12.7382 53.3923 12.6436 53.4371 12.5644C53.4818 12.4851 53.5432 12.4238 53.6211 12.379C53.6991 12.3356 53.7847 12.3126 53.8806 12.3126C53.9778 12.3126 54.066 12.3343 54.1439 12.379C54.2219 12.4238 54.2833 12.4851 54.328 12.5644C54.3727 12.6436 54.3957 12.7382 54.3957 12.8469C54.3945 12.9543 54.3727 13.0476 54.328 13.1294Z" fill="#00CD11"/>
<path d="M55.5947 12.0708C55.4746 12.0708 55.3582 12.0874 55.2483 12.1207C55.1384 12.1539 55.0438 12.2025 54.9658 12.2651L55.0809 12.4722C55.1397 12.4223 55.2125 12.3827 55.2994 12.3533C55.3851 12.3239 55.4733 12.3086 55.564 12.3086C55.6995 12.3086 55.8018 12.3405 55.8695 12.4044C55.9373 12.4683 55.9718 12.5591 55.9718 12.6754V12.7304H55.5359C55.3851 12.7304 55.2649 12.7508 55.1755 12.7905C55.086 12.8301 55.0221 12.8838 54.9824 12.9515C54.9428 13.018 54.9236 13.0934 54.9236 13.1752C54.9236 13.2608 54.9467 13.3388 54.9927 13.4066C55.0387 13.4743 55.1039 13.528 55.1895 13.5663C55.2752 13.6047 55.3736 13.6239 55.4861 13.6239C55.6254 13.6239 55.7417 13.597 55.8338 13.5446C55.8989 13.5075 55.9488 13.4603 55.9859 13.4053V13.6073H56.2466V12.6882C56.2466 12.4798 56.1904 12.3252 56.0766 12.2229C55.9641 12.1219 55.8044 12.0708 55.5947 12.0708ZM55.8031 13.3427C55.7251 13.3887 55.6356 13.4117 55.5321 13.4117C55.4273 13.4117 55.3442 13.3887 55.2854 13.3439C55.2266 13.2992 55.1959 13.2391 55.1959 13.165C55.1959 13.0998 55.2202 13.0448 55.2675 12.9988C55.3148 12.9528 55.4081 12.9298 55.5461 12.9298H55.9705V13.142C55.9373 13.2302 55.8811 13.2966 55.8031 13.3427Z" fill="#00CD11"/>
<path d="M56.896 11.4343C56.8423 11.4343 56.7976 11.4509 56.7631 11.4855C56.7273 11.52 56.7094 11.5634 56.7094 11.6146C56.7094 11.6644 56.7273 11.7066 56.7631 11.7411C56.7989 11.7756 56.8436 11.7922 56.896 11.7922C56.951 11.7922 56.997 11.7743 57.0315 11.7385C57.066 11.7028 57.0826 11.6593 57.0826 11.6082C57.0826 11.5583 57.0647 11.5161 57.0289 11.4829C56.9944 11.4509 56.9497 11.4343 56.896 11.4343Z" fill="#00CD11"/>
<path d="M57.034 12.0847H56.7579V13.6071H57.034V12.0847Z" fill="#00CD11"/>
<path d="M57.8227 12.3431V12.0849H57.5581V13.6073H57.8342V12.8493C57.8342 12.6831 57.8777 12.5553 57.9633 12.4671C58.049 12.3789 58.1666 12.3354 58.3136 12.3354C58.3238 12.3354 58.3327 12.3354 58.3442 12.3354C58.3545 12.3354 58.366 12.3367 58.3775 12.338V12.0708C58.2317 12.0708 58.109 12.0989 58.0093 12.1539C57.9275 12.1999 57.8662 12.2638 57.8227 12.3431Z" fill="#00CD11"/>
<path d="M59.7746 12.967C59.7388 12.9159 59.6928 12.875 59.6365 12.8469C59.5803 12.8188 59.5177 12.7957 59.4487 12.7791C59.3796 12.7625 59.3106 12.7497 59.2416 12.7395C59.1726 12.7293 59.1099 12.7165 59.0537 12.7012C58.9974 12.6858 58.9514 12.6641 58.9156 12.6372C58.8798 12.6104 58.8619 12.5695 58.8619 12.5184C58.8619 12.457 58.8913 12.4072 58.9514 12.3675C59.0102 12.3279 59.101 12.3087 59.2211 12.3087C59.2953 12.3087 59.3707 12.3177 59.4448 12.3343C59.519 12.3509 59.5918 12.3829 59.6596 12.4289L59.7772 12.2103C59.712 12.1669 59.6289 12.1323 59.5253 12.1081C59.4231 12.0838 59.3221 12.0723 59.2224 12.0723C59.092 12.0723 58.9795 12.0914 58.8849 12.1285C58.7904 12.1656 58.7175 12.2193 58.6651 12.2883C58.614 12.3573 58.5871 12.4378 58.5871 12.5299C58.5871 12.6181 58.605 12.6884 58.6382 12.7408C58.6728 12.7932 58.7188 12.8341 58.7763 12.8648C58.8338 12.8942 58.8964 12.9172 58.9655 12.9338C59.0345 12.9504 59.1035 12.9632 59.1725 12.9734C59.2416 12.9837 59.3042 12.9964 59.3605 13.0092C59.4167 13.0233 59.4627 13.0425 59.4972 13.0693C59.5317 13.0961 59.5484 13.1332 59.5484 13.1818C59.5484 13.247 59.5202 13.2981 59.464 13.3339C59.4077 13.3697 59.3157 13.3889 59.1866 13.3889C59.0869 13.3889 58.9898 13.3735 58.8939 13.3428C58.798 13.3122 58.7175 13.2751 58.6523 13.2304L58.5373 13.4489C58.6025 13.4988 58.6919 13.541 58.8057 13.5755C58.9195 13.61 59.0396 13.6266 59.1662 13.6266C59.3017 13.6266 59.4192 13.6074 59.5164 13.5704C59.6135 13.5333 59.6902 13.4809 59.7426 13.4144C59.7963 13.348 59.8232 13.2674 59.8232 13.1767C59.827 13.0872 59.8091 13.0182 59.7746 12.967Z" fill="#00CD11"/>
<path d="M4.05715 8.36276V6.71638C4.05715 6.1629 3.9894 5.7219 3.85263 5.39084C3.71586 5.06105 3.48194 4.84247 3.15215 4.7351V4.70825C3.74781 4.45005 4.04564 3.83394 4.04564 2.86119V2.28598C4.04564 1.55483 3.88459 1.01285 3.56119 0.660055C3.23907 0.307259 2.72522 0.130859 2.02218 0.130859H0V9.49912H1.36517V5.48415H1.83684C2.15129 5.48415 2.37242 5.56851 2.50025 5.73852C2.62807 5.90853 2.69198 6.20636 2.69198 6.63585V8.3487C2.69198 8.69638 2.69965 8.93797 2.71627 9.0709C2.73289 9.20512 2.76612 9.34701 2.81597 9.49912H4.20542C4.13896 9.33806 4.09805 9.17572 4.08143 9.01083C4.0661 8.84721 4.05715 8.62991 4.05715 8.36276ZM2.68048 3.15647C2.68048 3.5131 2.61273 3.76747 2.47596 3.91958C2.33919 4.07169 2.13467 4.14711 1.8624 4.14711H1.36644V1.47046H1.98639C2.2267 1.47046 2.40182 1.54588 2.51303 1.69799C2.62424 1.8501 2.68048 2.09552 2.68048 2.43426V3.15647Z" fill="#8E000B"/>
<path d="M5.00052 9.50033H8.72277V8.16201H6.36569V5.28468H8.23959V3.94636H6.36569V1.4704H8.72277V0.13208H5.00052V9.50033Z" fill="#8E000B"/>
<path d="M13.5494 2.44704C13.5494 1.68904 13.3794 1.11383 13.0407 0.720132C12.7019 0.327711 12.1932 0.130859 11.5144 0.130859H9.50375V9.49912H10.8689V5.68483H11.5144C12.1932 5.68483 12.7019 5.48926 13.0407 5.09556C13.3794 4.70314 13.5494 4.12793 13.5494 3.36865V2.44704ZM12.1842 3.46452C12.1842 3.78536 12.128 4.01289 12.0168 4.14711C11.9056 4.28132 11.7381 4.34779 11.5144 4.34779H10.8689V1.47046H11.5144C11.7381 1.47046 11.9056 1.53693 12.0168 1.67114C12.128 1.80536 12.1842 2.03289 12.1842 2.35373V3.46452Z" fill="#8E000B"/>
<path d="M14.9146 0.13208L13.4996 9.50033H14.765L15.013 7.66733H16.5635V7.64049L16.8115 9.50033H18.1767L16.7617 0.13208H14.9146ZM15.1754 6.39548L15.771 1.7644H15.7953L16.4037 6.39548H15.1754Z" fill="#8E000B"/>
<path d="M20.2001 0.13208H18.8349V9.50033H20.2001V0.13208Z" fill="#8E000B"/>
<path d="M25.3003 9.01211C25.2837 8.84721 25.2761 8.63119 25.2761 8.36276V6.71638C25.2761 6.1629 25.2083 5.7219 25.0715 5.39084C24.9348 5.06105 24.7008 4.84247 24.3711 4.7351V4.70825C24.9667 4.45005 25.2645 3.83394 25.2645 2.86119V2.28598C25.2645 1.55483 25.1035 1.01285 24.7801 0.660055C24.458 0.307259 23.9441 0.130859 23.2411 0.130859H21.2189V9.49912H22.5841V5.48415H23.0557C23.3702 5.48415 23.5913 5.56851 23.7191 5.73852C23.847 5.90853 23.9109 6.20636 23.9109 6.63585V8.3487C23.9109 8.69638 23.9186 8.93797 23.9352 9.0709C23.9518 9.20512 23.985 9.34701 24.0349 9.49912H25.4243C25.3579 9.33934 25.317 9.177 25.3003 9.01211ZM23.8981 3.15647C23.8981 3.5131 23.8304 3.76747 23.6936 3.91958C23.5568 4.07169 23.3523 4.14711 23.08 4.14711H22.5841V1.47046H23.204C23.4443 1.47046 23.6194 1.54588 23.7307 1.69799C23.8419 1.8501 23.8981 2.09552 23.8981 2.43426V3.15647Z" fill="#8E000B"/>
<path d="M30.1385 -0.00219727C29.4764 -0.00219727 28.9727 0.201045 28.625 0.606249C28.2774 1.01273 28.1035 1.59433 28.1035 2.35233V7.27741C28.1035 8.03541 28.2774 8.61829 28.625 9.02349C28.9727 9.42997 29.4776 9.63193 30.1385 9.63193C30.8006 9.63193 31.3042 9.4287 31.6519 9.02349C31.9996 8.61829 32.1734 8.03541 32.1734 7.27741V4.21218H30.2011V5.5505H30.8837V7.3835C30.8837 7.99067 30.6485 8.29362 30.1768 8.29362C29.7052 8.29362 29.47 7.99067 29.47 7.3835V2.25774C29.47 1.64163 29.7052 1.33485 30.1768 1.33485C30.6485 1.33485 30.8837 1.64291 30.8837 2.25774V3.15507H32.1747V2.35233C32.1747 1.59433 32.0009 1.01145 31.6532 0.606249C31.3055 0.201045 30.8006 -0.00219727 30.1385 -0.00219727Z" fill="#E20000"/>
<path d="M34.11 0.13208L32.695 9.50033H33.9604L34.2084 7.66733H35.7589V7.64049L36.0069 9.50033H37.3721L35.9571 0.13208H34.11ZM34.3695 6.39548L34.9651 1.7644H34.9894L35.5979 6.39548H34.3695Z" fill="#E20000"/>
<path d="M39.3955 0.13208H38.0304V9.50033H41.6414V8.16201H39.3955V0.13208Z" fill="#E20000"/>
<path d="M43.6636 0.13208H42.2985V9.50033H45.9095V8.16201H43.6636V0.13208Z" fill="#E20000"/>
<path d="M46.5665 9.50033H50.2888V8.16201H47.9317V5.28468H49.8056V3.94636H47.9317V1.4704H50.2888V0.13208H46.5665V9.50033Z" fill="#E20000"/>
<path d="M55.1282 8.36276V6.71638C55.1282 6.1629 55.0604 5.7219 54.9236 5.39084C54.7869 5.06105 54.553 4.84247 54.2232 4.7351V4.70825C54.8188 4.45005 55.1167 3.83394 55.1167 2.86119V2.28598C55.1167 1.55483 54.9556 1.01285 54.6322 0.660055C54.3101 0.307259 53.7962 0.130859 53.0932 0.130859H51.071V9.49912H52.4362V5.48415H52.9079C53.2223 5.48415 53.4434 5.56851 53.5713 5.73852C53.6991 5.90853 53.763 6.20636 53.763 6.63585V8.3487C53.763 8.69638 53.7707 8.93797 53.7873 9.0709C53.8039 9.20512 53.8371 9.34701 53.887 9.49912H55.2764C55.21 9.33806 55.1691 9.17572 55.1524 9.01083C55.1371 8.84721 55.1282 8.62991 55.1282 8.36276ZM53.7515 3.15647C53.7515 3.5131 53.6837 3.76747 53.547 3.91958C53.4102 4.07169 53.2057 4.14711 52.9334 4.14711H52.4375V1.47046H53.0574C53.2977 1.47046 53.4728 1.54588 53.584 1.69799C53.6953 1.8501 53.7515 2.09552 53.7515 2.43426V3.15647Z" fill="#E20000"/>
<path d="M58.8134 0.13208L57.8828 3.57056H57.8585L56.9279 0.13208H55.4759L57.1261 5.51221V9.50033H58.4912V5.51221L60.1415 0.13208H58.8134Z" fill="#E20000"/>
</svg>
