<svg width="122" height="85" viewBox="0 0 122 85" fill="none" xmlns="http://www.w3.org/2000/svg">
<path d="M90.9905 35.2179C90.6845 35.2179 90.3967 35.2905 90.1426 35.4254L85.9705 31.2455L78.9746 31.2377L78.9772 29.0466L89.6084 29.057C89.8677 29.7519 90.5367 30.2524 91.3224 30.255C92.3285 30.255 93.1505 29.4356 93.1505 28.4269C93.1531 27.4182 92.3311 26.5937 91.3224 26.5937C90.5367 26.5937 89.8652 27.0915 89.6084 27.789L78.9772 27.7787V25.7432L85.9757 25.7509L90.1582 21.5762C90.4097 21.7085 90.6975 21.7863 91.0035 21.7863C92.0096 21.7863 92.8341 20.9695 92.8341 19.9582C92.8341 18.947 92.0147 18.1276 91.0061 18.1276C89.9974 18.125 89.1754 18.947 89.1754 19.9556C89.1754 20.1968 89.2221 20.425 89.3077 20.635L85.4519 24.4778L78.9824 24.4726L78.985 21.1458H79.195C79.2313 21.1458 79.2572 21.1173 79.2572 21.081V18.1483C79.2572 18.112 79.2287 18.0861 79.195 18.0861H78.9876L78.9902 15.5061H79.1587C79.2158 15.5061 79.2572 15.4594 79.2572 15.4049V8.40387C79.2572 8.34683 79.2132 8.30274 79.1587 8.30274H78.998L79.0031 4.29917C79.0057 1.94474 77.0999 0.0337141 74.748 0.0311212L47.3998 2.64276e-06C45.0454 -0.00259034 43.1344 1.90326 43.1318 4.25769L43.1084 24.4337L36.5508 24.4259L32.708 20.5753C32.7909 20.3653 32.8402 20.1371 32.8402 19.896C32.8402 18.8899 32.0234 18.0653 31.0121 18.0653C30.0035 18.0627 29.1815 18.8847 29.1815 19.8934C29.1815 20.9021 29.9983 21.7214 31.0096 21.724C31.3129 21.724 31.6008 21.6488 31.8549 21.5166L36.0296 25.6991L43.1136 25.7069L43.111 27.7424L32.3942 27.7294C32.1349 27.0319 31.4659 26.5314 30.6802 26.5314C29.6716 26.5288 28.8522 27.3508 28.8496 28.3621C28.8496 29.3682 29.669 30.1901 30.6777 30.1927C31.4633 30.1927 32.1349 29.6923 32.3916 28.9974L43.1084 29.0103L43.1058 31.2014L36.0218 31.1936L31.8393 35.3657C31.5852 35.2309 31.3 35.1557 30.994 35.1557C29.9853 35.1531 29.1633 35.9751 29.1633 36.9864C29.1608 37.9924 29.9801 38.8144 30.9914 38.817C32.0001 38.817 32.8195 37.9976 32.8221 36.9889C32.8221 36.7478 32.7728 36.5196 32.6898 36.3096L36.543 32.4642L43.1006 32.472L43.0773 52.648C43.0747 55.0024 44.9806 56.9135 47.335 56.916L74.6832 56.9472C77.0351 56.9498 78.9461 55.0439 78.9487 52.6895L78.972 32.5135L85.4415 32.5186L89.2869 36.3718C89.2013 36.5819 89.1547 36.81 89.1547 37.0512C89.1521 38.0573 89.9715 38.8792 90.9827 38.8818C91.9888 38.8818 92.8108 38.0599 92.8134 37.0512C92.8186 36.0399 91.9966 35.2179 90.9905 35.2179ZM91.3276 27.8616C91.6362 27.8616 91.8851 28.1157 91.8851 28.4243C91.8851 28.7329 91.6336 28.9844 91.325 28.9844C91.0164 28.9844 90.7623 28.7329 90.7623 28.4243C90.7623 28.1157 91.019 27.8616 91.3276 27.8616ZM91.0087 19.3981C91.3172 19.3981 91.5687 19.6497 91.5687 19.9582C91.5687 20.2668 91.3172 20.5183 91.0087 20.5183C90.7001 20.5183 90.4486 20.2642 90.4486 19.9556C90.4486 19.6471 90.6975 19.3981 91.0087 19.3981ZM31.0121 20.4535C30.7036 20.4535 30.4521 20.202 30.4521 19.8934C30.4521 19.5848 30.7036 19.3333 31.0121 19.3333C31.3207 19.3333 31.5722 19.5848 31.5722 19.8934C31.5722 20.202 31.3207 20.4535 31.0121 20.4535ZM30.6751 28.9196C30.3665 28.9196 30.115 28.6655 30.115 28.3569C30.1176 28.0483 30.3691 27.7968 30.6777 27.7968C30.9862 27.7968 31.2351 28.0509 31.2351 28.3595C31.2351 28.6681 30.9836 28.9196 30.6751 28.9196ZM30.9914 37.5438C30.6828 37.5438 30.4339 37.2923 30.4339 36.9838C30.4339 36.6752 30.6854 36.4211 30.994 36.4211C31.3026 36.4211 31.5541 36.6752 31.5541 36.9838C31.5567 37.2923 31.3026 37.5438 30.9914 37.5438ZM57.7303 3.38904C57.847 3.27235 58.0077 3.20234 58.1841 3.20493L63.8731 3.21012C64.2257 3.21012 64.5161 3.49794 64.5161 3.85059C64.5161 4.02691 64.4461 4.18768 64.3294 4.30436C64.2127 4.42104 64.0494 4.49106 63.8757 4.49106L58.1866 4.48587C57.8314 4.48328 57.5436 4.19546 57.5436 3.84022C57.541 3.6613 57.6136 3.50572 57.7303 3.38904ZM60.9715 54.6057C60.2118 54.6031 59.5998 53.9886 59.6024 53.2314C59.6024 52.4743 60.2169 51.8623 60.9741 51.8649C61.7338 51.8649 62.3458 52.4795 62.3458 53.234C62.3458 53.9912 61.7313 54.6057 60.9715 54.6057ZM76.1171 49.9461L45.8414 49.9124H45.8388L45.8881 6.99329L76.1664 7.027L76.1171 49.9461ZM90.9879 37.6113C90.6794 37.6113 90.4278 37.3572 90.4304 37.0486C90.4304 36.74 90.6819 36.4885 90.9905 36.4885C91.2991 36.4885 91.5506 36.7426 91.5506 37.0512C91.548 37.3597 91.2965 37.6113 90.9879 37.6113Z" fill="#8E000B"/>
<path d="M74.7247 1.34319L47.335 1.31208C45.6937 1.30948 44.3609 2.63968 44.3609 4.28104L44.3064 52.6247C44.3064 53.4155 44.6124 54.1364 45.1206 54.6705C45.2632 54.8209 45.4188 54.9558 45.5899 55.075C46.0696 55.4044 46.6479 55.6014 47.2754 55.6014L74.6651 55.6325C75.3133 55.6325 75.9071 55.4277 76.3946 55.0776C76.5709 54.9532 76.7317 54.808 76.8769 54.6498C77.3514 54.1234 77.6392 53.4285 77.6418 52.6662L77.6963 4.32253C77.6937 2.67599 76.3661 1.34319 74.7247 1.34319ZM76.1172 49.9461L45.8415 49.9124H45.8389L45.8881 6.99331L76.1664 7.02702L76.1172 49.9461ZM57.7303 3.38906C57.847 3.27237 58.0078 3.20236 58.1841 3.20495L63.8731 3.21014C64.2257 3.21014 64.5161 3.49796 64.5161 3.85061C64.5161 4.02693 64.4461 4.1877 64.3295 4.30438C64.2128 4.42107 64.0494 4.49108 63.8757 4.49108L58.1867 4.48589C57.8314 4.4833 57.5436 4.19548 57.5436 3.84024C57.541 3.66391 57.6136 3.50574 57.7303 3.38906ZM59.1331 53.2288C59.1331 52.215 59.9603 51.3904 60.9741 51.393C61.988 51.393 62.8151 52.2202 62.8151 53.234C62.8126 54.2505 61.9854 55.0725 60.9715 55.0725C59.9577 55.0725 59.1305 54.2479 59.1331 53.2288Z" fill="#E20000"/>
<path d="M64.5136 3.84796C64.5136 4.02429 64.4436 4.18505 64.3269 4.30174C64.2102 4.41842 64.0468 4.48843 63.8731 4.48843L58.1841 4.48325C57.8289 4.48065 57.541 4.19283 57.541 3.83759C57.541 3.66127 57.6111 3.5031 57.7277 3.38641C57.8444 3.26973 58.0052 3.19972 58.1815 3.20231L63.8705 3.2075C64.2232 3.2075 64.5136 3.49532 64.5136 3.84796Z" fill="white"/>
<path d="M76.877 6.24388L45.1207 6.20758L45.0714 50.7006H45.1207L76.877 50.7369L76.9262 6.24388H76.877ZM76.1198 49.9461L45.8415 49.9124L45.8882 6.99325L76.1665 7.02697L76.1198 49.9461Z" fill="#8E000B"/>
<path d="M45.8856 6.99323L45.8389 49.9123L76.1146 49.946L76.1639 7.02694L45.8856 6.99323ZM48.686 28.4632C48.686 24.6178 50.457 21.1795 53.2263 18.9184C53.1641 19.3151 53.1304 19.7144 53.1304 20.1189C53.1304 20.2486 53.1356 20.3756 53.1407 20.5001C51.0819 22.533 49.8062 25.3516 49.8062 28.4657C49.8062 33.0087 52.5262 36.9267 56.4209 38.6795V39.4289C56.4209 39.5922 56.4287 39.753 56.4468 39.9086C51.9039 38.0961 48.686 33.6465 48.686 28.4632ZM64.7807 39.4263C64.7807 41.5085 63.0849 43.2069 61.0027 43.2069C58.9205 43.2069 57.2247 41.5085 57.2247 39.4263V26.0932C55.1814 24.8044 53.9342 22.5563 53.9342 20.1189C53.9342 17.889 55.0051 15.7653 56.802 14.4351L57.6888 13.7791C57.8496 13.6624 58.0778 13.7765 58.0778 13.9761V21.3324C58.0778 21.4336 58.1374 21.5217 58.2308 21.558L59.1617 21.934C59.7503 22.17 60.37 22.2918 61.0027 22.2918C61.638 22.2918 62.2551 22.17 62.8437 21.934L63.772 21.5606C63.8653 21.5217 63.9276 21.4336 63.9276 21.335V13.9761C63.9276 13.7765 64.1532 13.6624 64.3165 13.7791L65.2033 14.4351C66.9977 15.7653 68.0712 17.889 68.0712 20.1189C68.0712 22.5563 66.8213 24.8019 64.7807 26.0906V39.4263ZM65.5508 39.906C65.5689 39.7504 65.5767 39.5897 65.5767 39.4263V38.6769C69.474 36.9241 72.1914 33.0061 72.1914 28.4632C72.1914 25.349 70.9157 22.5304 68.8568 20.4975C68.8646 20.373 68.8672 20.246 68.8672 20.1163C68.8672 19.7118 68.8361 19.3125 68.7739 18.9158C71.5432 21.1769 73.3142 24.6152 73.3142 28.4606C73.3116 33.6465 70.0963 38.0961 65.5508 39.906Z" fill="white"/>
<path d="M60.9741 51.3929C59.9603 51.3903 59.1331 52.2149 59.1331 53.2288C59.1305 54.2452 59.9577 55.0698 60.9715 55.0724C61.9854 55.0724 62.8125 54.2504 62.8151 53.2339C62.8151 52.2201 61.988 51.3929 60.9741 51.3929ZM60.9715 54.6056C60.2118 54.603 59.5998 53.9885 59.6024 53.2313C59.6024 52.4742 60.217 51.8623 60.9741 51.8648C61.7339 51.8648 62.3458 52.4794 62.3458 53.2339C62.3432 53.9911 61.7313 54.6056 60.9715 54.6056Z" fill="#8E000B"/>
<path d="M62.3458 53.2314C62.3432 53.9912 61.7287 54.6031 60.9715 54.6031C60.2118 54.6005 59.5998 53.986 59.6024 53.2288C59.6024 52.4717 60.217 51.8597 60.9741 51.8623C61.7339 51.8623 62.3458 52.4769 62.3458 53.2314Z" fill="white"/>
<path d="M56.4209 39.4264V38.677C52.5262 36.9241 49.8062 33.0061 49.8062 28.4632C49.8062 25.349 51.0819 22.5305 53.1407 20.4976C53.1356 20.3731 53.1304 20.246 53.1304 20.1164C53.1304 19.7119 53.1641 19.3126 53.2263 18.9158C50.457 21.1769 48.686 24.6152 48.686 28.4606C48.686 33.644 51.9039 38.091 56.4442 39.9035C56.4286 39.7531 56.4209 39.5897 56.4209 39.4264ZM68.7739 18.9184C68.8361 19.3152 68.8672 19.7145 68.8672 20.119C68.8672 20.2486 68.8646 20.3757 68.8568 20.5001C70.9157 22.533 72.1914 25.3516 72.1914 28.4658C72.1914 33.0087 69.474 36.9267 65.5767 38.6796V39.4289C65.5767 39.5923 65.5689 39.7531 65.5508 39.9086C70.0937 38.0961 73.3116 33.6492 73.3116 28.4658C73.3116 24.6178 71.5406 21.1795 68.7739 18.9184Z" fill="#8E000B"/>
<path d="M65.2033 14.4351L64.3165 13.7791C64.1531 13.6624 63.9275 13.7765 63.9275 13.9762V21.3351C63.9275 21.4336 63.8679 21.5218 63.7719 21.5607L62.8436 21.934C62.255 22.17 61.6353 22.2919 61.0026 22.2919C60.3673 22.2919 59.7502 22.17 59.1616 21.934L58.2307 21.5581C58.14 21.5218 58.0777 21.4336 58.0777 21.3325V13.9762C58.0777 13.7765 57.8496 13.6624 57.6888 13.7791L56.802 14.4351C55.005 15.7653 53.9341 17.889 53.9341 20.119C53.9341 22.5564 55.1814 24.8045 57.2246 26.0932V39.4263C57.2246 41.5085 58.9205 43.2069 61.0026 43.2069C63.0848 43.2069 64.7806 41.5085 64.7806 39.4263V26.0906C66.8213 24.8019 68.0711 22.5564 68.0711 20.119C68.0711 17.889 66.9976 15.7653 65.2033 14.4351ZM63.9794 39.4263C63.9794 41.0729 62.6466 42.4057 61.0026 42.4057C59.3587 42.4057 58.0233 41.0729 58.0233 39.4263V26.5314C58.1322 26.5859 58.2463 26.6325 58.3578 26.6766C58.4719 26.7233 58.586 26.7648 58.7026 26.8063C58.7208 26.8115 58.7364 26.8192 58.7545 26.8244C58.853 26.8581 58.9542 26.8866 59.0553 26.9178C59.0708 26.923 59.0864 26.9255 59.102 26.9307C59.1953 26.9567 59.2913 26.9826 59.3924 27.0033C59.4209 27.0111 59.452 27.0189 59.4805 27.0241C59.5506 27.0396 59.6232 27.0552 59.6932 27.0682C59.7684 27.0837 59.8436 27.0967 59.9188 27.1071C59.9447 27.1122 59.9706 27.1148 59.994 27.1174C60.0847 27.133 60.1755 27.1459 60.2688 27.1537C60.2792 27.1537 60.2921 27.1563 60.3025 27.1563C60.5359 27.1797 60.7693 27.1926 61.0026 27.1926C61.1089 27.1926 61.2127 27.19 61.3164 27.1848C61.3371 27.1848 61.3605 27.1848 61.3786 27.1823C61.472 27.1771 61.5627 27.1719 61.6587 27.1615C61.669 27.1615 61.682 27.1589 61.6924 27.1589C61.8272 27.146 61.962 27.1278 62.0943 27.1071C62.1669 27.0967 62.2395 27.0837 62.3121 27.0682C62.3821 27.0552 62.4547 27.0396 62.5247 27.0241C62.5558 27.0189 62.5843 27.0111 62.6129 27.0033C62.7088 26.98 62.8047 26.9541 62.9033 26.9307C62.9188 26.9255 62.9344 26.923 62.95 26.9178C63.0563 26.8866 63.16 26.8555 63.2637 26.8192C63.2741 26.8166 63.2819 26.814 63.2896 26.8115C63.2922 26.8115 63.2974 26.8089 63.3 26.8089C63.3571 26.7881 63.4115 26.7674 63.466 26.7492C63.5256 26.7259 63.5826 26.7025 63.6423 26.6818C63.7564 26.6377 63.8705 26.5885 63.982 26.5366V39.4263H63.9794ZM63.9794 25.6342C63.9223 25.6654 63.8679 25.6939 63.8108 25.7224L63.6371 25.8028C63.5878 25.8261 63.5412 25.8495 63.4919 25.8676C63.4426 25.8909 63.396 25.9117 63.3441 25.9272C63.3259 25.935 63.3078 25.9428 63.2896 25.9506C63.2015 25.9869 63.1107 26.018 63.0174 26.0491C62.9863 26.0595 62.9577 26.0699 62.9292 26.0802C62.8514 26.1062 62.771 26.1321 62.6907 26.1528C62.6829 26.1528 62.6751 26.1554 62.6647 26.158C62.5636 26.1891 62.4573 26.2151 62.3536 26.2358C62.2524 26.2591 62.1513 26.2799 62.0502 26.2954C62.0294 26.3006 62.0087 26.3032 61.9906 26.3058C61.8894 26.324 61.7883 26.3369 61.6872 26.3473C61.5757 26.3603 61.4616 26.3706 61.3475 26.3758C61.2334 26.3836 61.1193 26.3862 61.0026 26.3862C60.8859 26.3862 60.7718 26.3836 60.6578 26.3758C60.5437 26.3706 60.4322 26.3603 60.3181 26.3473H60.3103C60.274 26.3447 60.2429 26.3395 60.2066 26.3343C60.1443 26.3266 60.0769 26.3188 60.0147 26.3058C59.9862 26.3032 59.9576 26.298 59.9291 26.2903C59.8358 26.2747 59.7424 26.2566 59.6465 26.2358C59.5428 26.2125 59.4391 26.1865 59.3353 26.158C59.3276 26.1554 59.3172 26.1528 59.3094 26.1528C59.2316 26.1295 59.1512 26.1036 59.0734 26.0802C59.0475 26.0725 59.0216 26.0621 58.9982 26.0543C58.9101 26.0232 58.8219 25.9947 58.7338 25.9584C58.7312 25.9584 58.7286 25.9558 58.726 25.9558C58.6975 25.9454 58.6663 25.9324 58.6404 25.9195C58.5471 25.8832 58.4589 25.8443 58.3656 25.8002L58.1918 25.7198C58.1348 25.6887 58.0803 25.6602 58.0233 25.6316C56.0656 24.5737 54.7328 22.5019 54.7328 20.1164C54.7328 18.0523 55.7337 16.2191 57.2739 15.0782V21.7811C57.2739 21.9366 57.3698 22.0767 57.5151 22.1311L58.8608 22.673C60.2351 23.2254 61.7676 23.2254 63.1444 22.673L64.4928 22.1311C64.638 22.0741 64.7287 21.9366 64.7287 21.7811V15.0782C66.2716 16.2191 67.2699 18.0523 67.2699 20.1164C67.2699 22.5045 65.9397 24.5763 63.9794 25.6342Z" fill="#8E000B"/>
<path d="M63.6371 26.6766C63.5775 26.6999 63.5204 26.7233 63.4608 26.744C63.4064 26.7648 63.3519 26.7855 63.2949 26.8037C63.2923 26.8037 63.2871 26.8063 63.2845 26.8063C63.2767 26.8088 63.2689 26.8114 63.2586 26.814C63.1548 26.8503 63.0511 26.8815 62.9448 26.9126C62.9292 26.9178 62.9137 26.9203 62.8981 26.9255C62.8022 26.9515 62.7062 26.9774 62.6077 26.9981C62.5792 27.0059 62.5481 27.0137 62.5195 27.0189C62.4495 27.0344 62.3769 27.05 62.3069 27.063C62.2343 27.0785 62.1617 27.0915 62.0891 27.1019C61.9569 27.1226 61.822 27.1407 61.6872 27.1537C61.6768 27.1537 61.6639 27.1563 61.6535 27.1563C61.5601 27.1667 61.4694 27.1719 61.3735 27.177C61.3527 27.1796 61.3294 27.1796 61.3112 27.1796C61.2075 27.1848 61.1038 27.1874 60.9975 27.1874C60.7641 27.1874 60.5307 27.1745 60.2974 27.1511C60.287 27.1511 60.274 27.1485 60.2637 27.1485C60.1729 27.1408 60.0821 27.1278 59.9888 27.1122C59.9629 27.1096 59.9369 27.107 59.9136 27.1019C59.8384 27.0915 59.7632 27.0785 59.688 27.063C59.618 27.05 59.5454 27.0344 59.4754 27.0189C59.4443 27.0137 59.4157 27.0059 59.3872 26.9981C59.2887 26.9748 59.1928 26.9489 59.0968 26.9255C59.0813 26.9203 59.0657 26.9178 59.0501 26.9126C58.949 26.8815 58.8479 26.8529 58.7494 26.8192C58.7312 26.814 58.7156 26.8063 58.6975 26.8011C58.5808 26.7596 58.4667 26.7181 58.3526 26.6714C58.2411 26.6273 58.127 26.5807 58.0181 26.5262V39.4237C58.0181 41.0703 59.3535 42.4031 60.9975 42.4031C62.6414 42.4031 63.9742 41.0703 63.9742 39.4237V26.5288C63.8679 26.5833 63.7512 26.6351 63.6371 26.6766ZM63.4971 39.4263C63.4971 40.8032 62.3769 41.926 61.0001 41.926C59.6232 41.926 58.5004 40.8032 58.5004 39.4263V27.2419C59.2991 27.5245 60.1366 27.6671 61.0001 27.6671C61.8635 27.6671 62.7011 27.5219 63.4971 27.2419V39.4263Z" fill="white"/>
<path d="M64.7262 15.0808V21.7837C64.7262 21.9392 64.6354 22.0792 64.4902 22.1337L63.1419 22.6756C61.7676 23.2279 60.2351 23.2279 58.8583 22.6756L57.5125 22.1337C57.3673 22.0767 57.2713 21.9392 57.2713 21.7837V15.0808C55.7285 16.2217 54.7302 18.0549 54.7302 20.119C54.7302 22.5045 56.063 24.5763 58.0207 25.6342C58.0778 25.6654 58.1322 25.6939 58.1893 25.7224L58.363 25.8028C58.4537 25.8469 58.5419 25.8858 58.6379 25.9221C58.6664 25.935 58.6975 25.948 58.7234 25.9584C58.726 25.9584 58.7286 25.9609 58.7312 25.9609C58.8168 25.9972 58.9075 26.0258 58.9957 26.0569C59.0216 26.0647 59.0475 26.075 59.0709 26.0828C59.1487 26.1087 59.2291 26.1347 59.3068 26.1554C59.3146 26.1554 59.325 26.158 59.3328 26.1606C59.4365 26.1917 59.5402 26.2177 59.6439 26.2384C59.7373 26.2591 59.8306 26.2773 59.9266 26.2928C59.9577 26.3006 59.9862 26.3058 60.0121 26.3084C60.0744 26.3214 60.1418 26.3292 60.204 26.3369C60.2403 26.3421 60.2714 26.3473 60.3077 26.3499H60.3155C60.4296 26.3629 60.5411 26.3732 60.6552 26.3784C60.7693 26.3862 60.8834 26.3888 61.0001 26.3888C61.1167 26.3888 61.2308 26.3862 61.3449 26.3784C61.459 26.3732 61.5731 26.3629 61.6846 26.3499C61.7857 26.3395 61.8869 26.3266 61.988 26.3084C62.0087 26.3058 62.0295 26.3032 62.0476 26.298C62.1488 26.2825 62.2499 26.2617 62.351 26.2384C62.4547 26.2151 62.561 26.1891 62.6622 26.1606C62.6725 26.158 62.6803 26.1554 62.6881 26.1554C62.7685 26.1321 62.8489 26.1062 62.9267 26.0828C62.9578 26.0724 62.9863 26.0621 63.0148 26.0517C63.1056 26.0206 63.1963 25.9895 63.2871 25.9532C63.3052 25.9454 63.3234 25.9376 63.3415 25.9298C63.3934 25.9117 63.4401 25.8909 63.4893 25.8702C63.5386 25.8495 63.5853 25.8261 63.6345 25.8054L63.8083 25.725C63.8653 25.6939 63.9198 25.6653 63.9768 25.6368C65.9371 24.5789 67.2673 22.5071 67.2673 20.1215C67.2699 18.0549 66.269 16.2217 64.7262 15.0808ZM63.7512 25.2142C62.9111 25.6679 61.9621 25.9091 61.0001 25.9091C60.0381 25.9091 59.0864 25.6679 58.2489 25.2142C56.3768 24.2029 55.2125 22.2504 55.2125 20.119C55.2125 18.6384 55.7908 17.2122 56.7942 16.1465V21.7837C56.7942 22.1363 57.0069 22.4475 57.3336 22.5797L58.6819 23.119C59.4209 23.4172 60.2014 23.5702 61.0001 23.5702C61.7987 23.5702 62.5818 23.4172 63.3208 23.119L64.6665 22.5797C64.9933 22.4475 65.2033 22.1363 65.2033 21.7837V16.1465C66.2068 17.2122 66.7876 18.6384 66.7876 20.119C66.7876 22.2504 65.6234 24.2003 63.7512 25.2142Z" fill="white"/>
<path d="M66.7876 20.1189C66.7876 22.2504 65.6234 24.2003 63.7512 25.2142C62.9111 25.6679 61.9621 25.9091 61.0001 25.9091C60.0381 25.9091 59.0865 25.6679 58.2489 25.2142C56.3768 24.2029 55.2125 22.2504 55.2125 20.1189C55.2125 18.6383 55.7908 17.2122 56.7942 16.1465V21.7836C56.7942 22.1363 57.0069 22.4474 57.3336 22.5797L58.6819 23.119C59.4209 23.4172 60.2014 23.5702 61.0001 23.5702C61.7987 23.5702 62.5818 23.4172 63.3208 23.119L64.6666 22.5797C64.9933 22.4474 65.2033 22.1363 65.2033 21.7836V16.1465C66.2094 17.2122 66.7876 18.6383 66.7876 20.1189Z" fill="#E20000"/>
<path d="M61.0001 27.6697C60.1366 27.6697 59.2991 27.5245 58.5004 27.2445V39.4289C58.5004 40.8058 59.6206 41.9286 61.0001 41.9286C62.3769 41.9286 63.4971 40.8058 63.4971 39.4289V27.2445C62.6985 27.5245 61.8635 27.6697 61.0001 27.6697ZM61.0001 40.8991C60.1185 40.8991 59.4028 40.1835 59.4028 39.3045C59.4028 38.4254 60.121 37.7098 61.0001 37.7098C61.8817 37.7098 62.5948 38.4254 62.5948 39.3045C62.5948 40.1835 61.8791 40.8991 61.0001 40.8991Z" fill="#E20000"/>
<path d="M61 37.3546C59.9214 37.3546 59.0501 38.2284 59.0501 39.3019C59.0501 40.3754 59.9239 41.2493 61 41.2493C62.0761 41.2493 62.9474 40.3754 62.9474 39.3019C62.9474 38.2284 62.0761 37.3546 61 37.3546ZM61 40.8992C60.1184 40.8992 59.4028 40.1835 59.4028 39.3045C59.4028 38.4255 60.121 37.7098 61 37.7098C61.8816 37.7098 62.5947 38.4255 62.5947 39.3045C62.5947 40.1835 61.8791 40.8992 61 40.8992Z" fill="#8E000B"/>
<path d="M62.5947 39.3018C62.5947 40.1835 61.8791 40.8965 61.0001 40.8965C60.1184 40.8965 59.4028 40.1809 59.4028 39.3018C59.4028 38.4228 60.121 37.7072 61.0001 37.7072C61.8791 37.7072 62.5947 38.4228 62.5947 39.3018Z" fill="white"/>
<path d="M8.23016 81.4846V78.1448C8.23016 77.022 8.09273 76.1275 7.81528 75.4559C7.53783 74.7869 7.06332 74.3435 6.39433 74.1257V74.0712C7.60266 73.5474 8.20682 72.2976 8.20682 70.3244V69.1575C8.20682 67.6743 7.88011 66.5749 7.22408 65.8592C6.57065 65.1436 5.52827 64.7857 4.10213 64.7857H2.28882e-05V83.7897H2.76933V75.6452H3.72614C4.36402 75.6452 4.81261 75.8163 5.0719 76.1612C5.3312 76.506 5.46085 77.1102 5.46085 77.9814V81.456C5.46085 82.1613 5.47641 82.6514 5.51012 82.9211C5.54383 83.1933 5.61125 83.4812 5.71237 83.7897H8.53095C8.39611 83.463 8.31314 83.1337 8.27943 82.7992C8.24831 82.4673 8.23016 82.0265 8.23016 81.4846ZM5.43752 70.9233C5.43752 71.6468 5.30009 72.1628 5.02264 72.4714C4.74519 72.7799 4.33031 72.9329 3.77801 72.9329H2.77193V67.5032H4.02952C4.517 67.5032 4.87225 67.6562 5.09784 67.9647C5.32343 68.2733 5.43752 68.7712 5.43752 69.4583V70.9233Z" fill="#8E000B"/>
<path d="M10.1439 83.7924H17.6946V81.0775H12.9132V75.2407H16.7145V72.5258H12.9132V67.5032H17.6946V64.7884H10.1439V83.7924Z" fill="#8E000B"/>
<path d="M27.4857 69.4842C27.4857 67.9466 27.1408 66.7797 26.4537 65.9811C25.7666 65.1851 24.7345 64.7857 23.3577 64.7857H19.2789V83.7897H22.0482V76.0523H23.3577C24.7345 76.0523 25.7666 75.6555 26.4537 74.8569C27.1408 74.0608 27.4857 72.894 27.4857 71.3538V69.4842ZM24.7164 71.5482C24.7164 72.1991 24.6023 72.6606 24.3767 72.9329C24.1511 73.2052 23.8114 73.34 23.3577 73.34H22.0482V67.5032H23.3577C23.8114 67.5032 24.1511 67.638 24.3767 67.9103C24.6023 68.1825 24.7164 68.6441 24.7164 69.2949V71.5482Z" fill="#8E000B"/>
<path d="M30.255 64.7884L27.3846 83.7924H29.9516L30.4547 80.074H33.6V80.0196L34.103 83.7924H36.8723L34.0019 64.7884H30.255ZM30.784 77.494L31.9923 68.0996H32.0416L33.2758 77.494H30.784Z" fill="#8E000B"/>
<path d="M40.977 64.7884H38.2077V83.7924H40.977V64.7884Z" fill="#8E000B"/>
<path d="M51.323 82.8018C51.2893 82.4673 51.2738 82.0291 51.2738 81.4846V78.1448C51.2738 77.022 51.1363 76.1275 50.8589 75.4559C50.5814 74.7869 50.1069 74.3435 49.4379 74.1257V74.0712C50.6463 73.5474 51.2504 72.2976 51.2504 70.3244V69.1575C51.2504 67.6743 50.9237 66.5749 50.2677 65.8592C49.6142 65.1436 48.5719 64.7857 47.1457 64.7857H43.0436V83.7897H45.8129V75.6452H46.7697C47.4076 75.6452 47.8562 75.8163 48.1155 76.1612C48.3748 76.506 48.5045 77.1102 48.5045 77.9814V81.456C48.5045 82.1613 48.52 82.6514 48.5537 82.9211C48.5874 83.1933 48.6548 83.4812 48.756 83.7897H51.5745C51.4397 83.4656 51.3567 83.1363 51.323 82.8018ZM48.4785 70.9233C48.4785 71.6468 48.3411 72.1628 48.0636 72.4714C47.7862 72.7799 47.3713 72.9329 46.819 72.9329H45.8129V67.5032H47.0705C47.558 67.5032 47.9133 67.6562 48.1388 67.9647C48.3644 68.2733 48.4785 68.7712 48.4785 69.4583V70.9233Z" fill="#8E000B"/>
<path d="M61.1375 64.5161C59.7943 64.5161 58.7726 64.9283 58.0674 65.7503C57.3621 66.5749 57.0094 67.7547 57.0094 69.2923V79.2831C57.0094 80.8208 57.3621 82.0032 58.0674 82.8251C58.7726 83.6497 59.7969 84.0594 61.1375 84.0594C62.4806 84.0594 63.5023 83.6471 64.2075 82.8251C64.9128 82.0032 65.2655 80.8208 65.2655 79.2831V73.0651H61.2645V75.78H62.6492V79.4983C62.6492 80.73 62.1721 81.3445 61.2152 81.3445C60.2584 81.3445 59.7813 80.73 59.7813 79.4983V69.1005C59.7813 67.8506 60.2584 67.2283 61.2152 67.2283C62.1721 67.2283 62.6492 67.8532 62.6492 69.1005V70.9207H65.2681V69.2923C65.2681 67.7547 64.9154 66.5723 64.2101 65.7503C63.5049 64.9283 62.4806 64.5161 61.1375 64.5161Z" fill="#E20000"/>
<path d="M69.1939 64.7884L66.3235 83.7924H68.8905L69.3936 80.074H72.5389V80.0196L73.0419 83.7924H75.8112L72.9408 64.7884H69.1939ZM69.7203 77.494L70.9286 68.0996H70.9779L72.2121 77.494H69.7203Z" fill="#E20000"/>
<path d="M79.9159 64.7884H77.1465V83.7924H84.4717V81.0775H79.9159V64.7884Z" fill="#E20000"/>
<path d="M88.5739 64.7884H85.8046V83.7924H93.1298V81.0775H88.5739V64.7884Z" fill="#E20000"/>
<path d="M94.4626 83.7924H102.013V81.0775H97.2319V75.2407H101.033V72.5258H97.2319V67.5032H102.013V64.7884H94.4626V83.7924Z" fill="#E20000"/>
<path d="M111.83 81.4846V78.1448C111.83 77.022 111.693 76.1275 111.415 75.4559C111.138 74.7869 110.664 74.3435 109.995 74.1257V74.0712C111.203 73.5474 111.807 72.2976 111.807 70.3244V69.1575C111.807 67.6743 111.48 66.5749 110.824 65.8592C110.171 65.1436 109.128 64.7857 107.702 64.7857H103.6V83.7897H106.37V75.6452H107.326C107.964 75.6452 108.413 75.8163 108.672 76.1612C108.931 76.506 109.061 77.1102 109.061 77.9814V81.456C109.061 82.1613 109.077 82.6514 109.11 82.9211C109.144 83.1933 109.211 83.4812 109.313 83.7897H112.131C111.996 83.463 111.913 83.1337 111.88 82.7992C111.848 82.4673 111.83 82.0265 111.83 81.4846ZM109.038 70.9233C109.038 71.6468 108.9 72.1628 108.623 72.4714C108.345 72.7799 107.93 72.9329 107.378 72.9329H106.372V67.5032H107.63C108.117 67.5032 108.472 67.6562 108.698 67.9647C108.924 68.2733 109.038 68.7712 109.038 69.4583V70.9233Z" fill="#E20000"/>
<path d="M119.306 64.7884L117.418 71.7635H117.369L115.481 64.7884H112.536L115.883 75.7022V83.7924H118.653V75.7022L122 64.7884H119.306Z" fill="#E20000"/>
</svg>
