<svg width="56" height="56" viewBox="0 0 56 56" fill="none" xmlns="http://www.w3.org/2000/svg">
<path d="M46.3401 18.8766C46.3401 19.8566 46.2701 20.8133 46.1534 21.7233C45.0801 21.2566 43.9134 20.9999 42.6768 20.9999C39.8301 20.9999 37.3101 22.3766 35.7468 24.4766C34.1601 22.3766 31.6401 20.9999 28.7934 20.9999C24.0101 20.9999 20.1368 24.8966 20.1368 29.7266C20.1368 35.9799 23.4501 40.7632 27.1368 44.0066C27.0201 44.0766 26.9034 44.1 26.7868 44.1466C26.0868 44.4033 24.9201 44.4033 24.2201 44.1466C18.1768 42.07 4.66675 33.4833 4.66675 18.8766C4.66675 12.4366 9.84673 7.23328 16.2401 7.23328C20.0434 7.23328 23.4034 9.05325 25.5034 11.8766C27.6267 9.05325 30.9867 7.23328 34.7667 7.23328C41.1601 7.23328 46.3401 12.4366 46.3401 18.8766Z" stroke="white" stroke-width="3.5" stroke-linecap="round" stroke-linejoin="round"/>
<path d="M51.3334 29.7266C51.3334 40.6466 41.2301 47.0867 36.7034 48.6267C36.1667 48.8133 35.3034 48.8133 34.7667 48.6267C32.83 47.9733 29.8667 46.41 27.1367 44.0066C23.4501 40.7633 20.1367 35.98 20.1367 29.7266C20.1367 24.8966 24.01 21 28.7934 21C31.64 21 34.1601 22.3766 35.7467 24.4766C37.3101 22.3766 39.8301 21 42.6767 21C43.9134 21 45.08 21.2567 46.1534 21.7233C49.21 23.0767 51.3334 26.1333 51.3334 29.7266Z" fill="white" stroke="white" stroke-width="3.5" stroke-linecap="round" stroke-linejoin="round"/>
</svg>
