<svg width="56" height="56" viewBox="0 0 56 56" fill="none" xmlns="http://www.w3.org/2000/svg">
<path d="M32.0366 8.19003L36.1432 16.4034C36.7032 17.5467 38.1966 18.6434 39.4566 18.8534L46.8999 20.09C51.6599 20.8834 52.7799 24.3367 49.3499 27.7434L43.5632 33.53C42.5832 34.51 42.0466 36.4 42.3499 37.7534L44.0066 44.9167C45.3132 50.5867 42.3032 52.78 37.2866 49.8167L30.3099 45.6867C29.0499 44.94 26.9732 44.94 25.6899 45.6867L18.7132 49.8167C13.7199 52.78 10.6866 50.5634 11.9932 44.9167L13.6499 37.7534C13.9532 36.4 13.4166 34.51 12.4366 33.53L6.64991 27.7434C3.24324 24.3367 4.33991 20.8834 9.09991 20.09L16.5432 18.8534C17.7799 18.6434 19.2732 17.5467 19.8332 16.4034L23.9399 8.19003C26.1799 3.73337 29.8199 3.73337 32.0366 8.19003Z" fill="white" stroke="white" stroke-width="3.5" stroke-linecap="round" stroke-linejoin="round"/>
</svg>
