<svg width="14" height="16" viewBox="0 0 14 16" fill="none" xmlns="http://www.w3.org/2000/svg">
<path d="M4.0233 9.48843C3.06453 9.48843 2.1427 9.8587 1.45005 10.5218C0.757512 11.1849 0.347727 12.0899 0.306089 13.0478L0.302406 13.2093V13.9535C0.302294 14.3291 0.444061 14.6907 0.699466 14.966C0.954759 15.2414 1.30471 15.41 1.67911 15.4382L1.79074 15.4419H12.2094C12.5849 15.442 12.9465 15.3002 13.2219 15.0448C13.4973 14.7895 13.6658 14.4396 13.6941 14.0652L13.6978 13.9535V13.2093C13.6978 12.2504 13.3275 11.3286 12.6643 10.6361C12.0011 9.94354 11.0963 9.53375 10.1383 9.49211L9.97686 9.48843H4.0233ZM7.00008 0.558197C6.01318 0.558197 5.0668 0.950234 4.36901 1.64802C3.67122 2.34581 3.27919 3.2923 3.27919 4.27909C3.27919 5.26599 3.67122 6.21237 4.36901 6.91016C5.0668 7.60806 6.01318 7.99998 7.00008 7.99998C7.98698 7.99998 8.93336 7.60806 9.63115 6.91016C10.3289 6.21237 10.721 5.26599 10.721 4.27909C10.721 3.2923 10.3289 2.34581 9.63115 1.64802C8.93336 0.950234 7.98698 0.558197 7.00008 0.558197Z" fill="#8E000B"/>
</svg>
